{
.appVersion = "3148";
copyright = "Digitized data copyright (C) 2010-2011, Google Corporation.";
customParameters = (
{
name = panose;
value = (
2,
11,
6,
6,
3,
5,
4,
2,
2,
4
);
},
{
name = unicodeRanges;
value = (
0,
1,
2,
3,
5,
6,
7,
9,
29,
30,
31,
32,
33,
35,
36,
38,
45,
62,
67,
69
);
},
{
name = codePageRanges;
value = (
1252,
1250,
1251,
1253,
1254,
1257,
1258
);
},
{
name = glyphOrder;
value = (
.notdef,
null,
nonmarkingreturn,
space,
exclam,
quotedbl,
numbersign,
dollar,
percent,
ampersand,
quotesingle,
parenleft,
parenright,
asterisk,
plus,
comma,
hyphen,
period,
slash,
zero,
one,
two,
three,
four,
five,
six,
seven,
eight,
nine,
colon,
semicolon,
less,
equal,
greater,
question,
at,
A,
B,
C,
D,
E,
F,
G,
H,
I.alt,
J,
K,
L,
M,
N,
O,
P,
Q,
R,
S,
T,
U,
V,
W,
X,
Y,
Z,
bracketleft,
backslash,
bracketright,
asciicircum,
underscore,
grave,
a,
b,
c,
d,
e,
f,
g,
h,
i,
j,
k,
l,
m,
n,
o,
p,
q,
r,
s,
t,
u,
v,
w,
x,
y,
z,
braceleft,
bar,
braceright,
asciitilde,
nonbreakingspace,
exclamdown,
cent,
sterling,
currency,
yen,
brokenbar,
section,
dieresis,
copyright,
ordfeminine,
guillemotleft,
logicalnot,
uni00AD,
registered,
overscore,
degree,
plusminus,
twosuperior,
threesuperior,
acute,
mu,
paragraph,
periodcentered,
cedilla,
onesuperior,
ordmasculine,
guillemotright,
onequarter,
onehalf,
threequarters,
questiondown,
Agrave,
Aacute,
Acircumflex,
Atilde,
Adieresis,
Aring,
AE,
Ccedilla,
Egrave,
Eacute,
Ecircumflex,
Edieresis,
Igrave.alt,
Iacute.alt,
Icircumflex.alt,
Idieresis.alt,
Eth,
Ntilde,
Ograve,
Oacute,
Ocircumflex,
Otilde,
Odieresis,
multiply,
Oslash,
Ugrave,
Uacute,
Ucircumflex,
Udieresis,
Yacute,
Thorn,
germandbls,
agrave,
aacute,
acircumflex,
atilde,
adieresis,
aring,
ae,
ccedilla,
egrave,
eacute,
ecircumflex,
edieresis,
igrave,
iacute,
icircumflex,
idieresis,
eth,
ntilde,
ograve,
oacute,
ocircumflex,
otilde,
odieresis,
divide,
oslash,
ugrave,
uacute,
ucircumflex,
udieresis,
yacute,
thorn,
ydieresis,
Amacron,
amacron,
Abreve,
abreve,
Aogonek,
aogonek,
Cacute,

glyphs = (
{
glyphname = .notdef;
lastChange = "2017-04-22 20:56:27 +0000";
layers = (
{
layerId = "6A44F957-816A-4D1D-8CAD-45EB0FE52ECF";
paths = (
{
closed = 1;
nodes = (
"1034 0 LINE",
"1034 1462 LINE",
"193 1462 LINE",
"193 0 LINE"
);
},
{
closed = 1;
nodes = (
"930 1358 LINE",
"930 104 LINE",
"297 104 LINE",
"297 1358 LINE"
);
}
);
width = 1229;
}
);
note = ".notdef";
},
{
glyphname = exclam;
lastChange = "2017-04-22 20:56:27 +0000";
layers = (
{
layerId = "6A44F957-816A-4D1D-8CAD-45EB0FE52ECF";
paths = (
{
closed = 1;
nodes = (
"263 961 OFFCURVE",
"205 608 OFFCURVE",
"172 403 CURVE",
"281 403 LINE",
"555 1462 LINE",
"348 1462 LINE"
);
},
{
closed = 1;
nodes = (
"43 10 OFFCURVE",
"82 -29 OFFCURVE",
"147 -29 CURVE SMOOTH",
"235 -29 OFFCURVE",
"291 42 OFFCURVE",
"291 133 CURVE SMOOTH",
"291 205 OFFCURVE",
"250 242 OFFCURVE",
"190 242 CURVE SMOOTH",
"99 242 OFFCURVE",
"43 179 OFFCURVE",
"43 78 CURVE SMOOTH"
);
}
);
width = 530;
}
);
note = exclam;
unicode = 0021;
},
{
glyphname = quotedbl;
lastChange = "2017-04-22 20:56:27 +0000";
layers = (
{
layerId = "6A44F957-816A-4D1D-8CAD-45EB0FE52ECF";
paths = (
{
closed = 1;
nodes = (
"225 934 LINE",
"332 934 LINE",
"485 1462 LINE",
"297 1462 LINE"
);
},
{
closed = 1;
nodes = (
"573 934 LINE",
"680 934 LINE",
"834 1462 LINE",
"645 1462 LINE"
);
}
);
width = 791;
}
);
note = quotedbl;
unicode = 0022;
},
{
glyphname = numbersign;
lastChange = "2017-04-22 20:56:27 +0000";
layers = (
{
layerId = "6A44F957-816A-4D1D-8CAD-45EB0FE52ECF";
paths = (
{
closed = 1;
nodes = (
"1339 1026 LINE",
"1075 1026 LINE",
"1200 1462 LINE",
"1067 1462 LINE",
"940 1026 LINE",
"635 1026 LINE",
"760 1462 LINE",
"621 1462 LINE",
"498 1026 LINE",
"197 1026 LINE",
"184 899 LINE",
"461 899 LINE",
"360 559 LINE",
"76 559 LINE",
"63 430 LINE",
"324 430 LINE",
"203 0 LINE",
"336 0 LINE",
"463 430 LINE",
"766 430 LINE",
"637 0 LINE",
"776 0 LINE",
"901 430 LINE",
"1210 430 LINE",
"1223 559 LINE",
"938 559 LINE",
"1036 899 LINE",
"1327 899 LINE"
);
},
{
closed = 1;
nodes = (
"899 899 LINE",
"803 559 LINE",
"500 559 LINE",
"596 899 LINE"
);
}
);
width = 1323;
}
);
note = numbersign;
unicode = 0023;
},
{
glyphname = dollar;
lastChange = "2017-04-22 20:56:27 +0000";
layers = (
{
layerId = "6A44F957-816A-4D1D-8CAD-45EB0FE52ECF";
paths = (
{
closed = 1;
nodes = (
"942 636 OFFCURVE",
"865 722 OFFCURVE",
"666 795 CURVE",
"760 1235 LINE",
"845 1229 OFFCURVE",
"927 1205 OFFCURVE",
"1008 1163 CURVE",
"1071 1298 LINE",
"988 1341 OFFCURVE",
"894 1366 OFFCURVE",
"788 1374 CURVE",
"827 1552 LINE",
"694 1552 LINE",
"655 1376 LINE",
"400 1353 OFFCURVE",
"248 1220 OFFCURVE",
"248 1008 CURVE SMOOTH",
"248 856 OFFCURVE",
"327 761 OFFCURVE",
"512 696 CURVE",
"414 244 LINE",
"317 244 OFFCURVE",
"181 275 OFFCURVE",
"72 330 CURVE",
"72 176 LINE",
"152 137 OFFCURVE",
"257 113 OFFCURVE",
"387 104 CURVE",
"338 -119 LINE",
"471 -119 LINE",
"520 106 LINE",
"783 135 OFFCURVE",
"942 276 OFFCURVE",
"942 492 CURVE SMOOTH"
);
},
{
closed = 1;
nodes = (
"743 606 OFFCURVE",
"782 551 OFFCURVE",
"782 479 CURVE SMOOTH",
"782 356 OFFCURVE",
"692 267 OFFCURVE",
"549 250 CURVE",
"635 649 LINE"
);
},
{
closed = 1;
nodes = (
"446 877 OFFCURVE",
"401 939 OFFCURVE",
"401 1010 CURVE SMOOTH",
"401 1141 OFFCURVE",
"483 1220 OFFCURVE",
"627 1235 CURVE",
"543 842 LINE"
);
}
);
width = 1128;
}
);
note = dollar;
unicode = 0024;
},
{
glyphname = percent;
lastChange = "2017-04-22 20:56:27 +0000";
layers = (
{
layerId = "6A44F957-816A-4D1D-8CAD-45EB0FE52ECF";
paths = (
{
closed = 1;
nodes = (
"231 0 LINE",
"383 0 LINE",
"1468 1462 LINE",
"1317 1462 LINE"
);
},
{
closed = 1;
nodes = (
"1357 772 OFFCURVE",
"1393 717 OFFCURVE",
"1393 606 CURVE SMOOTH",
"1393 537 OFFCURVE",
"1382 459 OFFCURVE",
"1359 370 CURVE SMOOTH",
"1313 192 OFFCURVE",
"1242 106 OFFCURVE",
"1155 106 CURVE SMOOTH",
"1084 106 OFFCURVE",
"1049 164 OFFCURVE",
"1049 279 CURVE SMOOTH",
"1049 356 OFFCURVE",
"1060 436 OFFCURVE",
"1081 519 CURVE SMOOTH",
"1123 684 OFFCURVE",
"1195 772 OFFCURVE",
"1284 772 CURVE SMOOTH"
);
},
{
closed = 1;
nodes = (
"1532 798 OFFCURVE",
"1451 897 OFFCURVE",
"1296 897 CURVE SMOOTH",
"1220 897 OFFCURVE",
"1153 872 OFFCURVE",
"1096 821 CURVE SMOOTH",
"981 720 OFFCURVE",
"909 495 OFFCURVE",
"909 274 CURVE SMOOTH",
"909 81 OFFCURVE",
"994 -20 OFFCURVE",
"1141 -20 CURVE SMOOTH",
"1256 -20 OFFCURVE",
"1351 50 OFFCURVE",
"1419 168 CURVE SMOOTH",
"1486 286 OFFCURVE",
"1532 478 OFFCURVE",
"1532 621 CURVE SMOOTH"
);
},
{
closed = 1;
nodes = (
"615 1358 OFFCURVE",
"651 1303 OFFCURVE",
"651 1192 CURVE SMOOTH",
"651 1097 OFFCURVE",
"624 945 OFFCURVE",
"582 846 CURVE SMOOTH",
"540 746 OFFCURVE",
"483 692 OFFCURVE",
"414 692 CURVE SMOOTH",
"343 692 OFFCURVE",
"307 749 OFFCURVE",
"307 864 CURVE SMOOTH",
"307 943 OFFCURVE",
"318 1025 OFFCURVE",
"339 1108 CURVE SMOOTH",
"382 1274 OFFCURVE",
"455 1358 OFFCURVE",
"543 1358 CURVE SMOOTH"
);
},
{
closed = 1;
nodes = (
"791 1383 OFFCURVE",
"710 1483 OFFCURVE",
"555 1483 CURVE SMOOTH",
"479 1483 OFFCURVE",
"412 1458 OFFCURVE",
"355 1407 CURVE SMOOTH",
"240 1306 OFFCURVE",
"168 1081 OFFCURVE",
"168 860 CURVE SMOOTH",
"168 667 OFFCURVE",
"254 565 OFFCURVE",
"399 565 CURVE SMOOTH",
"515 565 OFFCURVE",
"609 634 OFFCURVE",
"677 751 CURVE SMOOTH",
"744 868 OFFCURVE",
"791 1062 OFFCURVE",
"791 1206 CURVE SMOOTH"
);
}
);
width = 1624;
}
);
note = percent;
unicode = 0025;
},
{
glyphname = ampersand;
lastChange = "2017-04-22 20:56:27 +0000";
layers = (
{
layerId = "6A44F957-816A-4D1D-8CAD-45EB0FE52ECF";
paths = (
{
closed = 1;
nodes = (
"845 1348 OFFCURVE",
"903 1285 OFFCURVE",
"903 1182 CURVE SMOOTH",
"903 1105 OFFCURVE",
"858 1045 OFFCURVE",
"789 993 CURVE SMOOTH",
"754 967 OFFCURVE",
"691 930 OFFCURVE",
"598 883 CURVE",
"543 960 OFFCURVE",
"516 1038 OFFCURVE",
"516 1118 CURVE SMOOTH",
"516 1265 OFFCURVE",
"597 1348 OFFCURVE",
"737 1348 CURVE SMOOTH"
);
},
{
closed = 1;
nodes = (
"326 119 OFFCURVE",
"229 213 OFFCURVE",
"229 354 CURVE SMOOTH",
"229 403 OFFCURVE",
"239 447 OFFCURVE",
"259 486 CURVE SMOOTH",
"298 564 OFFCURVE",
"357 620 OFFCURVE",
"528 709 CURVE",
"834 276 LINE",
"682 155 OFFCURVE",
"587 119 OFFCURVE",
"471 119 CURVE SMOOTH"
);
},
{
closed = 1;
nodes = (
"66 115 OFFCURVE",
"212 -20 OFFCURVE",
"436 -20 CURVE SMOOTH",
"619 -20 OFFCURVE",
"753 33 OFFCURVE",
"913 166 CURVE",
"1030 0 LINE",
"1231 0 LINE",
"1028 270 LINE",
"1149 387 OFFCURVE",
"1244 525 OFFCURVE",
"1311 682 CURVE",
"1143 682 LINE",
"1095 559 OFFCURVE",
"1029 460 OFFCURVE",
"944 387 CURVE",
"666 776 LINE",
"774 832 OFFCURVE",
"874 884 OFFCURVE",
"947 949 CURVE SMOOTH",
"1020 1014 OFFCURVE",
"1067 1090 OFFCURVE",
"1067 1194 CURVE SMOOTH",
"1067 1371 OFFCURVE",
"942 1485 OFFCURVE",
"743 1485 CURVE SMOOTH",
"510 1485 OFFCURVE",
"356 1339 OFFCURVE",
"356 1120 CURVE SMOOTH",
"356 1024 OFFCURVE",
"390 921 OFFCURVE",
"459 811 CURVE",
"175 675 OFFCURVE",
"66 539 OFFCURVE",
"66 342 CURVE SMOOTH"
);
}
);
width = 1372;
}
);
note = ampersand;
unicode = 0026;
},
{
glyphname = quotesingle;
lastChange = "2017-04-22 20:56:27 +0000";
layers = (
{
layerId = "6A44F957-816A-4D1D-8CAD-45EB0FE52ECF";
paths = (
{
closed = 1;
nodes = (
"225 934 LINE",
"332 934 LINE",
"485 1462 LINE",
"297 1462 LINE"
);
}
);
width = 444;
}
);
note = quotesingle;
unicode = 0027;
},
{
glyphname = parenleft;
lastChange = "2017-04-22 20:56:27 +0000";
layers = (
{
layerId = "6A44F957-816A-4D1D-8CAD-45EB0FE52ECF";
paths = (
{
closed = 1;
nodes = (
"82 52 OFFCURVE",
"131 -147 OFFCURVE",
"229 -324 CURVE",
"360 -324 LINE",
"284 -151 OFFCURVE",
"246 48 OFFCURVE",
"246 274 CURVE SMOOTH",
"246 698 OFFCURVE",
"415 1102 OFFCURVE",
"743 1462 CURVE",
"586 1462 LINE",
"234 1095 OFFCURVE",
"82 724 OFFCURVE",
"82 272 CURVE SMOOTH"
);
}
);
width = 584;
}
);
note = parenleft;
unicode = 0028;
},
{
glyphname = parenright;
lastChange = "2017-04-22 20:56:27 +0000";
layers = (
{
layerId = "6A44F957-816A-4D1D-8CAD-45EB0FE52ECF";
paths = (
{
closed = 1;
nodes = (
"500 1083 OFFCURVE",
"451 1283 OFFCURVE",
"354 1462 CURVE",
"223 1462 LINE",
"298 1291 OFFCURVE",
"336 1091 OFFCURVE",
"336 864 CURVE SMOOTH",
"336 439 OFFCURVE",
"171 43 OFFCURVE",
"-160 -324 CURVE",
"-4 -324 LINE",
"344 36 OFFCURVE",
"500 409 OFFCURVE",
"500 864 CURVE SMOOTH"
);
}
);
width = 584;
}
);
note = parenright;
unicode = 0029;
},
{
glyphname = asterisk;
lastChange = "2017-04-22 20:56:27 +0000";
layers = (
{
layerId = "6A44F957-816A-4D1D-8CAD-45EB0FE52ECF";
paths = (
{
closed = 1;
nodes = (
"641 1163 LINE",
"270 1348 LINE",
"215 1194 LINE",
"588 1085 LINE",
"279 801 LINE",
"395 680 LINE",
"653 1024 LINE",
"766 618 LINE",
"932 670 LINE",
"752 1053 LINE",
"1145 1006 LINE",
"1153 1163 LINE",
"731 1145 LINE",
"854 1528 LINE",
"682 1563 LINE"
);
}
);
width = 1130;
}
);
note = asterisk;
unicode = 002A;
},
{
glyphname = plus;
lastChange = "2017-04-22 20:56:27 +0000";
layers = (
{
layerId = "6A44F957-816A-4D1D-8CAD-45EB0FE52ECF";
paths = (
{
closed = 1;
nodes = (
"657 264 LINE",
"657 651 LINE",
"1047 651 LINE",
"1047 793 LINE",
"657 793 LINE",
"657 1184 LINE",
"516 1184 LINE",
"516 793 LINE",
"127 793 LINE",
"127 651 LINE",
"516 651 LINE",
"516 264 LINE"
);
}
);
width = 1128;
}
);
note = plus;
unicode = 002B;
},
{
glyphname = comma;
lastChange = "2017-04-22 20:56:27 +0000";
layers = (
{
layerId = "6A44F957-816A-4D1D-8CAD-45EB0FE52ECF";
paths = (
{
closed = 1;
nodes = (
"52 94 OFFCURVE",
"-16 -73 OFFCURVE",
"-100 -264 CURVE",
"29 -264 LINE",
"134 -101 OFFCURVE",
"224 58 OFFCURVE",
"299 215 CURVE",
"291 238 LINE",
"104 238 LINE"
);
}
);
width = 492;
}
);
note = comma;
unicode = 002C;
},
{
glyphname = hyphen;
lastChange = "2017-04-22 20:56:27 +0000";
layers = (
{
layerId = "6A44F957-816A-4D1D-8CAD-45EB0FE52ECF";
paths = (
{
closed = 1;
nodes = (
"569 627 LINE",
"90 627 LINE",
"55 469 LINE",
"535 469 LINE"
);
}
);
width = 639;
}
);
note = hyphen;
unicode = 002D;
},
{
glyphname = period;
lastChange = "2017-04-22 20:56:27 +0000";
layers = (
{
layerId = "6A44F957-816A-4D1D-8CAD-45EB0FE52ECF";
paths = (
{
closed = 1;
nodes = (
"43 6 OFFCURVE",
"82 -29 OFFCURVE",
"143 -29 CURVE SMOOTH",
"234 -29 OFFCURVE",
"291 42 OFFCURVE",
"291 137 CURVE SMOOTH",
"291 208 OFFCURVE",
"252 242 OFFCURVE",
"195 242 CURVE SMOOTH",
"100 242 OFFCURVE",
"43 177 OFFCURVE",
"43 74 CURVE SMOOTH"
);
}
);
width = 518;
}
);
note = period;
unicode = 002E;
},
{
glyphname = slash;
lastChange = "2017-04-22 20:56:27 +0000";
layers = (
{
layerId = "6A44F957-816A-4D1D-8CAD-45EB0FE52ECF";
paths = (
{
closed = 1;
nodes = (
"-94 0 LINE",
"80 0 LINE",
"893 1462 LINE",
"719 1462 LINE"
);
}
);
width = 717;
}
);
note = slash;
unicode = 002F;
},
{
glyphname = zero;
lastChange = "2017-04-22 20:56:27 +0000";
layers = (
{
layerId = "6A44F957-816A-4D1D-8CAD-45EB0FE52ECF";
paths = (
{
closed = 1;
nodes = (
"1092 1328 OFFCURVE",
"970 1485 OFFCURVE",
"727 1485 CURVE SMOOTH",
"612 1485 OFFCURVE",
"509 1444 OFFCURVE",
"420 1361 CURVE SMOOTH",
"240 1195 OFFCURVE",
"121 837 OFFCURVE",
"121 477 CURVE SMOOTH",
"121 154 OFFCURVE",
"250 -20 OFFCURVE",
"485 -20 CURVE SMOOTH",
"604 -20 OFFCURVE",
"709 22 OFFCURVE",
"800 106 CURVE SMOOTH",
"980 273 OFFCURVE",
"1092 621 OFFCURVE",
"1092 1014 CURVE SMOOTH"
);
},
{
closed = 1;
nodes = (
"852 1341 OFFCURVE",
"920 1233 OFFCURVE",
"920 1018 CURVE SMOOTH",
"920 859 OFFCURVE",
"901 708 OFFCURVE",
"864 565 CURVE SMOOTH",
"788 280 OFFCURVE",
"657 123 OFFCURVE",
"504 123 CURVE SMOOTH",
"356 123 OFFCURVE",
"293 250 OFFCURVE",
"293 479 CURVE SMOOTH",
"293 623 OFFCURVE",
"313 764 OFFCURVE",
"353 903 CURVE SMOOTH",
"432 1179 OFFCURVE",
"566 1341 OFFCURVE",
"717 1341 CURVE SMOOTH"
);
}
);
width = 1128;
}
);
note = zero;
unicode = 0030;
},
{
glyphname = one;
lastChange = "2017-04-22 20:56:27 +0000";
layers = (
{
layerId = "6A44F957-816A-4D1D-8CAD-45EB0FE52ECF";
paths = (
{
closed = 1;
nodes = (
"752 1462 LINE",
"303 1178 LINE",
"383 1051 LINE",
"561 1161 LINE SMOOTH",
"620 1200 OFFCURVE",
"667 1237 OFFCURVE",
"700 1272 CURVE",
"681 1207 OFFCURVE",
"651 1087 OFFCURVE",
"612 913 CURVE SMOOTH",
"416 0 LINE",
"588 0 LINE",
"901 1462 LINE"
);
}
);
width = 1128;
}
);
note = one;
unicode = 0031;
},
{
glyphname = two;
lastChange = "2017-04-22 20:56:27 +0000";
layers = (
{
layerId = "6A44F957-816A-4D1D-8CAD-45EB0FE52ECF";
paths = (
{
closed = 1;
nodes = (
"262 154 LINE",
"262 162 LINE",
"614 469 LINE SMOOTH",
"749 587 OFFCURVE",
"848 681 OFFCURVE",
"909 750 CURVE SMOOTH",
"1031 889 OFFCURVE",
"1079 1003 OFFCURVE",
"1079 1151 CURVE SMOOTH",
"1079 1358 OFFCURVE",
"933 1483 OFFCURVE",
"698 1483 CURVE SMOOTH",
"550 1483 OFFCURVE",
"412 1432 OFFCURVE",
"285 1329 CURVE",
"367 1214 LINE",
"486 1305 OFFCURVE",
"577 1339 OFFCURVE",
"680 1339 CURVE SMOOTH",
"817 1339 OFFCURVE",
"903 1256 OFFCURVE",
"903 1124 CURVE SMOOTH",
"903 1024 OFFCURVE",
"872 947 OFFCURVE",
"808 864 CURVE SMOOTH",
"743 780 OFFCURVE",
"644 691 OFFCURVE",
"508 567 CURVE SMOOTH",
"43 147 LINE",
"12 0 LINE",
"911 0 LINE",
"940 154 LINE"
);
}
);
width = 1128;
}
);
note = two;
unicode = 0032;
},
{
glyphname = three;
lastChange = "2017-04-22 20:56:27 +0000";
layers = (
{
layerId = "6A44F957-816A-4D1D-8CAD-45EB0FE52ECF";
paths = (
{
closed = 1;
nodes = (
"1073 1359 OFFCURVE",
"937 1483 OFFCURVE",
"698 1483 CURVE SMOOTH",
"545 1483 OFFCURVE",
"404 1435 OFFCURVE",
"274 1339 CURVE",
"354 1221 LINE",
"485 1309 OFFCURVE",
"579 1341 OFFCURVE",
"686 1341 CURVE SMOOTH",
"818 1341 OFFCURVE",
"901 1264 OFFCURVE",
"901 1141 CURVE SMOOTH",
"901 954 OFFCURVE",
"738 827 OFFCURVE",
"518 827 CURVE SMOOTH",
"379 827 LINE",
"348 684 LINE",
"479 684 LINE SMOOTH",
"667 684 OFFCURVE",
"778 593 OFFCURVE",
"778 418 CURVE SMOOTH",
"778 234 OFFCURVE",
"652 121 OFFCURVE",
"436 121 CURVE SMOOTH",
"323 121 OFFCURVE",
"172 158 OFFCURVE",
"47 223 CURVE",
"47 59 LINE",
"164 6 OFFCURVE",
"292 -20 OFFCURVE",
"432 -20 CURVE SMOOTH",
"541 -20 OFFCURVE",
"636 -1 OFFCURVE",
"715 37 CURVE SMOOTH",
"874 113 OFFCURVE",
"958 253 OFFCURVE",
"958 430 CURVE SMOOTH",
"958 597 OFFCURVE",
"857 714 OFFCURVE",
"692 745 CURVE",
"692 754 LINE",
"931 797 OFFCURVE",
"1073 951 OFFCURVE",
"1073 1159 CURVE SMOOTH"
);
}
);
width = 1128;
}
);
note = three;
unicode = 0033;
},
{
glyphname = four;
lastChange = "2017-04-22 20:56:27 +0000";
layers = (
{
layerId = "6A44F957-816A-4D1D-8CAD-45EB0FE52ECF";
paths = (
{
closed = 1;
nodes = (
"868 487 LINE",
"1075 1470 LINE",
"879 1470 LINE",
"45 492 LINE",
"16 334 LINE",
"672 334 LINE",
"598 0 LINE",
"762 0 LINE",
"834 334 LINE",
"1067 334 LINE",
"1100 487 LINE"
);
},
{
closed = 1;
nodes = (
"752 1112 LINE SMOOTH",
"783 1151 OFFCURVE",
"868 1266 OFFCURVE",
"891 1305 CURVE",
"899 1305 LINE",
"787 916 OFFCURVE",
"766 780 OFFCURVE",
"705 487 CURVE",
"219 487 LINE"
);
}
);
width = 1128;
}
);
note = four;
unicode = 0034;
},
{
glyphname = five;
lastChange = "2017-04-22 20:56:27 +0000";
layers = (
{
layerId = "6A44F957-816A-4D1D-8CAD-45EB0FE52ECF";
paths = (
{
closed = 1;
nodes = (
"533 893 OFFCURVE",
"472 885 OFFCURVE",
"414 870 CURVE",
"541 1309 LINE",
"1063 1309 LINE",
"1096 1462 LINE",
"428 1462 LINE",
"231 778 LINE",
"305 721 LINE",
"425 753 OFFCURVE",
"477 758 OFFCURVE",
"541 758 CURVE SMOOTH",
"716 758 OFFCURVE",
"819 653 OFFCURVE",
"819 485 CURVE SMOOTH",
"819 256 OFFCURVE",
"669 121 OFFCURVE",
"414 121 CURVE SMOOTH",
"301 121 OFFCURVE",
"189 155 OFFCURVE",
"80 223 CURVE",
"80 59 LINE",
"171 6 OFFCURVE",
"281 -20 OFFCURVE",
"410 -20 CURVE SMOOTH",
"528 -20 OFFCURVE",
"631 0 OFFCURVE",
"718 41 CURVE SMOOTH",
"893 121 OFFCURVE",
"995 291 OFFCURVE",
"995 506 CURVE SMOOTH",
"995 743 OFFCURVE",
"841 893 OFFCURVE",
"598 893 CURVE SMOOTH"
);
}
);
width = 1128;
}
);
note = five;
unicode = 0035;
},
{
glyphname = six;
lastChange = "2017-04-22 20:56:27 +0000";
layers = (
{
layerId = "6A44F957-816A-4D1D-8CAD-45EB0FE52ECF";
paths = (
{
closed = 1;
nodes = (
"133 139 OFFCURVE",
"271 -20 OFFCURVE",
"514 -20 CURVE SMOOTH",
"612 -20 OFFCURVE",
"699 4 OFFCURVE",
"775 51 CURVE SMOOTH",
"927 145 OFFCURVE",
"1022 334 OFFCURVE",
"1022 549 CURVE SMOOTH",
"1022 778 OFFCURVE",
"893 918 OFFCURVE",
"688 918 CURVE SMOOTH",
"547 918 OFFCURVE",
"427 850 OFFCURVE",
"348 745 CURVE",
"340 745 LINE",
"431 1137 OFFCURVE",
"626 1337 OFFCURVE",
"909 1337 CURVE SMOOTH",
"977 1337 OFFCURVE",
"1034 1330 OFFCURVE",
"1079 1315 CURVE",
"1114 1460 LINE",
"1065 1475 OFFCURVE",
"1004 1483 OFFCURVE",
"930 1483 CURVE SMOOTH",
"685 1483 OFFCURVE",
"494 1385 OFFCURVE",
"357 1191 CURVE SMOOTH",
"220 997 OFFCURVE",
"133 703 OFFCURVE",
"133 424 CURVE SMOOTH"
);
},
{
closed = 1;
nodes = (
"383 121 OFFCURVE",
"299 233 OFFCURVE",
"299 416 CURVE SMOOTH",
"299 547 OFFCURVE",
"331 612 OFFCURVE",
"395 676 CURVE SMOOTH",
"459 739 OFFCURVE",
"545 780 OFFCURVE",
"633 780 CURVE SMOOTH",
"780 780 OFFCURVE",
"854 697 OFFCURVE",
"854 532 CURVE SMOOTH",
"854 457 OFFCURVE",
"841 387 OFFCURVE",
"814 324 CURVE SMOOTH",
"760 197 OFFCURVE",
"657 121 OFFCURVE",
"532 121 CURVE SMOOTH"
);
}
);
width = 1128;
}
);
note = six;
unicode = 0036;
},
{
glyphname = seven;
lastChange = "2017-04-22 20:56:27 +0000";
layers = (
{
layerId = "6A44F957-816A-4D1D-8CAD-45EB0FE52ECF";
paths = (
{
closed = 1;
nodes = (
"1118 1323 LINE",
"1145 1462 LINE",
"254 1462 LINE",
"223 1313 LINE",
"942 1313 LINE",
"174 0 LINE",
"354 0 LINE"
);
}
);
width = 1128;
}
);
note = seven;
unicode = 0037;
},
{
glyphname = eight;
lastChange = "2017-04-22 20:56:27 +0000";
layers = (
{
layerId = "6A44F957-816A-4D1D-8CAD-45EB0FE52ECF";
paths = (
{
closed = 1;
nodes = (
"659 1485 OFFCURVE",
"585 1469 OFFCURVE",
"519 1437 CURVE SMOOTH",
"387 1372 OFFCURVE",
"311 1250 OFFCURVE",
"311 1102 CURVE SMOOTH",
"311 974 OFFCURVE",
"360 878 OFFCURVE",
"487 786 CURVE",
"219 685 OFFCURVE",
"96 543 OFFCURVE",
"96 346 CURVE SMOOTH",
"96 121 OFFCURVE",
"249 -20 OFFCURVE",
"502 -20 CURVE SMOOTH",
"603 -20 OFFCURVE",
"692 -3 OFFCURVE",
"767 31 CURVE SMOOTH",
"917 99 OFFCURVE",
"999 232 OFFCURVE",
"999 395 CURVE SMOOTH",
"999 548 OFFCURVE",
"935 658 OFFCURVE",
"766 762 CURVE",
"1017 869 OFFCURVE",
"1110 991 OFFCURVE",
"1110 1163 CURVE SMOOTH",
"1110 1362 OFFCURVE",
"973 1485 OFFCURVE",
"741 1485 CURVE SMOOTH"
);
},
{
closed = 1;
nodes = (
"759 620 OFFCURVE",
"825 523 OFFCURVE",
"825 391 CURVE SMOOTH",
"825 228 OFFCURVE",
"705 121 OFFCURVE",
"520 121 CURVE SMOOTH",
"371 121 OFFCURVE",
"270 211 OFFCURVE",
"270 354 CURVE SMOOTH",
"270 513 OFFCURVE",
"361 620 OFFCURVE",
"608 700 CURVE"
);
},
{
closed = 1;
nodes = (
"857 1341 OFFCURVE",
"940 1265 OFFCURVE",
"940 1145 CURVE SMOOTH",
"940 1009 OFFCURVE",
"860 920 OFFCURVE",
"645 840 CURVE",
"528 912 OFFCURVE",
"479 991 OFFCURVE",
"479 1100 CURVE SMOOTH",
"479 1247 OFFCURVE",
"577 1341 OFFCURVE",
"729 1341 CURVE SMOOTH"
);
}
);
width = 1128;
}
);
note = eight;
unicode = 0038;
},
{
glyphname = nine;
lastChange = "2017-04-22 20:56:27 +0000";
layers = (
{
layerId = "6A44F957-816A-4D1D-8CAD-45EB0FE52ECF";
paths = (
{
closed = 1;
nodes = (
"1067 1327 OFFCURVE",
"928 1483 OFFCURVE",
"688 1483 CURVE SMOOTH",
"592 1483 OFFCURVE",
"506 1459 OFFCURVE",
"429 1412 CURVE SMOOTH",
"275 1316 OFFCURVE",
"184 1136 OFFCURVE",
"184 932 CURVE SMOOTH",
"184 679 OFFCURVE",
"312 545 OFFCURVE",
"537 545 CURVE SMOOTH",
"669 545 OFFCURVE",
"782 607 OFFCURVE",
"850 707 CURVE",
"860 707 LINE",
"775 307 OFFCURVE",
"613 125 OFFCURVE",
"344 125 CURVE SMOOTH",
"269 125 OFFCURVE",
"187 141 OFFCURVE",
"98 172 CURVE",
"98 14 LINE",
"169 -9 OFFCURVE",
"249 -20 OFFCURVE",
"340 -20 CURVE SMOOTH",
"569 -20 OFFCURVE",
"742 71 OFFCURVE",
"864 268 CURVE SMOOTH",
"986 464 OFFCURVE",
"1067 775 OFFCURVE",
"1067 1034 CURVE SMOOTH"
);
},
{
closed = 1;
nodes = (
"817 1341 OFFCURVE",
"901 1232 OFFCURVE",
"901 1057 CURVE SMOOTH",
"901 937 OFFCURVE",
"875 863 OFFCURVE",
"816 792 CURVE SMOOTH",
"756 721 OFFCURVE",
"668 682 OFFCURVE",
"567 682 CURVE SMOOTH",
"423 682 OFFCURVE",
"350 773 OFFCURVE",
"350 938 CURVE SMOOTH",
"350 1174 OFFCURVE",
"482 1341 OFFCURVE",
"682 1341 CURVE SMOOTH"
);
}
);
width = 1128;
}
);
note = nine;
unicode = 0039;
},
{
glyphname = colon;
lastChange = "2017-04-22 20:56:27 +0000";
layers = (
{
layerId = "6A44F957-816A-4D1D-8CAD-45EB0FE52ECF";
paths = (
{
closed = 1;
nodes = (
"43 6 OFFCURVE",
"82 -29 OFFCURVE",
"143 -29 CURVE SMOOTH",
"234 -29 OFFCURVE",
"291 42 OFFCURVE",
"291 137 CURVE SMOOTH",
"291 208 OFFCURVE",
"252 242 OFFCURVE",
"195 242 CURVE SMOOTH",
"100 242 OFFCURVE",
"43 177 OFFCURVE",
"43 74 CURVE SMOOTH"
);
},
{
closed = 1;
nodes = (
"203 891 OFFCURVE",
"242 854 OFFCURVE",
"303 854 CURVE SMOOTH",
"390 854 OFFCURVE",
"451 923 OFFCURVE",
"451 1020 CURVE SMOOTH",
"451 1089 OFFCURVE",
"419 1124 OFFCURVE",
"354 1124 CURVE SMOOTH",
"259 1124 OFFCURVE",
"203 1059 OFFCURVE",
"203 956 CURVE SMOOTH"
);
}
);
width = 518;
}
);
note = colon;
unicode = 003A;
},
{
glyphname = semicolon;
lastChange = "2017-04-22 20:56:27 +0000";
layers = (
{
layerId = "6A44F957-816A-4D1D-8CAD-45EB0FE52ECF";
paths = (
{
closed = 1;
nodes = (
"52 94 OFFCURVE",
"-16 -73 OFFCURVE",
"-100 -264 CURVE",
"29 -264 LINE",
"134 -101 OFFCURVE",
"224 58 OFFCURVE",
"299 215 CURVE",
"291 238 LINE",
"104 238 LINE"
);
},
{
closed = 1;
nodes = (
"203 891 OFFCURVE",
"242 854 OFFCURVE",
"303 854 CURVE SMOOTH",
"390 854 OFFCURVE",
"451 923 OFFCURVE",
"451 1020 CURVE SMOOTH",
"451 1089 OFFCURVE",
"419 1124 OFFCURVE",
"354 1124 CURVE SMOOTH",
"259 1124 OFFCURVE",
"203 1059 OFFCURVE",
"203 956 CURVE SMOOTH"
);
}
);
width = 518;
}
);
note = semicolon;
unicode = 003B;
},
{
glyphname = less;
lastChange = "2017-04-22 20:56:27 +0000";
layers = (
{
layerId = "6A44F957-816A-4D1D-8CAD-45EB0FE52ECF";
paths = (
{
closed = 1;
nodes = (
"293 721 LINE",
"1040 1092 LINE",
"1040 1241 LINE",
"121 762 LINE",
"121 664 LINE",
"1040 242 LINE",
"1040 393 LINE"
);
}
);
width = 1128;
}
);
note = less;
unicode = 003C;
},
{
glyphname = equal;
lastChange = "2017-04-22 20:56:27 +0000";
layers = (
{
layerId = "6A44F957-816A-4D1D-8CAD-45EB0FE52ECF";
paths = (
{
closed = 1;
nodes = (
"1047 997 LINE",
"127 997 LINE",
"127 858 LINE",
"1047 858 LINE"
);
},
{
closed = 1;
nodes = (
"1047 586 LINE",
"127 586 LINE",
"127 444 LINE",
"1047 444 LINE"
);
}
);
width = 1128;
}
);
note = equal;
unicode = 003D;
},
{
glyphname = greater;
lastChange = "2017-04-22 20:56:27 +0000";
layers = (
{
layerId = "6A44F957-816A-4D1D-8CAD-45EB0FE52ECF";
paths = (
{
closed = 1;
nodes = (
"1040 664 LINE",
"1040 762 LINE",
"121 1241 LINE",
"121 1092 LINE",
"866 721 LINE",
"121 393 LINE",
"121 242 LINE"
);
}
);
width = 1128;
}
);
note = greater;
unicode = 003E;
},
{
glyphname = question;
lastChange = "2017-04-22 20:56:27 +0000";
layers = (
{
layerId = "6A44F957-816A-4D1D-8CAD-45EB0FE52ECF";
paths = (
{
closed = 1;
nodes = (
"426 542 OFFCURVE",
"464 590 OFFCURVE",
"631 711 CURVE SMOOTH",
"844 871 OFFCURVE",
"922 997 OFFCURVE",
"922 1161 CURVE SMOOTH",
"922 1366 OFFCURVE",
"794 1483 OFFCURVE",
"571 1483 CURVE SMOOTH",
"462 1483 OFFCURVE",
"320 1450 OFFCURVE",
"197 1382 CURVE",
"258 1253 LINE",
"346 1294 OFFCURVE",
"445 1335 OFFCURVE",
"553 1335 CURVE SMOOTH",
"681 1335 OFFCURVE",
"752 1265 OFFCURVE",
"752 1141 CURVE SMOOTH",
"752 1058 OFFCURVE",
"719 994 OFFCURVE",
"666 935 CURVE SMOOTH",
"639 906 OFFCURVE",
"583 858 OFFCURVE",
"498 791 CURVE SMOOTH",
"345 670 OFFCURVE",
"289 576 OFFCURVE",
"260 403 CURVE",
"395 403 LINE"
);
},
{
closed = 1;
nodes = (
"158 6 OFFCURVE",
"197 -29 OFFCURVE",
"258 -29 CURVE SMOOTH",
"345 -29 OFFCURVE",
"406 40 OFFCURVE",
"406 137 CURVE SMOOTH",
"406 208 OFFCURVE",
"368 242 OFFCURVE",
"309 242 CURVE SMOOTH",
"214 242 OFFCURVE",
"158 177 OFFCURVE",
"158 74 CURVE SMOOTH"
);
}
);
width = 874;
}
);
note = question;
unicode = 003F;
},
{
glyphname = at;
lastChange = "2017-04-22 20:56:27 +0000";
layers = (
{
layerId = "6A44F957-816A-4D1D-8CAD-45EB0FE52ECF";
paths = (
{
closed = 1;
nodes = (
"1679 973 OFFCURVE",
"1655 1079 OFFCURVE",
"1607 1171 CURVE SMOOTH",
"1510 1355 OFFCURVE",
"1322 1460 OFFCURVE",
"1067 1460 CURVE SMOOTH",
"888 1460 OFFCURVE",
"726 1419 OFFCURVE",
"581 1337 CURVE SMOOTH",
"292 1173 OFFCURVE",
"111 852 OFFCURVE",
"111 504 CURVE SMOOTH",
"111 76 OFFCURVE",
"367 -186 OFFCURVE",
"786 -186 CURVE SMOOTH",
"935 -186 OFFCURVE",
"1083 -156 OFFCURVE",
"1229 -96 CURVE",
"1229 31 LINE",
"1080 -26 OFFCURVE",
"940 -55 OFFCURVE",
"809 -55 CURVE SMOOTH",
"454 -55 OFFCURVE",
"256 152 OFFCURVE",
"256 512 CURVE SMOOTH",
"256 664 OFFCURVE",
"289 803 OFFCURVE",
"355 929 CURVE SMOOTH",
"486 1180 OFFCURVE",
"734 1331 OFFCURVE",
"1038 1331 CURVE SMOOTH",
"1361 1331 OFFCURVE",
"1536 1155 OFFCURVE",
"1536 836 CURVE SMOOTH",
"1536 751 OFFCURVE",
"1524 670 OFFCURVE",
"1499 593 CURVE SMOOTH",
"1450 437 OFFCURVE",
"1361 342 OFFCURVE",
"1257 342 CURVE SMOOTH",
"1189 342 OFFCURVE",
"1155 381 OFFCURVE",
"1155 459 CURVE",
"1153 490 OFFCURVE",
"1163 547 OFFCURVE",
"1186 631 CURVE SMOOTH",
"1209 715 OFFCURVE",
"1241 838 OFFCURVE",
"1284 999 CURVE",
"1167 1047 OFFCURVE",
"1093 1059 OFFCURVE",
"1006 1059 CURVE SMOOTH",
"913 1059 OFFCURVE",
"826 1035 OFFCURVE",
"746 987 CURVE SMOOTH",
"585 891 OFFCURVE",
"489 713 OFFCURVE",
"489 504 CURVE SMOOTH",
"489 325 OFFCURVE",
"582 219 OFFCURVE",
"735 219 CURVE SMOOTH",
"855 219 OFFCURVE",
"952 280 OFFCURVE",
"1026 403 CURVE",
"1034 403 LINE",
"1045 280 OFFCURVE",
"1116 219 OFFCURVE",
"1247 219 CURVE SMOOTH",
"1328 219 OFFCURVE",
"1402 246 OFFCURVE",
"1469 301 CURVE SMOOTH",
"1602 410 OFFCURVE",
"1679 613 OFFCURVE",
"1679 852 CURVE SMOOTH"
);
},
{
closed = 1;
nodes = (
"1028 938 OFFCURVE",
"1070 930 OFFCURVE",
"1112 915 CURVE",
"1042 657 LINE SMOOTH",
"985 447 OFFCURVE",
"895 342 OFFCURVE",
"770 342 CURVE SMOOTH",
"683 342 OFFCURVE",
"639 394 OFFCURVE",
"639 518 CURVE SMOOTH",
"639 594 OFFCURVE",
"654 665 OFFCURVE",
"685 730 CURVE SMOOTH",
"746 861 OFFCURVE",
"860 938 OFFCURVE",
"985 938 CURVE SMOOTH"
);
}
);
width = 1735;
}
);
note = at;
unicode = 0040;
},
{
glyphname = A;
lastChange = "2017-05-14 16:29:54 +0000";
layers = (
{
anchors = (
{
name = bottom;
position = "{453, 0}";
},
{
name = ogonek;
position = "{907, 10}";
},
{
name = top;
position = "{763, 1462}";
}
);
layerId = "6A44F957-816A-4D1D-8CAD-45EB0FE52ECF";
paths = (
{
closed = 1;
nodes = (
"1040 0 LINE",
"856 1462 LINE",
"682 1462 LINE",
"-117 0 LINE",
"72 0 LINE",
"317 465 LINE",
"813 465 LINE",
"870 0 LINE"
);
},
{
closed = 1;
nodes = (
"538 879 OFFCURVE",
"622 1037 OFFCURVE",
"651 1095 CURVE SMOOTH",
"680 1153 OFFCURVE",
"706 1211 OFFCURVE",
"731 1270 CURVE",
"734 1156 OFFCURVE",
"744 1039 OFFCURVE",
"760 920 CURVE SMOOTH",
"795 621 LINE",
"401 621 LINE"
);
}
);
width = 1137;
}
);
note = A;
unicode = 0041;
},
{
glyphname = B;
lastChange = "2017-05-14 16:29:54 +0000";
layers = (
{
anchors = (
{
name = bottom;
position = "{497, 0}";
},
{
name = top;
position = "{807, 1462}";
}
);
layerId = "6A44F957-816A-4D1D-8CAD-45EB0FE52ECF";
paths = (
{
closed = 1;
nodes = (
"86 0 LINE",
"549 0 LINE SMOOTH",
"889 0 OFFCURVE",
"1108 170 OFFCURVE",
"1108 453 CURVE SMOOTH",
"1108 600 OFFCURVE",
"1023 709 OFFCURVE",
"870 752 CURVE",
"870 762 LINE",
"1081 801 OFFCURVE",
"1202 938 OFFCURVE",
"1202 1126 CURVE SMOOTH",
"1202 1350 OFFCURVE",
"1058 1462 OFFCURVE",
"770 1462 CURVE SMOOTH",
"395 1462 LINE"
);
},
{
closed = 1;
nodes = (
"748 1315 LINE SMOOTH",
"939 1315 OFFCURVE",
"1024 1247 OFFCURVE",
"1024 1108 CURVE SMOOTH",
"1024 940 OFFCURVE",
"890 836 OFFCURVE",
"682 836 CURVE SMOOTH",
"434 836 LINE",
"537 1315 LINE"
);
},
{
closed = 1;
nodes = (
"639 692 LINE SMOOTH",
"826 692 OFFCURVE",
"928 608 OFFCURVE",
"928 453 CURVE SMOOTH",
"928 257 OFFCURVE",
"794 145 OFFCURVE",
"553 145 CURVE SMOOTH",
"287 145 LINE",
"403 692 LINE"
);
}
);
width = 1225;
}
);
note = B;
unicode = 0042;
},
{
glyphname = C;
lastChange = "2017-05-14 16:29:54 +0000";
layers = (
{
anchors = (
{
name = bottom;
position = "{483, 0}";
},
{
name = top;
position = "{793, 1462}";
}
);
layerId = "6A44F957-816A-4D1D-8CAD-45EB0FE52ECF";
paths = (
{
closed = 1;
nodes = (
"1036 1331 OFFCURVE",
"1129 1308 OFFCURVE",
"1221 1262 CURVE",
"1290 1403 LINE",
"1189 1456 OFFCURVE",
"1073 1483 OFFCURVE",
"942 1483 CURVE SMOOTH",
"792 1483 OFFCURVE",
"658 1444 OFFCURVE",
"539 1365 CURVE SMOOTH",
"302 1208 OFFCURVE",
"150 885 OFFCURVE",
"150 537 CURVE SMOOTH",
"150 193 OFFCURVE",
"345 -20 OFFCURVE",
"668 -20 CURVE SMOOTH",
"815 -20 OFFCURVE",
"905 -2 OFFCURVE",
"1020 39 CURVE",
"1020 188 LINE",
"898 150 OFFCURVE",
"791 131 OFFCURVE",
"698 131 CURVE SMOOTH",
"470 131 OFFCURVE",
"332 292 OFFCURVE",
"332 541 CURVE SMOOTH",
"332 688 OFFCURVE",
"359 825 OFFCURVE",
"413 950 CURVE SMOOTH",
"520 1200 OFFCURVE",
"710 1331 OFFCURVE",
"942 1331 CURVE SMOOTH"
);
}
);
width = 1198;
}
);
note = C;
unicode = 0043;
},
{
glyphname = D;
lastChange = "2017-05-14 16:29:54 +0000";
layers = (
{
anchors = (
{
name = bottom;
position = "{566, 0}";
},
{
name = center;
position = "{721, 731}";
},
{
name = top;
position = "{876, 1462}";
}
);
layerId = "6A44F957-816A-4D1D-8CAD-45EB0FE52ECF";
paths = (
{
closed = 1;
nodes = (
"1300 1258 OFFCURVE",
"1105 1462 OFFCURVE",
"737 1462 CURVE SMOOTH",
"395 1462 LINE",
"86 0 LINE",
"438 0 LINE SMOOTH",
"613 0 OFFCURVE",
"765 36 OFFCURVE",
"895 108 CURVE SMOOTH",
"1155 252 OFFCURVE",
"1300 529 OFFCURVE",
"1300 877 CURVE SMOOTH"
);
},
{
closed = 1;
nodes = (
"537 1315 LINE",
"715 1315 LINE SMOOTH",
"980 1315 OFFCURVE",
"1120 1166 OFFCURVE",
"1120 879 CURVE SMOOTH",
"1120 736 OFFCURVE",
"1093 608 OFFCURVE",
"1039 497 CURVE SMOOTH",
"930 274 OFFCURVE",
"718 147 OFFCURVE",
"449 147 CURVE SMOOTH",
"287 147 LINE"
);
}
);
width = 1364;
}
);
note = D;
unicode = 0044;
},
{
glyphname = E;
lastChange = "2017-05-14 16:29:54 +0000";
layers = (
{
anchors = (
{
name = bottom;
position = "{408, 0}";
},
{
name = ogonek;
position = "{826, 10}";
},
{
name = top;
position = "{718, 1462}";
},
{
name = topleft;
position = "{214, 1462}";
}
);
layerId = "6A44F957-816A-4D1D-8CAD-45EB0FE52ECF";
paths = (
{
closed = 1;
nodes = (
"289 152 LINE",
"403 688 LINE",
"932 688 LINE",
"961 840 LINE",
"434 840 LINE",
"532 1309 LINE",
"1098 1309 LINE",
"1130 1462 LINE",
"395 1462 LINE",
"86 0 LINE",
"821 0 LINE",
"854 152 LINE"
);
}
);
width = 1047;
}
);
note = E;
unicode = 0045;
},
{
glyphname = F;
lastChange = "2017-05-14 16:29:54 +0000";
layers = (
{
anchors = (
{
name = bottom;
position = "{368, 0}";
},
{
name = top;
position = "{678, 1462}";
}
);
layerId = "6A44F957-816A-4D1D-8CAD-45EB0FE52ECF";
paths = (
{
closed = 1;
nodes = (
"918 623 LINE",
"950 776 LINE",
"422 776 LINE",
"532 1309 LINE",
"1100 1309 LINE",
"1130 1462 LINE",
"395 1462 LINE",
"86 0 LINE",
"258 0 LINE",
"389 623 LINE"
);
}
);
width = 967;
}
);
note = F;
unicode = 0046;
},
{
glyphname = G;
lastChange = "2017-05-14 16:29:54 +0000";
layers = (
{
anchors = (
{
name = bottom;
position = "{577, 0}";
},
{
name = top;
position = "{887, 1462}";
}
);
layerId = "6A44F957-816A-4D1D-8CAD-45EB0FE52ECF";
paths = (
{
closed = 1;
nodes = (
"1077 614 LINE",
"981 170 LINE",
"910 144 OFFCURVE",
"824 131 OFFCURVE",
"721 131 CURVE SMOOTH",
"476 131 OFFCURVE",
"332 286 OFFCURVE",
"332 539 CURVE SMOOTH",
"332 689 OFFCURVE",
"358 825 OFFCURVE",
"409 946 CURVE SMOOTH",
"512 1189 OFFCURVE",
"707 1331 OFFCURVE",
"932 1331 CURVE SMOOTH",
"1073 1331 OFFCURVE",
"1189 1292 OFFCURVE",
"1292 1247 CURVE",
"1358 1399 LINE",
"1219 1458 OFFCURVE",
"1088 1483 OFFCURVE",
"932 1483 CURVE SMOOTH",
"786 1483 OFFCURVE",
"653 1442 OFFCURVE",
"533 1361 CURVE SMOOTH",
"293 1197 OFFCURVE",
"150 887 OFFCURVE",
"150 528 CURVE SMOOTH",
"150 183 OFFCURVE",
"355 -20 OFFCURVE",
"707 -20 CURVE SMOOTH",
"842 -20 OFFCURVE",
"982 5 OFFCURVE",
"1126 55 CURVE",
"1280 766 LINE",
"821 766 LINE",
"788 614 LINE"
);
}
);
width = 1386;
}
);
note = G;
unicode = 0047;
},
{
glyphname = H;
lastChange = "2017-05-14 16:29:54 +0000";
layers = (
{
anchors = (
{
name = bottom;
position = "{579, 0}";
},
{
name = center;
position = "{734, 731}";
},
{
name = top;
position = "{889, 1462}";
},
{
name = topleft;
position = "{214, 1462}";
}
);
layerId = "6A44F957-816A-4D1D-8CAD-45EB0FE52ECF";
paths = (
{
closed = 1;
nodes = (
"1227 1462 LINE",
"1094 840 LINE",
"434 840 LINE",
"565 1462 LINE",
"395 1462 LINE",
"86 0 LINE",
"256 0 LINE",
"401 688 LINE",
"1061 688 LINE",
"918 0 LINE",
"1085 0 LINE",
"1395 1462 LINE"
);
}
);
width = 1389;
}
);
note = H;
unicode = 0048;
},
{
glyphname = I.alt;
lastChange = "2017-05-14 16:29:54 +0000";
layers = (
{
anchors = (
{
name = bottom;
position = "{210, 0}";
},
{
name = ogonek;
position = "{470, 10}";
},
{
name = top;
position = "{520, 1462}";
},
{
name = topleft;
position = "{214, 1462}";
}
);
layerId = "6A44F957-816A-4D1D-8CAD-45EB0FE52ECF";
paths = (
{
closed = 1;
nodes = (
"319 129 LINE",
"575 1333 LINE",
"750 1368 LINE",
"768 1462 LINE",
"270 1462 LINE",
"252 1368 LINE",
"408 1333 LINE",
"152 129 LINE",
"-20 92 LINE",
"-39 0 LINE",
"459 0 LINE",
"477 92 LINE"
);
}
);
width = 651;
}
);
note = I.alt;
},
{
glyphname = J;
lastChange = "2017-05-14 16:29:54 +0000";
layers = (
{
anchors = (
{
name = bottom;
position = "{158, 0}";
},
{
name = top;
position = "{468, 1462}";
}
);
layerId = "6A44F957-816A-4D1D-8CAD-45EB0FE52ECF";
paths = (
{
closed = 1;
nodes = (
"63 -385 OFFCURVE",
"203 -259 OFFCURVE",
"256 -6 CURVE SMOOTH",
"565 1462 LINE",
"395 1462 LINE",
"88 12 LINE SMOOTH",
"55 -148 OFFCURVE",
"-35 -233 OFFCURVE",
"-168 -233 CURVE SMOOTH",
"-219 -233 OFFCURVE",
"-267 -226 OFFCURVE",
"-313 -213 CURVE",
"-319 -360 LINE",
"-287 -377 OFFCURVE",
"-236 -385 OFFCURVE",
"-166 -385 CURVE SMOOTH"
);
}
);
width = 547;
}
);
note = J;
unicode = 004A;
},
{
glyphname = K;
lastChange = "2017-05-14 16:29:54 +0000";
layers = (
{
anchors = (
{
name = bottom;
position = "{455, 0}";
},
{
name = top;
position = "{765, 1462}";
}
);
layerId = "6A44F957-816A-4D1D-8CAD-45EB0FE52ECF";
paths = (
{
closed = 1;
nodes = (
"1323 1462 LINE",
"1114 1462 LINE",
"414 752 LINE",
"565 1462 LINE",
"395 1462 LINE",
"86 0 LINE",
"256 0 LINE",
"381 590 LINE",
"555 721 LINE",
"603 599 OFFCURVE",
"652 479 OFFCURVE",
"702 360 CURVE SMOOTH",
"751 241 OFFCURVE",
"800 121 OFFCURVE",
"848 0 CURVE",
"1034 0 LINE",
"684 825 LINE"
);
}
);
width = 1141;
}
);
note = K;
unicode = 004B;
},
{
glyphname = L;
lastChange = "2017-05-14 16:29:54 +0000";
layers = (
{
anchors = (
{
name = bottom;
position = "{370, 0}";
},
{
name = center;
position = "{525, 731}";
},
{
name = top;
position = "{680, 1462}";
},
{
name = topright;
position = "{1145, 1462}";
}
);
layerId = "6A44F957-816A-4D1D-8CAD-45EB0FE52ECF";
paths = (
{
closed = 1;
nodes = (
"854 154 LINE",
"289 154 LINE",
"565 1462 LINE",
"395 1462 LINE",
"86 0 LINE",
"821 0 LINE"
);
}
);
width = 971;
}
);
note = L;
unicode = 004C;
},
{
glyphname = M;
lastChange = "2017-05-14 16:29:54 +0000";
layers = (
{
anchors = (
{
name = bottom;
position = "{741, 0}";
},
{
name = top;
position = "{1051, 1462}";
}
);
layerId = "6A44F957-816A-4D1D-8CAD-45EB0FE52ECF";
paths = (
{
closed = 1;
nodes = (
"1524 1298 LINE",
"1530 1298 LINE",
"1512 1247 OFFCURVE",
"1481 1116 OFFCURVE",
"1436 906 CURVE SMOOTH",
"1391 695 OFFCURVE",
"1327 393 OFFCURVE",
"1243 0 CURVE",
"1417 0 LINE",
"1720 1462 LINE",
"1454 1462 LINE",
"795 258 LINE",
"786 258 LINE",
"637 1462 LINE",
"393 1462 LINE",
"84 0 LINE",
"246 0 LINE",
"436 899 LINE SMOOTH",
"457 998 OFFCURVE",
"493 1200 OFFCURVE",
"502 1296 CURVE",
"510 1296 LINE",
"676 0 LINE",
"807 0 LINE"
);
}
);
width = 1714;
}
);
note = M;
unicode = 004D;
},
{
glyphname = N;
lastChange = "2017-05-14 16:29:54 +0000";
layers = (
{
anchors = (
{
name = bottom;
position = "{603, 0}";
},
{
name = top;
position = "{913, 1462}";
}
);
layerId = "6A44F957-816A-4D1D-8CAD-45EB0FE52ECF";
paths = (
{
closed = 1;
nodes = (
"1284 1462 LINE",
"1110 647 LINE SMOOTH",
"1082 526 OFFCURVE",
"1058 391 OFFCURVE",
"1038 242 CURVE",
"1032 242 LINE",
"573 1462 LINE",
"393 1462 LINE",
"84 0 LINE",
"246 0 LINE",
"418 805 LINE SMOOTH",
"446 936 OFFCURVE",
"471 1076 OFFCURVE",
"492 1223 CURVE",
"498 1223 LINE",
"958 0 LINE",
"1139 0 LINE",
"1448 1462 LINE"
);
}
);
width = 1438;
}
);
note = N;
unicode = 004E;
},
{
glyphname = O;
lastChange = "2017-05-14 16:29:54 +0000";
layers = (
{
anchors = (
{
name = bottom;
position = "{622, 0}";
},
{
name = center;
position = "{777, 731}";
},
{
name = ogonek;
position = "{1211, 10}";
},
{
name = top;
position = "{932, 1462}";
},
{
name = topleft;
position = "{214, 1462}";
},
{
name = topright;
position = "{1649, 1462}";
}
);
layerId = "6A44F957-816A-4D1D-8CAD-45EB0FE52ECF";
paths = (
{
closed = 1;
nodes = (
"1411 1267 OFFCURVE",
"1212 1485 OFFCURVE",
"887 1485 CURVE SMOOTH",
"747 1485 OFFCURVE",
"621 1446 OFFCURVE",
"510 1367 CURVE SMOOTH",
"286 1210 OFFCURVE",
"150 901 OFFCURVE",
"150 549 CURVE SMOOTH",
"150 189 OFFCURVE",
"351 -20 OFFCURVE",
"692 -20 CURVE SMOOTH",
"835 -20 OFFCURVE",
"962 19 OFFCURVE",
"1071 97 CURVE SMOOTH",
"1290 252 OFFCURVE",
"1411 548 OFFCURVE",
"1411 907 CURVE SMOOTH"
);
},
{
closed = 1;
nodes = (
"1097 1333 OFFCURVE",
"1229 1176 OFFCURVE",
"1229 911 CURVE SMOOTH",
"1229 764 OFFCURVE",
"1206 629 OFFCURVE",
"1159 508 CURVE SMOOTH",
"1066 265 OFFCURVE",
"899 131 OFFCURVE",
"696 131 CURVE SMOOTH",
"472 131 OFFCURVE",
"332 288 OFFCURVE",
"332 553 CURVE SMOOTH",
"332 698 OFFCURVE",
"355 831 OFFCURVE",
"401 951 CURVE SMOOTH",
"492 1191 OFFCURVE",
"665 1333 OFFCURVE",
"874 1333 CURVE SMOOTH"
);
}
);
width = 1475;
}
);
note = O;
unicode = 004F;
},
{
glyphname = P;
lastChange = "2017-05-14 16:29:54 +0000";
layers = (
{
anchors = (
{
name = bottom;
position = "{464, 0}";
},
{
name = top;
position = "{774, 1462}";
}
);
layerId = "6A44F957-816A-4D1D-8CAD-45EB0FE52ECF";
paths = (
{
closed = 1;
nodes = (
"1159 1336 OFFCURVE",
"1010 1462 OFFCURVE",
"725 1462 CURVE SMOOTH",
"395 1462 LINE",
"86 0 LINE",
"256 0 LINE",
"379 575 LINE",
"514 575 LINE SMOOTH",
"937 575 OFFCURVE",
"1159 754 OFFCURVE",
"1159 1085 CURVE SMOOTH"
);
},
{
closed = 1;
nodes = (
"700 1315 LINE SMOOTH",
"892 1315 OFFCURVE",
"983 1246 OFFCURVE",
"983 1079 CURVE SMOOTH",
"983 844 OFFCURVE",
"831 721 OFFCURVE",
"543 721 CURVE SMOOTH",
"410 721 LINE",
"537 1315 LINE"
);
}
);
width = 1159;
}
);
note = P;
unicode = 0050;
},
{
glyphname = Q;
lastChange = "2017-05-14 16:29:54 +0000";
layers = (
{
anchors = (
{
name = bottom;
position = "{622, 0}";
},
{
name = top;
position = "{932, 1462}";
}
);
layerId = "6A44F957-816A-4D1D-8CAD-45EB0FE52ECF";
paths = (
{
closed = 1;
nodes = (
"1097 1333 OFFCURVE",
"1229 1176 OFFCURVE",
"1229 911 CURVE SMOOTH",
"1229 765 OFFCURVE",
"1207 632 OFFCURVE",
"1163 512 CURVE SMOOTH",
"1074 271 OFFCURVE",
"907 131 OFFCURVE",
"696 131 CURVE SMOOTH",
"472 131 OFFCURVE",
"332 288 OFFCURVE",
"332 553 CURVE SMOOTH",
"332 698 OFFCURVE",
"355 831 OFFCURVE",
"401 951 CURVE SMOOTH",
"492 1191 OFFCURVE",
"665 1333 OFFCURVE",
"874 1333 CURVE SMOOTH"
);
},
{
closed = 1;
nodes = (
"1171 -348 LINE",
"897 10 LINE",
"1212 114 OFFCURVE",
"1411 463 OFFCURVE",
"1411 907 CURVE SMOOTH",
"1411 1267 OFFCURVE",
"1212 1485 OFFCURVE",
"887 1485 CURVE SMOOTH",
"747 1485 OFFCURVE",
"621 1446 OFFCURVE",
"510 1367 CURVE SMOOTH",
"286 1210 OFFCURVE",
"150 901 OFFCURVE",
"150 549 CURVE SMOOTH",
"150 189 OFFCURVE",
"351 -20 OFFCURVE",
"692 -20 CURVE SMOOTH",
"708 -20 LINE",
"725 -18 LINE",
"952 -348 LINE"
);
}
);
width = 1475;
}
);
note = Q;
unicode = 0051;
},
{
glyphname = R;
lastChange = "2017-05-14 16:29:54 +0000";
layers = (
{
anchors = (
{
name = bottom;
position = "{467, 0}";
},
{
name = top;
position = "{777, 1462}";
}
);
layerId = "6A44F957-816A-4D1D-8CAD-45EB0FE52ECF";
paths = (
{
closed = 1;
nodes = (
"846 0 LINE",
"1032 0 LINE",
"793 647 LINE",
"1038 714 OFFCURVE",
"1161 864 OFFCURVE",
"1161 1096 CURVE SMOOTH",
"1161 1340 OFFCURVE",
"1012 1462 OFFCURVE",
"715 1462 CURVE SMOOTH",
"395 1462 LINE",
"86 0 LINE",
"256 0 LINE",
"385 608 LINE",
"637 608 LINE"
);
},
{
closed = 1;
nodes = (
"901 1313 OFFCURVE",
"985 1244 OFFCURVE",
"985 1083 CURVE SMOOTH",
"985 871 OFFCURVE",
"841 754 OFFCURVE",
"584 754 CURVE SMOOTH",
"416 754 LINE",
"425 797 OFFCURVE",
"464 984 OFFCURVE",
"532 1313 CURVE",
"698 1313 LINE SMOOTH"
);
}
);
width = 1165;
}
);
note = R;
unicode = 0052;
},
{
glyphname = S;
lastChange = "2017-05-14 16:29:54 +0000";
layers = (
{
anchors = (
{
name = bottom;
position = "{398, 0}";
},
{
name = top;
position = "{708, 1462}";
}
);
layerId = "6A44F957-816A-4D1D-8CAD-45EB0FE52ECF";
paths = (
{
closed = 1;
nodes = (
"913 531 OFFCURVE",
"877 608 OFFCURVE",
"809 675 CURVE SMOOTH",
"774 708 OFFCURVE",
"708 754 OFFCURVE",
"610 813 CURVE SMOOTH",
"540 854 OFFCURVE",
"493 885 OFFCURVE",
"468 908 CURVE SMOOTH",
"419 953 OFFCURVE",
"397 1001 OFFCURVE",
"397 1073 CURVE SMOOTH",
"397 1232 OFFCURVE",
"515 1331 OFFCURVE",
"694 1331 CURVE SMOOTH",
"786 1331 OFFCURVE",
"905 1300 OFFCURVE",
"993 1249 CURVE",
"1059 1399 LINE",
"932 1460 OFFCURVE",
"826 1483 OFFCURVE",
"694 1483 CURVE SMOOTH",
"407 1483 OFFCURVE",
"215 1310 OFFCURVE",
"215 1061 CURVE SMOOTH",
"215 906 OFFCURVE",
"282 803 OFFCURVE",
"483 690 CURVE SMOOTH",
"674 582 OFFCURVE",
"731 516 OFFCURVE",
"731 412 CURVE SMOOTH",
"731 236 OFFCURVE",
"595 129 OFFCURVE",
"379 129 CURVE SMOOTH",
"260 129 OFFCURVE",
"147 157 OFFCURVE",
"39 213 CURVE",
"39 43 LINE",
"134 -2 OFFCURVE",
"236 -20 OFFCURVE",
"377 -20 CURVE SMOOTH",
"717 -20 OFFCURVE",
"913 143 OFFCURVE",
"913 424 CURVE SMOOTH"
);
}
);
width = 1028;
}
);
note = S;
unicode = 0053;
},
{
glyphname = T;
lastChange = "2017-05-14 16:29:54 +0000";
layers = (
{
anchors = (
{
name = bottom;
position = "{394, 0}";
},
{
name = center;
position = "{549, 731}";
},
{
name = top;
position = "{704, 1462}";
}
);
layerId = "6A44F957-816A-4D1D-8CAD-45EB0FE52ECF";
paths = (
{
closed = 1;
nodes = (
"1174 1311 LINE",
"1204 1462 LINE",
"219 1462 LINE",
"186 1311 LINE",
"592 1311 LINE",
"315 0 LINE",
"487 0 LINE",
"766 1311 LINE"
);
}
);
width = 1020;
}
);
note = T;
unicode = 0054;
},
{
glyphname = U;
lastChange = "2017-05-14 16:29:54 +0000";
layers = (
{
anchors = (
{
name = bottom;
position = "{576, 0}";
},
{
name = ogonek;
position = "{1130, 10}";
},
{
name = top;
position = "{886, 1462}";
},
{
name = topright;
position = "{1558, 1462}";
}
);
layerId = "6A44F957-816A-4D1D-8CAD-45EB0FE52ECF";
paths = (
{
closed = 1;
nodes = (
"1032 508 LINE SMOOTH",
"973 239 OFFCURVE",
"854 131 OFFCURVE",
"625 131 CURVE SMOOTH",
"432 131 OFFCURVE",
"334 227 OFFCURVE",
"334 383 CURVE SMOOTH",
"334 438 OFFCURVE",
"341 500 OFFCURVE",
"356 571 CURVE SMOOTH",
"547 1462 LINE",
"377 1462 LINE",
"188 584 LINE SMOOTH",
"172 504 OFFCURVE",
"164 437 OFFCURVE",
"164 383 CURVE SMOOTH",
"164 123 OFFCURVE",
"309 -20 OFFCURVE",
"616 -20 CURVE SMOOTH",
"944 -20 OFFCURVE",
"1129 145 OFFCURVE",
"1202 496 CURVE SMOOTH",
"1407 1462 LINE",
"1237 1462 LINE"
);
}
);
width = 1384;
}
);
note = U;
unicode = 0055;
},
{
glyphname = V;
lastChange = "2017-05-14 16:29:54 +0000";
layers = (
{
anchors = (
{
name = bottom;
position = "{445, 0}";
},
{
name = top;
position = "{755, 1462}";
}
);
layerId = "6A44F957-816A-4D1D-8CAD-45EB0FE52ECF";
paths = (
{
closed = 1;
nodes = (
"475 290 OFFCURVE",
"468 401 OFFCURVE",
"455 532 CURVE SMOOTH",
"358 1462 LINE",
"188 1462 LINE",
"350 0 LINE",
"530 0 LINE",
"1311 1462 LINE",
"1120 1462 LINE",
"641 535 LINE SMOOTH",
"574 406 OFFCURVE",
"520 293 OFFCURVE",
"479 197 CURVE",
"475 197 LINE"
);
}
);
width = 1122;
}
);
note = V;
unicode = 0056;
},
{
glyphname = W;
lastChange = "2017-05-14 16:29:54 +0000";
layers = (
{
anchors = (
{
name = bottom;
position = "{757, 0}";
},
{
name = top;
position = "{1067, 1462}";
}
);
layerId = "6A44F957-816A-4D1D-8CAD-45EB0FE52ECF";
paths = (
{
closed = 1;
nodes = (
"1739 1462 LINE",
"1352 569 LINE SMOOTH",
"1315 482 OFFCURVE",
"1271 364 OFFCURVE",
"1221 215 CURVE",
"1212 215 LINE",
"1213 298 LINE SMOOTH",
"1213 399 OFFCURVE",
"1210 500 OFFCURVE",
"1204 602 CURVE SMOOTH",
"1161 1462 LINE",
"983 1462 LINE",
"578 598 LINE SMOOTH",
"533 505 OFFCURVE",
"481 377 OFFCURVE",
"422 215 CURVE",
"416 215 LINE",
"423 322 OFFCURVE",
"426 408 OFFCURVE",
"426 473 CURVE",
"424 561 LINE",
"393 1462 LINE",
"223 1462 LINE",
"285 0 LINE",
"459 0 LINE",
"771 673 OFFCURVE",
"939 1038 OFFCURVE",
"963 1093 CURVE SMOOTH",
"987 1148 OFFCURVE",
"1007 1199 OFFCURVE",
"1024 1247 CURVE",
"1030 1247 LINE",
"1030 1150 OFFCURVE",
"1033 1056 OFFCURVE",
"1038 965 CURVE SMOOTH",
"1087 0 LINE",
"1257 0 LINE",
"1921 1462 LINE"
);
}
);
width = 1745;
}
);
note = W;
unicode = 0057;
},
{
glyphname = X;
lastChange = "2017-05-14 16:29:54 +0000";
layers = (
{
anchors = (
{
name = bottom;
position = "{416, 0}";
},
{
name = top;
position = "{726, 1462}";
}
);
layerId = "6A44F957-816A-4D1D-8CAD-45EB0FE52ECF";
paths = (
{
closed = 1;
nodes = (
"1233 1462 LINE",
"1047 1462 LINE",
"604 899 LINE",
"401 1462 LINE",
"229 1462 LINE",
"492 776 LINE",
"-104 0 LINE",
"82 0 LINE",
"563 641 LINE",
"776 0 LINE",
"956 0 LINE",
"678 768 LINE"
);
}
);
width = 1063;
}
);
note = X;
unicode = 0058;
},
{
glyphname = Y;
lastChange = "2017-05-14 16:29:54 +0000";
layers = (
{
anchors = (
{
name = bottom;
position = "{399, 0}";
},
{
name = top;
position = "{709, 1462}";
},
{
name = topleft;
position = "{214, 1462}";
}
);
layerId = "6A44F957-816A-4D1D-8CAD-45EB0FE52ECF";
paths = (
{
closed = 1;
nodes = (
"188 1462 LINE",
"426 549 LINE",
"307 0 LINE",
"479 0 LINE",
"592 541 LINE",
"1219 1462 LINE",
"1026 1462 LINE",
"537 715 LINE",
"358 1462 LINE"
);
}
);
width = 1030;
}
);
note = Y;
unicode = 0059;
},
{
glyphname = Z;
lastChange = "2017-05-14 16:29:54 +0000";
layers = (
{
anchors = (
{
name = bottom;
position = "{428, 0}";
},
{
name = top;
position = "{738, 1462}";
}
);
layerId = "6A44F957-816A-4D1D-8CAD-45EB0FE52ECF";
paths = (
{
closed = 1;
nodes = (
"221 154 LINE",
"1145 1323 LINE",
"1171 1462 LINE",
"313 1462 LINE",
"281 1307 LINE",
"936 1307 LINE",
"12 137 LINE",
"-16 0 LINE",
"885 0 LINE",
"918 154 LINE"
);
}
);
width = 1087;
}
);
note = Z;
unicode = 005A;
},
{
glyphname = bracketleft;
lastChange = "2017-04-22 20:56:27 +0000";
layers = (
{
layerId = "6A44F957-816A-4D1D-8CAD-45EB0FE52ECF";
paths = (
{
closed = 1;
nodes = (
"176 -182 LINE",
"494 1321 LINE",
"721 1321 LINE",
"752 1462 LINE",
"365 1462 LINE",
"-16 -324 LINE",
"371 -324 LINE",
"403 -182 LINE"
);
}
);
width = 586;
}
);
note = bracketleft;
unicode = 005B;
},
{
glyphname = backslash;
lastChange = "2017-04-22 20:56:27 +0000";
layers = (
{
layerId = "6A44F957-816A-4D1D-8CAD-45EB0FE52ECF";
paths = (
{
closed = 1;
nodes = (
"438 0 LINE",
"592 0 LINE",
"375 1462 LINE",
"221 1462 LINE"
);
}
);
width = 717;
}
);
note = backslash;
unicode = 005C;
},
{
glyphname = bracketright;
lastChange = "2017-04-22 20:56:27 +0000";
layers = (
{
layerId = "6A44F957-816A-4D1D-8CAD-45EB0FE52ECF";
paths = (
{
closed = 1;
nodes = (
"238 -324 LINE",
"618 1462 LINE",
"229 1462 LINE",
"199 1321 LINE",
"426 1321 LINE",
"106 -182 LINE",
"-119 -182 LINE",
"-150 -324 LINE"
);
}
);
width = 586;
}
);
note = bracketright;
unicode = 005D;
},
{
glyphname = asciicircum;
lastChange = "2017-04-22 20:56:27 +0000";
layers = (
{
layerId = "6A44F957-816A-4D1D-8CAD-45EB0FE52ECF";
paths = (
{
closed = 1;
nodes = (
"680 1300 LINE",
"881 553 LINE",
"1026 553 LINE",
"760 1473 LINE",
"651 1473 LINE",
"53 553 LINE",
"213 553 LINE"
);
}
);
width = 1059;
}
);
note = asciicircum;
unicode = 005E;
},
{
glyphname = underscore;
lastChange = "2017-04-22 20:56:27 +0000";
layers = (
{
layerId = "6A44F957-816A-4D1D-8CAD-45EB0FE52ECF";
paths = (
{
closed = 1;
nodes = (
"-158 -184 LINE",
"-188 -324 LINE",
"623 -324 LINE",
"653 -184 LINE"
);
}
);
width = 807;
}
);
note = underscore;
unicode = 005F;
},
{
glyphname = grave;
lastChange = "2017-04-22 20:56:27 +0000";
layers = (
{
layerId = "6A44F957-816A-4D1D-8CAD-45EB0FE52ECF";
paths = (
{
closed = 1;
nodes = (
"834 1377 OFFCURVE",
"785 1478 OFFCURVE",
"756 1569 CURVE",
"575 1569 LINE",
"575 1548 LINE",
"612 1468 OFFCURVE",
"718 1322 OFFCURVE",
"799 1241 CURVE",
"903 1241 LINE",
"903 1266 LINE"
);
}
);
width = 1135;
}
);
note = grave;
unicode = 0060;
},
{
glyphname = a;
lastChange = "2017-05-14 16:29:54 +0000";
layers = (
{
anchors = (
{
name = bottom;
position = "{463, 0}";
},
{
name = ogonek;
position = "{925, 10}";
},
{
name = top;
position = "{695, 1096}";
}
);
layerId = "6A44F957-816A-4D1D-8CAD-45EB0FE52ECF";
paths = (
{
closed = 1;
nodes = (
"540 1116 OFFCURVE",
"448 1082 OFFCURVE",
"365 1015 CURVE SMOOTH",
"198 880 OFFCURVE",
"98 627 OFFCURVE",
"98 350 CURVE SMOOTH",
"98 121 OFFCURVE",
"210 -20 OFFCURVE",
"395 -20 CURVE SMOOTH",
"527 -20 OFFCURVE",
"653 56 OFFCURVE",
"772 209 CURVE",
"780 209 LINE",
"754 0 LINE",
"887 0 LINE",
"1120 1096 LINE",
"993 1096 LINE",
"926 924 LINE",
"915 924 LINE",
"862 1048 OFFCURVE",
"762 1116 OFFCURVE",
"639 1116 CURVE SMOOTH"
);
},
{
closed = 1;
nodes = (
"336 119 OFFCURVE",
"270 194 OFFCURVE",
"270 346 CURVE SMOOTH",
"270 455 OFFCURVE",
"287 558 OFFCURVE",
"321 656 CURVE SMOOTH",
"389 852 OFFCURVE",
"516 975 OFFCURVE",
"655 975 CURVE SMOOTH",
"776 975 OFFCURVE",
"858 887 OFFCURVE",
"858 750 CURVE SMOOTH",
"858 651 OFFCURVE",
"838 552 OFFCURVE",
"798 453 CURVE SMOOTH",
"718 255 OFFCURVE",
"578 119 OFFCURVE",
"449 119 CURVE SMOOTH"
);
}
);
width = 1157;
}
);
note = a;
unicode = 0061;
},
{
glyphname = b;
lastChange = "2017-05-14 16:29:54 +0000";
layers = (
{
anchors = (
{
name = bottom;
position = "{475, 0}";
},
{
name = top;
position = "{707, 1096}";
}
);
guideLines = (
{
angle = 78.026;
position = "{710, 778}";
}
);
layerId = "6A44F957-816A-4D1D-8CAD-45EB0FE52ECF";
paths = (
{
closed = 1;
nodes = (
"648 -20 OFFCURVE",
"740 13 OFFCURVE",
"822 80 CURVE SMOOTH",
"985 212 OFFCURVE",
"1081 464 OFFCURVE",
"1081 743 CURVE SMOOTH",
"1081 974 OFFCURVE",
"970 1114 OFFCURVE",
"782 1114 CURVE SMOOTH",
"654 1114 OFFCURVE",
"536 1042 OFFCURVE",
"412 885 CURVE",
"403 885 LINE",
"467 1114 OFFCURVE",
"489 1233 OFFCURVE",
"557 1556 CURVE",
"389 1556 LINE",
"59 0 LINE",
"184 0 LINE",
"254 170 LINE",
"264 170 LINE",
"313 53 OFFCURVE",
"416 -20 OFFCURVE",
"545 -20 CURVE SMOOTH"
);
},
{
closed = 1;
nodes = (
"850 975 OFFCURVE",
"909 899 OFFCURVE",
"909 748 CURVE SMOOTH",
"909 636 OFFCURVE",
"892 530 OFFCURVE",
"857 431 CURVE SMOOTH",
"788 231 OFFCURVE",
"667 119 OFFCURVE",
"535 119 CURVE SMOOTH",
"395 119 OFFCURVE",
"319 199 OFFCURVE",
"319 346 CURVE SMOOTH",
"319 447 OFFCURVE",
"339 545 OFFCURVE",
"378 641 CURVE SMOOTH",
"456 833 OFFCURVE",
"603 975 OFFCURVE",
"731 975 CURVE SMOOTH"
);
}
);
width = 1182;
}
);
note = b;
unicode = 0062;
},
{
glyphname = c;
lastChange = "2017-05-14 16:36:20 +0000";
layers = (
{
anchors = (
{
name = bottom;
position = "{393, 0}";
},
{
name = top;
position = "{626, 1096}";
}
);
guideLines = (
{
angle = 78;
position = "{591, 930}";
}
);
layerId = "6A44F957-816A-4D1D-8CAD-45EB0FE52ECF";
paths = (
{
closed = 1;
nodes = (
"607 -20 OFFCURVE",
"699 1 OFFCURVE",
"782 43 CURVE",
"782 186 LINE",
"699 150 OFFCURVE",
"616 119 OFFCURVE",
"520 119 CURVE SMOOTH",
"364 119 OFFCURVE",
"270 218 OFFCURVE",
"270 389 CURVE SMOOTH",
"270 496 OFFCURVE",
"288 595 OFFCURVE",
"323 686 CURVE SMOOTH",
"393 868 OFFCURVE",
"523 975 OFFCURVE",
"672 975 CURVE SMOOTH",
"738 975 OFFCURVE",
"811 958 OFFCURVE",
"891 924 CURVE",
"938 1065 LINE",
"851 1099 OFFCURVE",
"761 1116 OFFCURVE",
"670 1116 CURVE SMOOTH",
"561 1116 OFFCURVE",
"464 1085 OFFCURVE",
"377 1022 CURVE SMOOTH",
"203 896 OFFCURVE",
"98 656 OFFCURVE",
"98 389 CURVE SMOOTH",
"98 129 OFFCURVE",
"247 -20 OFFCURVE",
"506 -20 CURVE SMOOTH"
);
}
);
width = 922;
}
);
note = c;
unicode = 0063;
},
{
glyphname = d;
lastChange = "2017-05-14 16:29:54 +0000";
layers = (
{
anchors = (
{
name = bottom;
position = "{475, 0}";
},
{
name = center;
position = "{591, 548}";
},
{
name = top;
position = "{707, 1096}";
},
{
name = topright;
position = "{1278, 1096}";
}
);
guideLines = (
{
angle = 78.026;
position = "{568, 778}";
}
);
layerId = "6A44F957-816A-4D1D-8CAD-45EB0FE52ECF";
paths = (
{
closed = 1;
nodes = (
"538 1114 OFFCURVE",
"446 1082 OFFCURVE",
"365 1017 CURVE SMOOTH",
"201 888 OFFCURVE",
"98 635 OFFCURVE",
"98 350 CURVE SMOOTH",
"98 118 OFFCURVE",
"208 -20 OFFCURVE",
"393 -20 CURVE SMOOTH",
"518 -20 OFFCURVE",
"629 42 OFFCURVE",
"764 209 CURVE",
"772 209 LINE",
"750 0 LINE",
"889 0 LINE",
"1219 1556 LINE",
"1053 1556 LINE",
"975 1198 LINE SMOOTH",
"956 1119 OFFCURVE",
"941 1027 OFFCURVE",
"930 924 CURVE",
"920 924 LINE",
"862 1051 OFFCURVE",
"768 1114 OFFCURVE",
"639 1114 CURVE SMOOTH"
);
},
{
closed = 1;
nodes = (
"330 119 OFFCURVE",
"270 195 OFFCURVE",
"270 346 CURVE SMOOTH",
"270 456 OFFCURVE",
"288 561 OFFCURVE",
"323 661 CURVE SMOOTH",
"393 860 OFFCURVE",
"514 975 OFFCURVE",
"649 975 CURVE SMOOTH",
"786 975 OFFCURVE",
"860 896 OFFCURVE",
"860 748 CURVE SMOOTH",
"860 647 OFFCURVE",
"841 549 OFFCURVE",
"802 452 CURVE SMOOTH",
"724 258 OFFCURVE",
"574 119 OFFCURVE",
"449 119 CURVE SMOOTH"
);
}
);
width = 1182;
}
);
note = d;
unicode = 0064;
},
{
glyphname = e;
lastChange = "2017-06-05 00:18:06 +0000";
layers = (
{
anchors = (
{
name = bottom;
position = "{389, 0}";
},
{
name = ogonek;
position = "{793, 10}";
},
{
name = top;
position = "{621, 1096}";
}
);
guideLines = (
{
angle = 78.026;
position = "{554, 779}";
}
);
layerId = "6A44F957-816A-4D1D-8CAD-45EB0FE52ECF";
paths = (
{
closed = 1;
nodes = (
"608 -20 OFFCURVE",
"692 0 OFFCURVE",
"817 59 CURVE",
"817 205 LINE",
"685 141 OFFCURVE",
"606 121 OFFCURVE",
"522 121 CURVE SMOOTH",
"350 121 OFFCURVE",
"270 224 OFFCURVE",
"270 399 CURVE",
"274 479 LINE",
"307 479 LINE SMOOTH",
"719 479 OFFCURVE",
"948 624 OFFCURVE",
"948 864 CURVE SMOOTH",
"948 1023 OFFCURVE",
"845 1116 OFFCURVE",
"641 1116 CURVE SMOOTH",
"542 1116 OFFCURVE",
"452 1084 OFFCURVE",
"370 1020 CURVE SMOOTH",
"206 892 OFFCURVE",
"98 642 OFFCURVE",
"98 391 CURVE SMOOTH",
"98 134 OFFCURVE",
"247 -20 OFFCURVE",
"492 -20 CURVE SMOOTH"
);
},
{
closed = 1;
nodes = (
"735 973 OFFCURVE",
"782 921 OFFCURVE",
"782 850 CURVE SMOOTH",
"782 699 OFFCURVE",
"615 618 OFFCURVE",
"311 618 CURVE SMOOTH",
"299 618 LINE",
"363 841 OFFCURVE",
"494 973 OFFCURVE",
"631 973 CURVE SMOOTH"
);
}
);
width = 1010;
}
);
note = e;
unicode = 0065;
},
{
glyphname = f;
lastChange = "2017-05-14 16:29:54 +0000";
layers = (
{
anchors = (
{
name = bottom;
position = "{205, 0}";
},
{
name = top;
position = "{437, 1096}";
}
);
guideLines = (
{
angle = 78.0693;
position = "{345, 420}";
}
);
layerId = "6A44F957-816A-4D1D-8CAD-45EB0FE52ECF";
paths = (
{
closed = 1;
nodes = (
"72 -492 OFFCURVE",
"177 -381 OFFCURVE",
"229 -129 CURVE SMOOTH",
"461 969 LINE",
"698 969 LINE",
"723 1096 LINE",
"485 1096 LINE",
"510 1204 LINE SMOOTH",
"549 1376 OFFCURVE",
"603 1430 OFFCURVE",
"719 1430 CURVE SMOOTH",
"760 1430 OFFCURVE",
"805 1420 OFFCURVE",
"856 1401 CURVE",
"899 1530 LINE",
"856 1549 OFFCURVE",
"764 1567 OFFCURVE",
"711 1567 CURVE SMOOTH",
"498 1567 OFFCURVE",
"403 1469 OFFCURVE",
"342 1202 CURVE SMOOTH",
"319 1102 LINE",
"113 1036 LINE",
"100 969 LINE",
"293 969 LINE",
"66 -113 LINE SMOOTH",
"33 -266 OFFCURVE",
"-16 -352 OFFCURVE",
"-117 -352 CURVE SMOOTH",
"-149 -352 OFFCURVE",
"-186 -345 OFFCURVE",
"-229 -330 CURVE",
"-229 -471 LINE",
"-192 -485 OFFCURVE",
"-150 -492 OFFCURVE",
"-104 -492 CURVE SMOOTH"
);
}
);
width = 641;
}
);
note = f;
unicode = 0066;
},
{
glyphname = g;
lastChange = "2017-05-14 16:29:54 +0000";
layers = (
{
anchors = (
{
name = bottom;
position = "{397, 0}";
},
{
name = top;
position = "{629, 1096}";
}
);
guideLines = (
{
angle = 78.0693;
position = "{472, 354}";
}
);
layerId = "6A44F957-816A-4D1D-8CAD-45EB0FE52ECF";
paths = (
{
closed = 1;
nodes = (
"678 1109 OFFCURVE",
"627 1116 OFFCURVE",
"575 1116 CURVE SMOOTH",
"327 1116 OFFCURVE",
"150 933 OFFCURVE",
"150 674 CURVE SMOOTH",
"150 563 OFFCURVE",
"209 477 OFFCURVE",
"293 434 CURVE",
"172 377 OFFCURVE",
"100 315 OFFCURVE",
"100 223 CURVE SMOOTH",
"100 170 OFFCURVE",
"126 129 OFFCURVE",
"178 102 CURVE",
"-37 30 OFFCURVE",
"-127 -71 OFFCURVE",
"-127 -211 CURVE SMOOTH",
"-127 -390 OFFCURVE",
"28 -492 OFFCURVE",
"287 -492 CURVE SMOOTH",
"640 -492 OFFCURVE",
"844 -351 OFFCURVE",
"844 -106 CURVE SMOOTH",
"844 65 OFFCURVE",
"741 147 OFFCURVE",
"500 176 CURVE SMOOTH",
"383 190 LINE SMOOTH",
"299 201 OFFCURVE",
"254 211 OFFCURVE",
"254 266 CURVE SMOOTH",
"254 318 OFFCURVE",
"300 362 OFFCURVE",
"393 397 CURVE",
"412 392 OFFCURVE",
"440 389 OFFCURVE",
"477 389 CURVE SMOOTH",
"737 389 OFFCURVE",
"905 552 OFFCURVE",
"905 807 CURVE SMOOTH",
"905 871 OFFCURVE",
"891 924 OFFCURVE",
"864 965 CURVE",
"1075 989 LINE",
"1100 1096 LINE",
"729 1096 LINE"
);
},
{
closed = 1;
nodes = (
"35 -76 OFFCURVE",
"123 12 OFFCURVE",
"283 45 CURVE",
"442 29 LINE SMOOTH",
"615 10 OFFCURVE",
"680 -36 OFFCURVE",
"680 -119 CURVE SMOOTH",
"680 -274 OFFCURVE",
"536 -362 OFFCURVE",
"293 -362 CURVE SMOOTH",
"122 -362 OFFCURVE",
"35 -298 OFFCURVE",
"35 -195 CURVE SMOOTH"
);
},
{
closed = 1;
nodes = (
"313 737 OFFCURVE",
"324 789 OFFCURVE",
"346 838 CURVE SMOOTH",
"389 934 OFFCURVE",
"469 991 OFFCURVE",
"573 991 CURVE SMOOTH",
"682 991 OFFCURVE",
"743 932 OFFCURVE",
"743 823 CURVE SMOOTH",
"743 766 OFFCURVE",
"733 713 OFFCURVE",
"712 664 CURVE SMOOTH",
"670 566 OFFCURVE",
"588 506 OFFCURVE",
"483 506 CURVE SMOOTH",
"376 506 OFFCURVE",
"313 567 OFFCURVE",
"313 680 CURVE SMOOTH"
);
}
);
width = 1026;
}
);
note = g;
unicode = 0067;
},
{
glyphname = h;
lastChange = "2017-05-14 16:29:54 +0000";
layers = (
{
anchors = (
{
name = bottom;
position = "{475, 0}";
},
{
name = center;
position = "{591, 548}";
},
{
name = top;
position = "{707, 1096}";
}
);
guideLines = (
{
angle = 78.026;
position = "{720, 778}";
}
);
layerId = "6A44F957-816A-4D1D-8CAD-45EB0FE52ECF";
paths = (
{
closed = 1;
nodes = (
"968 319 OFFCURVE",
"1016 543 OFFCURVE",
"1042 672 CURVE SMOOTH",
"1057 741 OFFCURVE",
"1065 797 OFFCURVE",
"1065 838 CURVE SMOOTH",
"1065 1014 OFFCURVE",
"966 1114 OFFCURVE",
"791 1114 CURVE SMOOTH",
"658 1114 OFFCURVE",
"539 1049 OFFCURVE",
"414 885 CURVE",
"403 885 LINE",
"421 953 OFFCURVE",
"437 1016 OFFCURVE",
"451 1074 CURVE SMOOTH",
"478 1190 OFFCURVE",
"501 1294 OFFCURVE",
"523 1397 CURVE SMOOTH",
"534 1448 OFFCURVE",
"545 1501 OFFCURVE",
"557 1556 CURVE",
"389 1556 LINE",
"59 0 LINE",
"227 0 LINE",
"328 473 LINE SMOOTH",
"350 579 OFFCURVE",
"383 670 OFFCURVE",
"426 745 CURVE SMOOTH",
"512 895 OFFCURVE",
"629 975 OFFCURVE",
"748 975 CURVE SMOOTH",
"846 975 OFFCURVE",
"895 926 OFFCURVE",
"895 827 CURVE SMOOTH",
"895 800 OFFCURVE",
"889 755 OFFCURVE",
"877 692 CURVE SMOOTH",
"729 0 LINE",
"897 0 LINE"
);
}
);
width = 1182;
}
);
note = h;
unicode = 0068;
},
{
glyphname = i;
lastChange = "2017-05-14 16:29:54 +0000";
layers = (
{
anchors = (
{
name = bottom;
position = "{144, 0}";
}
);
guideLines = (
{
angle = 78.026;
position = "{357, 1039}";
}
);
layerId = "6A44F957-816A-4D1D-8CAD-45EB0FE52ECF";
paths = (
{
closed = 1;
nodes = (
"293 1096 LINE",
"59 0 LINE",
"227 0 LINE",
"461 1096 LINE"
);
},
{
closed = 1;
nodes = (
"340 1316 OFFCURVE",
"379 1282 OFFCURVE",
"432 1282 CURVE SMOOTH",
"491 1282 OFFCURVE",
"543 1340 OFFCURVE",
"543 1413 CURVE SMOOTH",
"543 1473 OFFCURVE",
"514 1503 OFFCURVE",
"455 1503 CURVE SMOOTH",
"387 1503 OFFCURVE",
"340 1451 OFFCURVE",
"340 1376 CURVE SMOOTH"
);
}
);
width = 520;
}
);
note = i;
unicode = 0069;
},
{
glyphname = j;
lastChange = "2017-05-14 16:29:54 +0000";
layers = (
{
guideLines = (
{
angle = 78.026;
position = "{448, 1039}";
}
);
layerId = "6A44F957-816A-4D1D-8CAD-45EB0FE52ECF";
paths = (
{
closed = 1;
nodes = (
"45 -492 OFFCURVE",
"145 -390 OFFCURVE",
"193 -162 CURVE SMOOTH",
"459 1096 LINE",
"293 1096 LINE",
"29 -147 LINE SMOOTH",
"0 -284 OFFCURVE",
"-56 -352 OFFCURVE",
"-139 -352 CURVE SMOOTH",
"-178 -352 OFFCURVE",
"-217 -345 OFFCURVE",
"-258 -330 CURVE",
"-258 -471 LINE",
"-222 -485 OFFCURVE",
"-181 -492 OFFCURVE",
"-135 -492 CURVE SMOOTH"
);
},
{
closed = 1;
nodes = (
"340 1316 OFFCURVE",
"379 1282 OFFCURVE",
"430 1282 CURVE SMOOTH",
"489 1282 OFFCURVE",
"541 1340 OFFCURVE",
"541 1413 CURVE SMOOTH",
"541 1473 OFFCURVE",
"512 1503 OFFCURVE",
"455 1503 CURVE SMOOTH",
"387 1503 OFFCURVE",
"340 1451 OFFCURVE",
"340 1376 CURVE SMOOTH"
);
}
);
width = 520;
}
);
note = j;
unicode = 006A;
},
{
glyphname = k;
lastChange = "2017-05-14 16:39:43 +0000";
layers = (
{
anchors = (
{
name = bottom;
position = "{396, 0}";
},
{
name = top;
position = "{726, 1096}";
}
);
guideLines = (
{
angle = 78;
position = "{701, 978}";
}
);
layerId = "6A44F957-816A-4D1D-8CAD-45EB0FE52ECF";
paths = (
{
closed = 1;
nodes = (
"386 731 OFFCURVE",
"461 1108 OFFCURVE",
"557 1556 CURVE",
"387 1556 LINE",
"57 0 LINE",
"227 0 LINE",
"309 401 LINE",
"461 524 LINE",
"696 0 LINE",
"883 0 LINE",
"588 629 LINE",
"1057 1096 LINE",
"856 1096 LINE",
"330 559 LINE",
"326 559 LINE"
);
}
);
width = 999;
}
);
note = k;
unicode = 006B;
},
{
glyphname = l;
lastChange = "2017-05-22 22:48:00 +0000";
layers = (
{
anchors = (
{
name = bottom;
position = "{144, 0}";
},
{
name = center;
position = "{260, 548}";
},
{
name = top;
position = "{768, 1096}";
},
{
name = topright;
position = "{616, 1096}";
}
);
guideLines = (
{
angle = 78.026;
position = "{383, 1132}";
}
);
layerId = "6A44F957-816A-4D1D-8CAD-45EB0FE52ECF";
paths = (
{
closed = 1;
nodes = (
"389 1556 LINE",
"57 0 LINE",
"225 0 LINE",
"557 1556 LINE"
);
}
);
width = 520;
}
);
note = l;
unicode = 006C;
},
{
glyphname = m;
lastChange = "2017-05-14 16:29:54 +0000";
layers = (
{
anchors = (
{
name = bottom;
position = "{777, 0}";
},
{
name = top;
position = "{1009, 1096}";
}
);
layerId = "6A44F957-816A-4D1D-8CAD-45EB0FE52ECF";
paths = (
{
closed = 1;
nodes = (
"971 500 LINE SMOOTH",
"992 597 OFFCURVE",
"1022 682 OFFCURVE",
"1062 753 CURVE SMOOTH",
"1141 895 OFFCURVE",
"1252 975 OFFCURVE",
"1360 975 CURVE SMOOTH",
"1459 975 OFFCURVE",
"1503 921 OFFCURVE",
"1503 838 CURVE SMOOTH",
"1503 810 OFFCURVE",
"1496 761 OFFCURVE",
"1483 692 CURVE SMOOTH",
"1335 0 LINE",
"1505 0 LINE",
"1649 672 LINE SMOOTH",
"1664 745 OFFCURVE",
"1671 805 OFFCURVE",
"1671 850 CURVE SMOOTH",
"1671 1023 OFFCURVE",
"1574 1116 OFFCURVE",
"1405 1116 CURVE SMOOTH",
"1273 1116 OFFCURVE",
"1141 1037 OFFCURVE",
"1026 870 CURVE",
"1018 870 LINE",
"1003 1025 OFFCURVE",
"923 1116 OFFCURVE",
"772 1116 CURVE SMOOTH",
"649 1116 OFFCURVE",
"536 1052 OFFCURVE",
"420 893 CURVE",
"410 893 LINE",
"432 1096 LINE",
"293 1096 LINE",
"59 0 LINE",
"227 0 LINE",
"328 475 LINE SMOOTH",
"350 580 OFFCURVE",
"381 669 OFFCURVE",
"422 744 CURVE SMOOTH",
"502 892 OFFCURVE",
"613 975 OFFCURVE",
"725 975 CURVE SMOOTH",
"825 975 OFFCURVE",
"862 920 OFFCURVE",
"862 827 CURVE SMOOTH",
"862 800 OFFCURVE",
"856 755 OFFCURVE",
"844 692 CURVE SMOOTH",
"696 0 LINE",
"864 0 LINE"
);
}
);
width = 1786;
}
);
note = m;
unicode = 006D;
},
{
glyphname = n;
lastChange = "2017-05-14 16:29:54 +0000";
layers = (
{
anchors = (
{
name = bottom;
position = "{475, 0}";
},
{
name = top;
position = "{707, 1096}";
}
);
layerId = "6A44F957-816A-4D1D-8CAD-45EB0FE52ECF";
paths = (
{
closed = 1;
nodes = (
"1042 672 LINE SMOOTH",
"1057 739 OFFCURVE",
"1065 799 OFFCURVE",
"1065 852 CURVE SMOOTH",
"1065 1019 OFFCURVE",
"960 1116 OFFCURVE",
"791 1116 CURVE SMOOTH",
"663 1116 OFFCURVE",
"548 1056 OFFCURVE",
"420 893 CURVE",
"410 893 LINE",
"432 1096 LINE",
"293 1096 LINE",
"59 0 LINE",
"227 0 LINE",
"328 475 LINE SMOOTH",
"350 580 OFFCURVE",
"383 670 OFFCURVE",
"426 744 CURVE SMOOTH",
"512 892 OFFCURVE",
"629 975 OFFCURVE",
"748 975 CURVE SMOOTH",
"852 975 OFFCURVE",
"897 920 OFFCURVE",
"897 836 CURVE SMOOTH",
"897 809 OFFCURVE",
"890 761 OFFCURVE",
"877 692 CURVE SMOOTH",
"729 0 LINE",
"899 0 LINE"
);
}
);
width = 1182;
}
);
note = n;
unicode = 006E;
},
{
glyphname = o;
lastChange = "2017-05-14 16:29:54 +0000";
layers = (
{
anchors = (
{
name = bottom;
position = "{459, 0}";
},
{
name = center;
position = "{575, 548}";
},
{
name = ogonek;
position = "{918, 10}";
},
{
name = top;
position = "{691, 1096}";
},
{
name = topright;
position = "{1245, 1096}";
}
);
layerId = "6A44F957-816A-4D1D-8CAD-45EB0FE52ECF";
paths = (
{
closed = 1;
nodes = (
"542 1110 OFFCURVE",
"451 1080 OFFCURVE",
"368 1021 CURVE SMOOTH",
"203 901 OFFCURVE",
"98 659 OFFCURVE",
"98 406 CURVE SMOOTH",
"98 145 OFFCURVE",
"252 -16 OFFCURVE",
"508 -16 CURVE SMOOTH",
"611 -16 OFFCURVE",
"704 14 OFFCURVE",
"786 75 CURVE SMOOTH",
"950 196 OFFCURVE",
"1053 437 OFFCURVE",
"1053 688 CURVE SMOOTH",
"1053 951 OFFCURVE",
"896 1110 OFFCURVE",
"643 1110 CURVE SMOOTH"
);
},
{
closed = 1;
nodes = (
"879 596 OFFCURVE",
"864 493 OFFCURVE",
"833 404 CURVE SMOOTH",
"771 224 OFFCURVE",
"655 123 OFFCURVE",
"516 123 CURVE SMOOTH",
"357 123 OFFCURVE",
"270 222 OFFCURVE",
"270 397 CURVE SMOOTH",
"270 504 OFFCURVE",
"286 602 OFFCURVE",
"318 690 CURVE SMOOTH",
"381 865 OFFCURVE",
"502 969 OFFCURVE",
"647 969 CURVE SMOOTH",
"790 969 OFFCURVE",
"879 864 OFFCURVE",
"879 711 CURVE SMOOTH"
);
}
);
width = 1149;
}
);
note = o;
unicode = 006F;
},
{
glyphname = p;
lastChange = "2017-05-14 16:29:54 +0000";
layers = (
{
anchors = (
{
name = bottom;
position = "{475, 0}";
},
{
name = top;
position = "{707, 1096}";
}
);
guideLines = (
{
angle = 78.0693;
position = "{741, 420}";
}
);
layerId = "6A44F957-816A-4D1D-8CAD-45EB0FE52ECF";
paths = (
{
closed = 1;
nodes = (
"648 -20 OFFCURVE",
"740 13 OFFCURVE",
"821 79 CURVE SMOOTH",
"984 210 OFFCURVE",
"1081 460 OFFCURVE",
"1081 743 CURVE SMOOTH",
"1081 978 OFFCURVE",
"969 1114 OFFCURVE",
"786 1114 CURVE SMOOTH",
"657 1114 OFFCURVE",
"533 1038 OFFCURVE",
"414 887 CURVE",
"406 887 LINE",
"432 1096 LINE",
"293 1096 LINE",
"-43 -492 LINE",
"123 -492 LINE",
"194 -153 OFFCURVE",
"233 32 OFFCURVE",
"238 62 CURVE SMOOTH",
"243 92 OFFCURVE",
"246 115 OFFCURVE",
"248 132 CURVE SMOOTH",
"252 170 LINE",
"262 170 LINE",
"315 50 OFFCURVE",
"416 -20 OFFCURVE",
"545 -20 CURVE SMOOTH"
);
},
{
closed = 1;
nodes = (
"850 975 OFFCURVE",
"909 899 OFFCURVE",
"909 748 CURVE SMOOTH",
"909 636 OFFCURVE",
"892 530 OFFCURVE",
"857 431 CURVE SMOOTH",
"788 231 OFFCURVE",
"667 119 OFFCURVE",
"535 119 CURVE SMOOTH",
"395 119 OFFCURVE",
"319 199 OFFCURVE",
"319 346 CURVE SMOOTH",
"319 447 OFFCURVE",
"339 545 OFFCURVE",
"378 641 CURVE SMOOTH",
"456 833 OFFCURVE",
"603 975 OFFCURVE",
"731 975 CURVE SMOOTH"
);
}
);
width = 1182;
}
);
note = p;
unicode = 0070;
},
{
glyphname = q;
lastChange = "2017-05-14 16:29:54 +0000";
layers = (
{
anchors = (
{
name = bottom;
position = "{475, 0}";
},
{
name = top;
position = "{707, 1096}";
}
);
layerId = "6A44F957-816A-4D1D-8CAD-45EB0FE52ECF";
paths = (
{
closed = 1;
nodes = (
"540 1116 OFFCURVE",
"449 1084 OFFCURVE",
"367 1019 CURVE SMOOTH",
"202 890 OFFCURVE",
"98 633 OFFCURVE",
"98 350 CURVE SMOOTH",
"98 117 OFFCURVE",
"210 -20 OFFCURVE",
"397 -20 CURVE SMOOTH",
"525 -20 OFFCURVE",
"641 48 OFFCURVE",
"768 209 CURVE",
"776 209 LINE",
"744 92 OFFCURVE",
"725 18 OFFCURVE",
"719 -12 CURVE SMOOTH",
"618 -492 LINE",
"784 -492 LINE",
"1120 1096 LINE",
"995 1096 LINE",
"928 924 LINE",
"915 924 LINE",
"866 1045 OFFCURVE",
"766 1116 OFFCURVE",
"641 1116 CURVE SMOOTH"
);
},
{
closed = 1;
nodes = (
"330 119 OFFCURVE",
"270 195 OFFCURVE",
"270 346 CURVE SMOOTH",
"270 455 OFFCURVE",
"287 559 OFFCURVE",
"322 658 CURVE SMOOTH",
"391 856 OFFCURVE",
"516 975 OFFCURVE",
"651 975 CURVE SMOOTH",
"782 975 OFFCURVE",
"858 888 OFFCURVE",
"858 748 CURVE SMOOTH",
"858 645 OFFCURVE",
"838 545 OFFCURVE",
"798 448 CURVE SMOOTH",
"717 255 OFFCURVE",
"572 119 OFFCURVE",
"449 119 CURVE SMOOTH"
);
}
);
width = 1182;
}
);
note = q;
unicode = 0071;
},
{
glyphname = r;
lastChange = "2017-05-14 16:29:54 +0000";
layers = (
{
anchors = (
{
name = bottom;
position = "{290, 0}";
},
{
name = top;
position = "{522, 1096}";
}
);
layerId = "6A44F957-816A-4D1D-8CAD-45EB0FE52ECF";
paths = (
{
closed = 1;
nodes = (
"710 1116 OFFCURVE",
"672 1109 OFFCURVE",
"638 1094 CURVE SMOOTH",
"569 1064 OFFCURVE",
"516 1020 OFFCURVE",
"420 893 CURVE",
"410 893 LINE",
"432 1096 LINE",
"293 1096 LINE",
"59 0 LINE",
"227 0 LINE",
"334 502 LINE SMOOTH",
"353 589 OFFCURVE",
"382 668 OFFCURVE",
"422 739 CURVE SMOOTH",
"501 881 OFFCURVE",
"610 965 OFFCURVE",
"731 965 CURVE SMOOTH",
"766 965 OFFCURVE",
"801 961 OFFCURVE",
"836 952 CURVE",
"872 1102 LINE",
"838 1111 OFFCURVE",
"798 1116 OFFCURVE",
"752 1116 CURVE SMOOTH"
);
}
);
width = 811;
}
);
note = r;
unicode = 0072;
},
{
glyphname = s;
lastChange = "2017-05-14 16:29:54 +0000";
layers = (
{
anchors = (
{
name = bottom;
position = "{323, 0}";
},
{
name = top;
position = "{555, 1096}";
}
);
layerId = "6A44F957-816A-4D1D-8CAD-45EB0FE52ECF";
paths = (
{
closed = 1;
nodes = (
"735 352 OFFCURVE",
"727 390 OFFCURVE",
"712 423 CURVE SMOOTH",
"681 489 OFFCURVE",
"632 538 OFFCURVE",
"489 618 CURVE SMOOTH",
"415 660 OFFCURVE",
"366 694 OFFCURVE",
"343 721 CURVE SMOOTH",
"319 748 OFFCURVE",
"307 780 OFFCURVE",
"307 817 CURVE SMOOTH",
"307 909 OFFCURVE",
"382 973 OFFCURVE",
"506 973 CURVE SMOOTH",
"585 973 OFFCURVE",
"659 959 OFFCURVE",
"726 930 CURVE SMOOTH",
"782 905 LINE",
"836 1042 LINE",
"730 1091 OFFCURVE",
"620 1116 OFFCURVE",
"506 1116 CURVE SMOOTH",
"286 1116 OFFCURVE",
"139 993 OFFCURVE",
"139 809 CURVE SMOOTH",
"139 681 OFFCURVE",
"204 597 OFFCURVE",
"377 500 CURVE SMOOTH",
"454 455 OFFCURVE",
"505 419 OFFCURVE",
"528 393 CURVE SMOOTH",
"551 367 OFFCURVE",
"563 335 OFFCURVE",
"563 297 CURVE SMOOTH",
"563 193 OFFCURVE",
"477 119 OFFCURVE",
"309 119 CURVE SMOOTH",
"217 119 OFFCURVE",
"101 151 OFFCURVE",
"8 207 CURVE",
"8 49 LINE",
"99 3 OFFCURVE",
"200 -20 OFFCURVE",
"313 -20 CURVE SMOOTH",
"581 -20 OFFCURVE",
"735 103 OFFCURVE",
"735 311 CURVE SMOOTH"
);
}
);
width = 877;
}
);
note = s;
unicode = 0073;
},
{
glyphname = t;
lastChange = "2017-05-22 22:42:03 +0000";
layers = (
{
anchors = (
{
name = bottom;
position = "{332, 0}";
},
{
name = center;
position = "{332, 548}";
},
{
name = top;
position = "{673, 1096}";
},
{
name = topright;
position = "{760, 1096}";
}
);
layerId = "6A44F957-816A-4D1D-8CAD-45EB0FE52ECF";
paths = (
{
closed = 1;
nodes = (
"326 117 OFFCURVE",
"285 158 OFFCURVE",
"285 233 CURVE SMOOTH",
"285 263 OFFCURVE",
"291 307 OFFCURVE",
"303 365 CURVE SMOOTH",
"432 969 LINE",
"705 969 LINE",
"731 1096 LINE",
"457 1096 LINE",
"512 1348 LINE",
"414 1348 LINE",
"289 1120 LINE",
"104 1042 LINE",
"90 969 LINE",
"262 969 LINE",
"135 367 LINE SMOOTH",
"123 311 OFFCURVE",
"117 261 OFFCURVE",
"117 217 CURVE SMOOTH",
"117 60 OFFCURVE",
"208 -20 OFFCURVE",
"375 -20 CURVE SMOOTH",
"415 -20 OFFCURVE",
"494 -5 OFFCURVE",
"539 14 CURVE",
"539 143 LINE",
"480 126 OFFCURVE",
"432 117 OFFCURVE",
"395 117 CURVE SMOOTH"
);
}
);
width = 664;
}
);
leftMetricsKey = t;
note = t;
rightMetricsKey = t;
unicode = 0074;
},
{
glyphname = u;
lastChange = "2017-05-14 16:29:54 +0000";
layers = (
{
anchors = (
{
name = bottom;
position = "{475, 0}";
},
{
name = ogonek;
position = "{948, 10}";
},
{
name = top;
position = "{707, 1096}";
},
{
name = topright;
position = "{1278, 1096}";
}
);
layerId = "6A44F957-816A-4D1D-8CAD-45EB0FE52ECF";
paths = (
{
closed = 1;
nodes = (
"135 420 LINE SMOOTH",
"120 347 OFFCURVE",
"113 289 OFFCURVE",
"113 248 CURVE SMOOTH",
"113 76 OFFCURVE",
"216 -20 OFFCURVE",
"387 -20 CURVE SMOOTH",
"514 -20 OFFCURVE",
"627 36 OFFCURVE",
"758 203 CURVE",
"770 203 LINE",
"748 0 LINE",
"887 0 LINE",
"1118 1096 LINE",
"952 1096 LINE",
"852 621 LINE SMOOTH",
"829 516 OFFCURVE",
"796 426 OFFCURVE",
"753 351 CURVE SMOOTH",
"666 202 OFFCURVE",
"547 119 OFFCURVE",
"430 119 CURVE SMOOTH",
"332 119 OFFCURVE",
"283 167 OFFCURVE",
"283 262 CURVE SMOOTH",
"283 295 OFFCURVE",
"289 342 OFFCURVE",
"301 401 CURVE SMOOTH",
"451 1096 LINE",
"281 1096 LINE"
);
}
);
width = 1182;
}
);
note = u;
unicode = 0075;
},
{
glyphname = v;
lastChange = "2017-05-14 16:29:54 +0000";
layers = (
{
anchors = (
{
name = bottom;
position = "{357, 0}";
},
{
name = top;
position = "{589, 1096}";
}
);
layerId = "6A44F957-816A-4D1D-8CAD-45EB0FE52ECF";
paths = (
{
closed = 1;
nodes = (
"1042 1096 LINE",
"864 1096 LINE",
"539 492 LINE SMOOTH",
"504 428 OFFCURVE",
"445 304 OFFCURVE",
"360 121 CURVE",
"354 121 LINE",
"354 190 OFFCURVE",
"346 311 OFFCURVE",
"330 483 CURVE SMOOTH",
"266 1096 LINE",
"98 1096 LINE",
"223 0 LINE",
"451 0 LINE"
);
}
);
width = 946;
}
);
note = v;
unicode = 0076;
},
{
glyphname = w;
lastChange = "2017-05-14 16:29:54 +0000";
layers = (
{
anchors = (
{
name = bottom;
position = "{618, 0}";
},
{
name = top;
position = "{850, 1096}";
}
);
layerId = "6A44F957-816A-4D1D-8CAD-45EB0FE52ECF";
paths = (
{
closed = 1;
nodes = (
"1542 1096 LINE",
"1364 1096 LINE",
"1185 696 OFFCURVE",
"1078 452 OFFCURVE",
"1041 364 CURVE SMOOTH",
"1004 275 OFFCURVE",
"977 202 OFFCURVE",
"958 145 CURVE",
"952 145 LINE",
"954 187 LINE",
"954 240 LINE SMOOTH",
"954 303 OFFCURVE",
"952 390 OFFCURVE",
"948 502 CURVE SMOOTH",
"911 1096 LINE",
"729 1096 LINE",
"434 467 LINE SMOOTH",
"374 335 OFFCURVE",
"328 228 OFFCURVE",
"297 145 CURVE",
"291 145 LINE",
"296 226 OFFCURVE",
"299 316 OFFCURVE",
"299 414 CURVE SMOOTH",
"299 502 LINE",
"281 1096 LINE",
"117 1096 LINE",
"160 0 LINE",
"362 0 LINE",
"653 623 LINE",
"736 812 LINE",
"786 930 LINE",
"795 930 LINE",
"795 774 LINE SMOOTH",
"795 722 OFFCURVE",
"796 665 OFFCURVE",
"799 602 CURVE SMOOTH",
"831 0 LINE",
"1036 0 LINE"
);
}
);
width = 1468;
}
);
note = w;
unicode = 0077;
},
{
glyphname = x;
lastChange = "2017-05-14 16:29:54 +0000";
layers = (
{
anchors = (
{
name = bottom;
position = "{374, 0}";
},
{
name = top;
position = "{606, 1096}";
}
);
layerId = "6A44F957-816A-4D1D-8CAD-45EB0FE52ECF";
paths = (
{
closed = 1;
nodes = (
"827 0 LINE",
"575 557 LINE",
"1030 1096 LINE",
"836 1096 LINE",
"506 684 LINE",
"332 1096 LINE",
"162 1096 LINE",
"401 565 LINE",
"-74 0 LINE",
"121 0 LINE",
"467 434 LINE",
"659 0 LINE"
);
}
);
width = 979;
}
);
note = x;
unicode = 0078;
},
{
glyphname = y;
lastChange = "2017-06-05 00:29:34 +0000";
layers = (
{
anchors = (
{
name = bottom;
position = "{357, 0}";
},
{
name = top;
position = "{589, 1096}";
}
);
layerId = "6A44F957-816A-4D1D-8CAD-45EB0FE52ECF";
paths = (
{
closed = 1;
nodes = (
"188 -154 LINE SMOOTH",
"115 -286 OFFCURVE",
"43 -354 OFFCURVE",
"-66 -354 CURVE SMOOTH",
"-111 -354 OFFCURVE",
"-155 -348 OFFCURVE",
"-197 -336 CURVE",
"-197 -471 LINE",
"-152 -485 OFFCURVE",
"-105 -492 OFFCURVE",
"-57 -492 CURVE SMOOTH",
"114 -492 OFFCURVE",
"222 -415 OFFCURVE",
"346 -186 CURVE SMOOTH",
"1042 1096 LINE",
"864 1096 LINE",
"539 487 LINE SMOOTH",
"506 430 OFFCURVE",
"422 247 OFFCURVE",
"375 131 CURVE",
"369 131 LINE",
"369 240 OFFCURVE",
"353 459 OFFCURVE",
"340 551 CURVE SMOOTH",
"266 1096 LINE",
"98 1096 LINE",
"264 -18 LINE"
);
}
);
width = 946;
}
);
note = y;
unicode = 0079;
},
{
glyphname = z;
lastChange = "2017-05-14 16:29:54 +0000";
layers = (
{
anchors = (
{
name = bottom;
position = "{339, 0}";
},
{
name = top;
position = "{571, 1096}";
}
);
layerId = "6A44F957-816A-4D1D-8CAD-45EB0FE52ECF";
paths = (
{
closed = 1;
nodes = (
"184 125 LINE",
"864 956 LINE",
"893 1096 LINE",
"236 1096 LINE",
"209 971 LINE",
"688 971 LINE",
"-6 117 LINE",
"-29 0 LINE",
"690 0 LINE",
"715 125 LINE"
);
}
);
width = 909;
}
);
note = z;
unicode = 007A;
},
{
glyphname = braceleft;
lastChange = "2017-04-22 20:56:27 +0000";
layers = (
{
layerId = "6A44F957-816A-4D1D-8CAD-45EB0FE52ECF";
paths = (
{
closed = 1;
nodes = (
"465 -182 LINE",
"354 -182 OFFCURVE",
"309 -151 OFFCURVE",
"309 -80 CURVE SMOOTH",
"309 -53 OFFCURVE",
"314 -21 OFFCURVE",
"324 18 CURVE SMOOTH",
"371 229 LINE SMOOTH",
"383 277 OFFCURVE",
"389 321 OFFCURVE",
"389 360 CURVE SMOOTH",
"389 475 OFFCURVE",
"339 546 OFFCURVE",
"238 573 CURVE",
"238 578 LINE",
"377 601 OFFCURVE",
"459 676 OFFCURVE",
"496 840 CURVE SMOOTH",
"567 1161 LINE SMOOTH",
"594 1277 OFFCURVE",
"644 1321 OFFCURVE",
"784 1321 CURVE",
"815 1462 LINE",
"782 1462 LINE SMOOTH",
"554 1462 OFFCURVE",
"455 1387 OFFCURVE",
"410 1174 CURVE SMOOTH",
"342 848 LINE SMOOTH",
"313 709 OFFCURVE",
"216 657 OFFCURVE",
"59 657 CURVE",
"27 514 LINE",
"166 514 OFFCURVE",
"236 466 OFFCURVE",
"236 371 CURVE",
"239 357 OFFCURVE",
"234 323 OFFCURVE",
"222 269 CURVE SMOOTH",
"197 160 OFFCURVE",
"150 -31 OFFCURVE",
"150 -100 CURVE SMOOTH",
"150 -259 OFFCURVE",
"254 -324 OFFCURVE",
"442 -324 CURVE SMOOTH",
"465 -324 LINE"
);
}
);
width = 715;
}
);
note = braceleft;
unicode = 007B;
},
{
glyphname = bar;
lastChange = "2017-04-22 20:56:27 +0000";
layers = (
{
layerId = "6A44F957-816A-4D1D-8CAD-45EB0FE52ECF";
paths = (
{
closed = 1;
nodes = (
"680 -496 LINE",
"680 1556 LINE",
"541 1556 LINE",
"541 -496 LINE"
);
}
);
width = 1128;
}
);
note = bar;
unicode = 007C;
},
{
glyphname = braceright;
lastChange = "2017-04-22 20:56:27 +0000";
layers = (
{
layerId = "6A44F957-816A-4D1D-8CAD-45EB0FE52ECF";
paths = (
{
closed = 1;
nodes = (
"246 1321 LINE",
"378 1321 OFFCURVE",
"426 1290 OFFCURVE",
"426 1219 CURVE SMOOTH",
"426 1196 OFFCURVE",
"421 1163 OFFCURVE",
"412 1120 CURVE SMOOTH",
"362 907 LINE SMOOTH",
"350 859 OFFCURVE",
"344 815 OFFCURVE",
"344 776 CURVE SMOOTH",
"344 663 OFFCURVE",
"394 593 OFFCURVE",
"494 565 CURVE",
"494 559 LINE",
"351 535 OFFCURVE",
"269 455 OFFCURVE",
"236 299 CURVE SMOOTH",
"164 -23 LINE SMOOTH",
"139 -139 OFFCURVE",
"79 -182 OFFCURVE",
"-74 -182 CURVE",
"-74 -324 LINE",
"-61 -324 LINE SMOOTH",
"180 -324 OFFCURVE",
"274 -254 OFFCURVE",
"322 -35 CURVE SMOOTH",
"389 291 LINE SMOOTH",
"418 430 OFFCURVE",
"513 481 OFFCURVE",
"672 481 CURVE",
"705 625 LINE",
"566 625 OFFCURVE",
"496 673 OFFCURVE",
"496 768 CURVE SMOOTH",
"496 797 OFFCURVE",
"501 834 OFFCURVE",
"512 879 CURVE SMOOTH",
"561 1098 LINE SMOOTH",
"575 1160 OFFCURVE",
"582 1207 OFFCURVE",
"582 1239 CURVE SMOOTH",
"582 1396 OFFCURVE",
"477 1462 OFFCURVE",
"285 1462 CURVE SMOOTH",
"274 1462 LINE"
);
}
);
width = 715;
}
);
note = braceright;
unicode = 007D;
},
{
glyphname = asciitilde;
lastChange = "2017-04-22 20:56:27 +0000";
layers = (
{
layerId = "6A44F957-816A-4D1D-8CAD-45EB0FE52ECF";
paths = (
{
closed = 1;
nodes = (
"412 713 OFFCURVE",
"461 700 OFFCURVE",
"561 657 CURVE SMOOTH",
"657 614 OFFCURVE",
"735 592 OFFCURVE",
"831 592 CURVE SMOOTH",
"927 592 OFFCURVE",
"1008 629 OFFCURVE",
"1075 702 CURVE",
"1075 852 LINE",
"1007 779 OFFCURVE",
"913 731 OFFCURVE",
"840 731 CURVE SMOOTH",
"773 731 OFFCURVE",
"714 750 OFFCURVE",
"629 786 CURVE SMOOTH",
"514 835 OFFCURVE",
"450 852 OFFCURVE",
"358 852 CURVE SMOOTH",
"261 852 OFFCURVE",
"180 816 OFFCURVE",
"115 743 CURVE",
"115 592 LINE",
"182 661 OFFCURVE",
"276 713 OFFCURVE",
"348 713 CURVE SMOOTH"
);
}
);
width = 1128;
}
);
note = asciitilde;
unicode = 007E;
},
{
glyphname = exclamdown;
lastChange = "2017-04-22 20:56:27 +0000";
layers = (
{
layerId = "6A44F957-816A-4D1D-8CAD-45EB0FE52ECF";
paths = (
{
closed = 1;
nodes = (
"193 -373 LINE",
"369 684 LINE",
"260 684 LINE",
"-14 -373 LINE"
);
},
{
closed = 1;
nodes = (
"250 882 OFFCURVE",
"288 848 OFFCURVE",
"352 848 CURVE SMOOTH",
"439 848 OFFCURVE",
"498 917 OFFCURVE",
"498 1012 CURVE SMOOTH",
"498 1084 OFFCURVE",
"460 1118 OFFCURVE",
"401 1118 CURVE SMOOTH",
"308 1118 OFFCURVE",
"250 1051 OFFCURVE",
"250 950 CURVE SMOOTH"
);
}
);
width = 530;
}
);
note = exclamdown;
unicode = 00A1;
},
{
glyphname = cent;
lastChange = "2017-04-22 20:56:27 +0000";
layers = (
{
layerId = "6A44F957-816A-4D1D-8CAD-45EB0FE52ECF";
paths = (
{
closed = 1;
nodes = (
"732 181 OFFCURVE",
"827 203 OFFCURVE",
"909 244 CURVE",
"909 387 LINE",
"826 350 OFFCURVE",
"743 319 OFFCURVE",
"647 319 CURVE SMOOTH",
"490 319 OFFCURVE",
"397 423 OFFCURVE",
"397 590 CURVE SMOOTH",
"397 697 OFFCURVE",
"415 796 OFFCURVE",
"450 887 CURVE SMOOTH",
"520 1069 OFFCURVE",
"650 1176 OFFCURVE",
"799 1176 CURVE SMOOTH",
"872 1176 OFFCURVE",
"945 1159 OFFCURVE",
"1018 1124 CURVE",
"1065 1266 LINE",
"1000 1293 OFFCURVE",
"927 1309 OFFCURVE",
"848 1315 CURVE",
"885 1483 LINE",
"762 1483 LINE",
"727 1313 LINE",
"630 1299 OFFCURVE",
"544 1259 OFFCURVE",
"467 1193 CURVE SMOOTH",
"314 1060 OFFCURVE",
"225 837 OFFCURVE",
"225 590 CURVE SMOOTH",
"225 385 OFFCURVE",
"324 240 OFFCURVE",
"500 195 CURVE",
"457 -20 LINE",
"582 -20 LINE",
"623 178 LINE"
);
}
);
width = 1128;
}
);
note = cent;
unicode = 00A2;
},
{
glyphname = sterling;
lastChange = "2017-04-22 20:56:27 +0000";
layers = (
{
layerId = "6A44F957-816A-4D1D-8CAD-45EB0FE52ECF";
paths = (
{
closed = 1;
nodes = (
"605 1481 OFFCURVE",
"462 1363 OFFCURVE",
"412 1128 CURVE SMOOTH",
"336 778 LINE",
"135 778 LINE",
"109 651 LINE",
"309 651 LINE",
"262 430 LINE SMOOTH",
"227 268 OFFCURVE",
"141 172 OFFCURVE",
"4 141 CURVE",
"-23 0 LINE",
"930 0 LINE",
"963 154 LINE",
"238 154 LINE",
"345 211 OFFCURVE",
"399 301 OFFCURVE",
"428 432 CURVE SMOOTH",
"475 651 LINE",
"846 651 LINE",
"872 778 LINE",
"502 778 LINE",
"571 1104 LINE SMOOTH",
"604 1262 OFFCURVE",
"692 1341 OFFCURVE",
"834 1341 CURVE SMOOTH",
"922 1341 OFFCURVE",
"1015 1315 OFFCURVE",
"1112 1262 CURVE",
"1178 1395 LINE",
"1077 1452 OFFCURVE",
"965 1481 OFFCURVE",
"842 1481 CURVE SMOOTH"
);
}
);
width = 1128;
}
);
note = sterling;
unicode = 00A3;
},
{
glyphname = currency;
lastChange = "2017-04-22 20:56:27 +0000";
layers = (
{
layerId = "6A44F957-816A-4D1D-8CAD-45EB0FE52ECF";
paths = (
{
closed = 1;
nodes = (
"229 644 OFFCURVE",
"252 572 OFFCURVE",
"297 508 CURVE",
"170 381 LINE",
"260 291 LINE",
"387 418 LINE",
"452 371 OFFCURVE",
"525 348 OFFCURVE",
"604 348 CURVE SMOOTH",
"682 348 OFFCURVE",
"754 371 OFFCURVE",
"819 416 CURVE",
"948 289 LINE",
"1038 379 LINE",
"911 506 LINE",
"958 571 OFFCURVE",
"981 644 OFFCURVE",
"981 723 CURVE SMOOTH",
"981 798 OFFCURVE",
"958 871 OFFCURVE",
"911 940 CURVE",
"1040 1069 LINE",
"948 1159 LINE",
"819 1030 LINE",
"752 1077 OFFCURVE",
"680 1100 OFFCURVE",
"604 1100 CURVE SMOOTH",
"528 1100 OFFCURVE",
"456 1077 OFFCURVE",
"387 1030 CURVE",
"260 1159 LINE",
"168 1067 LINE",
"297 938 LINE",
"252 873 OFFCURVE",
"229 801 OFFCURVE",
"229 723 CURVE SMOOTH"
);
},
{
closed = 1;
nodes = (
"358 863 OFFCURVE",
"468 973 OFFCURVE",
"604 973 CURVE SMOOTH",
"743 973 OFFCURVE",
"854 862 OFFCURVE",
"854 723 CURVE SMOOTH",
"854 586 OFFCURVE",
"743 477 OFFCURVE",
"604 477 CURVE SMOOTH",
"467 477 OFFCURVE",
"358 586 OFFCURVE",
"358 723 CURVE SMOOTH"
);
}
);
width = 1128;
}
);
note = currency;
unicode = 00A4;
},
{
glyphname = yen;
lastChange = "2017-04-22 20:56:27 +0000";
layers = (
{
layerId = "6A44F957-816A-4D1D-8CAD-45EB0FE52ECF";
paths = (
{
closed = 1;
nodes = (
"240 1462 LINE",
"442 692 LINE",
"217 692 LINE",
"188 559 LINE",
"479 559 LINE",
"446 399 LINE",
"156 399 LINE",
"127 266 LINE",
"418 266 LINE",
"362 0 LINE",
"516 0 LINE",
"573 266 LINE",
"868 266 LINE",
"897 399 LINE",
"600 399 LINE",
"633 559 LINE",
"930 559 LINE",
"958 692 LINE",
"727 692 LINE",
"1260 1462 LINE",
"1073 1462 LINE",
"582 715 LINE",
"403 1462 LINE"
);
}
);
width = 1128;
}
);
note = yen;
unicode = 00A5;
},
{
glyphname = brokenbar;
lastChange = "2017-04-22 20:56:27 +0000";
layers = (
{
layerId = "6A44F957-816A-4D1D-8CAD-45EB0FE52ECF";
paths = (
{
closed = 1;
nodes = (
"680 780 LINE",
"680 1556 LINE",
"541 1556 LINE",
"541 780 LINE"
);
},
{
closed = 1;
nodes = (
"680 -496 LINE",
"680 281 LINE",
"541 281 LINE",
"541 -496 LINE"
);
}
);
width = 1128;
}
);
note = brokenbar;
unicode = 00A6;
},
{
glyphname = section;
lastChange = "2017-04-22 20:56:27 +0000";
layers = (
{
layerId = "6A44F957-816A-4D1D-8CAD-45EB0FE52ECF";
paths = (
{
closed = 1;
nodes = (
"174 641 OFFCURVE",
"240 554 OFFCURVE",
"424 473 CURVE SMOOTH",
"560 412 OFFCURVE",
"627 361 OFFCURVE",
"627 297 CURVE SMOOTH",
"627 184 OFFCURVE",
"529 123 OFFCURVE",
"352 123 CURVE SMOOTH",
"251 123 OFFCURVE",
"134 156 OFFCURVE",
"59 201 CURVE",
"59 53 LINE",
"138 12 OFFCURVE",
"237 -8 OFFCURVE",
"354 -8 CURVE SMOOTH",
"626 -8 OFFCURVE",
"786 112 OFFCURVE",
"786 315 CURVE SMOOTH",
"786 394 OFFCURVE",
"748 457 OFFCURVE",
"672 504 CURVE",
"820 579 OFFCURVE",
"905 694 OFFCURVE",
"905 823 CURVE SMOOTH",
"905 866 OFFCURVE",
"896 904 OFFCURVE",
"879 937 CURVE SMOOTH",
"844 1004 OFFCURVE",
"788 1051 OFFCURVE",
"655 1110 CURVE SMOOTH",
"572 1147 OFFCURVE",
"518 1178 OFFCURVE",
"493 1201 CURVE SMOOTH",
"468 1224 OFFCURVE",
"455 1251 OFFCURVE",
"455 1284 CURVE SMOOTH",
"455 1376 OFFCURVE",
"542 1434 OFFCURVE",
"678 1434 CURVE SMOOTH",
"757 1434 OFFCURVE",
"845 1414 OFFCURVE",
"944 1374 CURVE",
"997 1497 LINE",
"909 1542 OFFCURVE",
"802 1565 OFFCURVE",
"676 1565 CURVE SMOOTH",
"441 1565 OFFCURVE",
"293 1449 OFFCURVE",
"293 1280 CURVE SMOOTH",
"293 1191 OFFCURVE",
"333 1124 OFFCURVE",
"412 1077 CURVE",
"253 1006 OFFCURVE",
"174 904 OFFCURVE",
"174 770 CURVE SMOOTH"
);
},
{
closed = 1;
nodes = (
"605 971 OFFCURVE",
"668 937 OFFCURVE",
"701 907 CURVE SMOOTH",
"734 876 OFFCURVE",
"750 841 OFFCURVE",
"750 801 CURVE SMOOTH",
"750 710 OFFCURVE",
"682 622 OFFCURVE",
"575 563 CURVE",
"476 606 OFFCURVE",
"410 643 OFFCURVE",
"377 674 CURVE SMOOTH",
"343 705 OFFCURVE",
"326 744 OFFCURVE",
"326 791 CURVE SMOOTH",
"326 884 OFFCURVE",
"405 975 OFFCURVE",
"514 1010 CURVE"
);
}
);
width = 995;
}
);
note = section;
unicode = 00A7;
},
{
glyphname = dieresis;
lastChange = "2017-04-22 20:56:27 +0000";
layers = (
{
layerId = "6A44F957-816A-4D1D-8CAD-45EB0FE52ECF";
paths = (
{
closed = 1;
nodes = (
"457 1325 OFFCURVE",
"492 1294 OFFCURVE",
"539 1294 CURVE SMOOTH",
"591 1294 OFFCURVE",
"637 1346 OFFCURVE",
"637 1411 CURVE SMOOTH",
"637 1464 OFFCURVE",
"611 1491 OFFCURVE",
"559 1491 CURVE SMOOTH",
"498 1491 OFFCURVE",
"457 1439 OFFCURVE",
"457 1378 CURVE SMOOTH"
);
},
{
closed = 1;
nodes = (
"821 1325 OFFCURVE",
"856 1294 OFFCURVE",
"903 1294 CURVE SMOOTH",
"955 1294 OFFCURVE",
"1001 1346 OFFCURVE",
"1001 1411 CURVE SMOOTH",
"1001 1464 OFFCURVE",
"975 1491 OFFCURVE",
"924 1491 CURVE SMOOTH",
"861 1491 OFFCURVE",
"821 1439 OFFCURVE",
"821 1378 CURVE SMOOTH"
);
}
);
width = 1135;
}
);
note = dieresis;
unicode = 00A8;
},
{
glyphname = copyright;
lastChange = "2017-04-22 20:56:27 +0000";
layers = (
{
layerId = "6A44F957-816A-4D1D-8CAD-45EB0FE52ECF";
paths = (
{
closed = 1;
nodes = (
"984 1059 OFFCURVE",
"1047 1041 OFFCURVE",
"1118 1006 CURVE",
"1178 1126 LINE",
"1099 1166 OFFCURVE",
"1017 1186 OFFCURVE",
"930 1186 CURVE SMOOTH",
"677 1186 OFFCURVE",
"520 1010 OFFCURVE",
"520 733 CURVE SMOOTH",
"520 440 OFFCURVE",
"666 274 OFFCURVE",
"922 274 CURVE SMOOTH",
"998 274 OFFCURVE",
"1051 285 OFFCURVE",
"1139 322 CURVE",
"1139 444 LINE",
"1053 415 OFFCURVE",
"983 401 OFFCURVE",
"928 401 CURVE SMOOTH",
"757 401 OFFCURVE",
"670 506 OFFCURVE",
"670 731 CURVE SMOOTH",
"670 936 OFFCURVE",
"761 1059 OFFCURVE",
"928 1059 CURVE SMOOTH"
);
},
{
closed = 1;
nodes = (
"139 599 OFFCURVE",
"172 475 OFFCURVE",
"237 360 CURVE SMOOTH",
"367 129 OFFCURVE",
"615 -20 OFFCURVE",
"891 -20 CURVE SMOOTH",
"1028 -20 OFFCURVE",
"1154 14 OFFCURVE",
"1269 81 CURVE SMOOTH",
"1499 216 OFFCURVE",
"1642 459 OFFCURVE",
"1642 731 CURVE SMOOTH",
"1642 870 OFFCURVE",
"1607 997 OFFCURVE",
"1538 1114 CURVE SMOOTH",
"1399 1347 OFFCURVE",
"1154 1483 OFFCURVE",
"891 1483 CURVE SMOOTH",
"756 1483 OFFCURVE",
"631 1449 OFFCURVE",
"514 1382 CURVE SMOOTH",
"281 1247 OFFCURVE",
"139 998 OFFCURVE",
"139 731 CURVE SMOOTH"
);
},
{
closed = 1;
nodes = (
"244 848 OFFCURVE",
"273 957 OFFCURVE",
"332 1056 CURVE SMOOTH",
"448 1254 OFFCURVE",
"659 1378 OFFCURVE",
"891 1378 CURVE SMOOTH",
"1008 1378 OFFCURVE",
"1117 1349 OFFCURVE",
"1216 1291 CURVE SMOOTH",
"1414 1174 OFFCURVE",
"1538 963 OFFCURVE",
"1538 731 CURVE SMOOTH",
"1538 614 OFFCURVE",
"1509 506 OFFCURVE",
"1451 407 CURVE SMOOTH",
"1334 209 OFFCURVE",
"1123 84 OFFCURVE",
"891 84 CURVE SMOOTH",
"776 84 OFFCURVE",
"669 113 OFFCURVE",
"569 171 CURVE SMOOTH",
"368 286 OFFCURVE",
"244 500 OFFCURVE",
"244 731 CURVE SMOOTH"
);
}
);
width = 1704;
}
);
note = copyright;
unicode = 00A9;
},
{
glyphname = ordfeminine;
lastChange = "2017-04-22 20:56:27 +0000";
layers = (
{
layerId = "6A44F957-816A-4D1D-8CAD-45EB0FE52ECF";
paths = (
{
closed = 1;
nodes = (
"435 1479 OFFCURVE",
"378 1459 OFFCURVE",
"328 1418 CURVE SMOOTH",
"228 1336 OFFCURVE",
"170 1183 OFFCURVE",
"170 1014 CURVE SMOOTH",
"170 873 OFFCURVE",
"243 788 OFFCURVE",
"346 788 CURVE SMOOTH",
"443 788 OFFCURVE",
"506 843 OFFCURVE",
"559 918 CURVE",
"563 918 LINE",
"549 801 LINE",
"641 801 LINE",
"780 1466 LINE",
"694 1466 LINE",
"657 1376 LINE",
"651 1376 LINE",
"625 1445 OFFCURVE",
"574 1479 OFFCURVE",
"498 1479 CURVE SMOOTH"
);
},
{
closed = 1;
nodes = (
"316 891 OFFCURVE",
"283 937 OFFCURVE",
"283 1030 CURVE SMOOTH",
"283 1217 OFFCURVE",
"377 1376 OFFCURVE",
"500 1376 CURVE SMOOTH",
"576 1376 OFFCURVE",
"614 1328 OFFCURVE",
"614 1245 CURVE SMOOTH",
"614 1192 OFFCURVE",
"603 1137 OFFCURVE",
"580 1078 CURVE SMOOTH",
"534 960 OFFCURVE",
"462 891 OFFCURVE",
"381 891 CURVE SMOOTH"
);
}
);
width = 686;
}
);
note = ordfeminine;
unicode = 00AA;
},
{
glyphname = guillemotleft;
lastChange = "2017-04-22 20:56:27 +0000";
layers = (
{
layerId = "6A44F957-816A-4D1D-8CAD-45EB0FE52ECF";
paths = (
{
closed = 1;
nodes = (
"319 113 LINE",
"432 162 LINE",
"260 549 LINE",
"557 877 LINE",
"479 958 LINE",
"88 584 LINE",
"88 555 LINE"
);
},
{
closed = 1;
nodes = (
"698 113 LINE",
"811 162 LINE",
"653 512 LINE",
"936 877 LINE",
"850 946 LINE",
"483 541 LINE",
"483 510 LINE"
);
}
);
width = 958;
}
);
note = guillemotleft;
unicode = 00AB;
},
{
glyphname = logicalnot;
lastChange = "2017-04-22 20:56:27 +0000";
layers = (
{
layerId = "6A44F957-816A-4D1D-8CAD-45EB0FE52ECF";
paths = (
{
closed = 1;
nodes = (
"127 651 LINE",
"907 651 LINE",
"907 264 LINE",
"1047 264 LINE",
"1047 793 LINE",
"127 793 LINE"
);
}
);
width = 1128;
}
);
note = logicalnot;
unicode = 00AC;
},
{
glyphname = registered;
lastChange = "2017-04-22 20:56:27 +0000";
layers = (
{
layerId = "6A44F957-816A-4D1D-8CAD-45EB0FE52ECF";
paths = (
{
closed = 1;
nodes = (
"139 599 OFFCURVE",
"172 475 OFFCURVE",
"237 360 CURVE SMOOTH",
"367 129 OFFCURVE",
"615 -20 OFFCURVE",
"891 -20 CURVE SMOOTH",
"1028 -20 OFFCURVE",
"1154 14 OFFCURVE",
"1269 81 CURVE SMOOTH",
"1499 216 OFFCURVE",
"1642 459 OFFCURVE",
"1642 731 CURVE SMOOTH",
"1642 870 OFFCURVE",
"1607 997 OFFCURVE",
"1538 1114 CURVE SMOOTH",
"1399 1347 OFFCURVE",
"1154 1483 OFFCURVE",
"891 1483 CURVE SMOOTH",
"756 1483 OFFCURVE",
"631 1449 OFFCURVE",
"514 1382 CURVE SMOOTH",
"281 1247 OFFCURVE",
"139 998 OFFCURVE",
"139 731 CURVE SMOOTH"
);
},
{
closed = 1;
nodes = (
"244 848 OFFCURVE",
"273 957 OFFCURVE",
"332 1056 CURVE SMOOTH",
"448 1254 OFFCURVE",
"659 1378 OFFCURVE",
"891 1378 CURVE SMOOTH",
"1008 1378 OFFCURVE",
"1117 1349 OFFCURVE",
"1216 1291 CURVE SMOOTH",
"1414 1174 OFFCURVE",
"1538 963 OFFCURVE",
"1538 731 CURVE SMOOTH",
"1538 614 OFFCURVE",
"1509 506 OFFCURVE",
"1451 407 CURVE SMOOTH",
"1334 209 OFFCURVE",
"1123 84 OFFCURVE",
"891 84 CURVE SMOOTH",
"776 84 OFFCURVE",
"669 113 OFFCURVE",
"569 171 CURVE SMOOTH",
"368 286 OFFCURVE",
"244 500 OFFCURVE",
"244 731 CURVE SMOOTH"
);
},
{
closed = 1;
nodes = (
"1194 1088 OFFCURVE",
"1091 1171 OFFCURVE",
"874 1171 CURVE SMOOTH",
"645 1171 LINE",
"645 291 LINE",
"772 291 LINE",
"772 643 LINE",
"885 643 LINE",
"1092 291 LINE",
"1241 291 LINE",
"1014 676 LINE",
"1127 723 OFFCURVE",
"1194 811 OFFCURVE",
"1194 915 CURVE SMOOTH"
);
},
{
closed = 1;
nodes = (
"862 1049 LINE SMOOTH",
"998 1049 OFFCURVE",
"1059 1012 OFFCURVE",
"1059 911 CURVE SMOOTH",
"1059 812 OFFCURVE",
"994 762 OFFCURVE",
"864 762 CURVE SMOOTH",
"772 762 LINE",
"772 1049 LINE"
);
}
);
width = 1704;
}
);
note = registered;
unicode = 00AE;
},
{
glyphname = overscore;
lastChange = "2017-04-22 20:56:27 +0000";
layers = (
{
layerId = "6A44F957-816A-4D1D-8CAD-45EB0FE52ECF";
paths = (
{
closed = 1;
nodes = (
"260 1688 LINE",
"227 1556 LINE",
"1012 1556 LINE",
"1047 1688 LINE"
);
}
);
width = 782;
}
);
note = overscore;
unicode = 00AF;
},
{
glyphname = degree;
lastChange = "2017-04-22 20:56:27 +0000";
layers = (
{
layerId = "6A44F957-816A-4D1D-8CAD-45EB0FE52ECF";
paths = (
{
closed = 1;
nodes = (
"215 1000 OFFCURVE",
"351 862 OFFCURVE",
"526 862 CURVE SMOOTH",
"701 862 OFFCURVE",
"838 1000 OFFCURVE",
"838 1171 CURVE SMOOTH",
"838 1227 OFFCURVE",
"824 1279 OFFCURVE",
"796 1328 CURVE SMOOTH",
"740 1424 OFFCURVE",
"637 1483 OFFCURVE",
"526 1483 CURVE SMOOTH",
"353 1483 OFFCURVE",
"215 1342 OFFCURVE",
"215 1171 CURVE SMOOTH"
);
},
{
closed = 1;
nodes = (
"328 1280 OFFCURVE",
"419 1370 OFFCURVE",
"526 1370 CURVE SMOOTH",
"635 1370 OFFCURVE",
"723 1280 OFFCURVE",
"723 1171 CURVE SMOOTH",
"723 1066 OFFCURVE",
"637 975 OFFCURVE",
"526 975 CURVE SMOOTH",
"417 975 OFFCURVE",
"328 1064 OFFCURVE",
"328 1171 CURVE SMOOTH"
);
}
);
width = 877;
}
);
note = degree;
unicode = 00B0;
},
{
glyphname = plusminus;
lastChange = "2017-04-22 20:56:27 +0000";
layers = (
{
layerId = "6A44F957-816A-4D1D-8CAD-45EB0FE52ECF";
paths = (
{
closed = 1;
nodes = (
"657 256 LINE",
"657 643 LINE",
"1047 643 LINE",
"1047 784 LINE",
"657 784 LINE",
"657 1176 LINE",
"516 1176 LINE",
"516 784 LINE",
"127 784 LINE",
"127 643 LINE",
"516 643 LINE",
"516 256 LINE"
);
},
{
closed = 1;
nodes = (
"1047 141 LINE",
"127 141 LINE",
"127 0 LINE",
"1047 0 LINE"
);
}
);
width = 1128;
}
);
note = plusminus;
unicode = 00B1;
},
{
glyphname = twosuperior;
lastChange = "2017-04-22 20:56:27 +0000";
layers = (
{
layerId = "6A44F957-816A-4D1D-8CAD-45EB0FE52ECF";
paths = (
{
closed = 1;
nodes = (
"287 702 LINE",
"508 889 LINE SMOOTH",
"701 1056 OFFCURVE",
"758 1142 OFFCURVE",
"758 1274 CURVE SMOOTH",
"758 1399 OFFCURVE",
"669 1481 OFFCURVE",
"524 1481 CURVE SMOOTH",
"425 1481 OFFCURVE",
"333 1447 OFFCURVE",
"250 1380 CURVE",
"309 1290 LINE",
"379 1343 OFFCURVE",
"444 1370 OFFCURVE",
"504 1370 CURVE SMOOTH",
"583 1370 OFFCURVE",
"625 1324 OFFCURVE",
"625 1253 CURVE SMOOTH",
"625 1190 OFFCURVE",
"600 1136 OFFCURVE",
"542 1070 CURVE SMOOTH",
"513 1037 OFFCURVE",
"460 987 OFFCURVE",
"383 920 CURVE SMOOTH",
"119 692 LINE",
"96 586 LINE",
"657 586 LINE",
"682 702 LINE"
);
}
);
width = 717;
}
);
note = twosuperior;
unicode = 00B2;
},
{
glyphname = threesuperior;
lastChange = "2017-04-22 20:56:27 +0000";
layers = (
{
layerId = "6A44F957-816A-4D1D-8CAD-45EB0FE52ECF";
paths = (
{
closed = 1;
nodes = (
"687 1076 OFFCURVE",
"756 1154 OFFCURVE",
"756 1274 CURVE SMOOTH",
"756 1401 OFFCURVE",
"666 1481 OFFCURVE",
"514 1481 CURVE SMOOTH",
"408 1481 OFFCURVE",
"319 1452 OFFCURVE",
"246 1393 CURVE",
"301 1300 LINE",
"364 1345 OFFCURVE",
"429 1368 OFFCURVE",
"497 1368 CURVE SMOOTH",
"576 1368 OFFCURVE",
"625 1327 OFFCURVE",
"625 1247 CURVE SMOOTH",
"625 1152 OFFCURVE",
"541 1094 OFFCURVE",
"412 1094 CURVE SMOOTH",
"317 1094 LINE",
"295 987 LINE",
"385 987 LINE SMOOTH",
"504 987 OFFCURVE",
"563 941 OFFCURVE",
"563 850 CURVE SMOOTH",
"563 737 OFFCURVE",
"495 680 OFFCURVE",
"358 680 CURVE SMOOTH",
"282 680 OFFCURVE",
"202 704 OFFCURVE",
"119 752 CURVE",
"119 625 LINE",
"191 588 OFFCURVE",
"269 569 OFFCURVE",
"352 569 CURVE SMOOTH",
"568 569 OFFCURVE",
"696 672 OFFCURVE",
"696 848 CURVE SMOOTH",
"696 940 OFFCURVE",
"641 1013 OFFCURVE",
"549 1036 CURVE",
"549 1040 LINE"
);
}
);
width = 717;
}
);
note = threesuperior;
unicode = 00B3;
},
{
glyphname = acute;
lastChange = "2017-04-22 20:56:27 +0000";
layers = (
{
layerId = "6A44F957-816A-4D1D-8CAD-45EB0FE52ECF";
paths = (
{
closed = 1;
nodes = (
"637 1241 LINE",
"737 1313 OFFCURVE",
"903 1483 OFFCURVE",
"954 1548 CURVE",
"954 1569 LINE",
"764 1569 LINE",
"715 1492 OFFCURVE",
"607 1348 OFFCURVE",
"532 1268 CURVE",
"532 1241 LINE"
);
}
);
width = 1135;
}
);
note = acute;
unicode = 00B4;
},
{
glyphname = mu;
lastChange = "2017-04-22 20:56:27 +0000";
layers = (
{
layerId = "6A44F957-816A-4D1D-8CAD-45EB0FE52ECF";
paths = (
{
closed = 1;
nodes = (
"295 295 OFFCURVE",
"301 340 OFFCURVE",
"313 401 CURVE SMOOTH",
"461 1096 LINE",
"293 1096 LINE",
"-43 -492 LINE",
"121 -492 LINE",
"169 -259 OFFCURVE",
"197 -119 OFFCURVE",
"205 -72 CURVE SMOOTH",
"212 -25 OFFCURVE",
"220 24 OFFCURVE",
"227 76 CURVE",
"236 76 LINE",
"270 12 OFFCURVE",
"324 -20 OFFCURVE",
"399 -20 CURVE SMOOTH",
"530 -20 OFFCURVE",
"646 44 OFFCURVE",
"770 205 CURVE",
"782 205 LINE",
"758 0 LINE",
"897 0 LINE",
"1130 1096 LINE",
"967 1096 LINE",
"862 618 LINE SMOOTH",
"839 513 OFFCURVE",
"806 424 OFFCURVE",
"763 349 CURVE SMOOTH",
"675 200 OFFCURVE",
"561 119 OFFCURVE",
"442 119 CURVE SMOOTH",
"344 119 OFFCURVE",
"295 168 OFFCURVE",
"295 266 CURVE SMOOTH"
);
}
);
width = 1194;
}
);
note = mu;
unicode = 00B5;
},
{
glyphname = paragraph;
lastChange = "2017-04-22 20:56:27 +0000";
layers = (
{
layerId = "6A44F957-816A-4D1D-8CAD-45EB0FE52ECF";
paths = (
{
closed = 1;
nodes = (
"649 1556 LINE SMOOTH",
"340 1556 OFFCURVE",
"199 1389 OFFCURVE",
"199 1042 CURVE SMOOTH",
"199 707 OFFCURVE",
"330 541 OFFCURVE",
"618 541 CURVE SMOOTH",
"674 541 OFFCURVE",
"723 547 OFFCURVE",
"764 559 CURVE",
"764 -260 LINE",
"879 -260 LINE",
"879 1401 LINE",
"1092 1401 LINE",
"1092 -260 LINE",
"1206 -260 LINE",
"1206 1556 LINE"
);
}
);
width = 1341;
}
);
note = paragraph;
unicode = 00B6;
},
{
glyphname = cedilla;
lastChange = "2017-04-22 20:56:27 +0000";
layers = (
{
layerId = "6A44F957-816A-4D1D-8CAD-45EB0FE52ECF";
paths = (
{
closed = 1;
nodes = (
"211 -198 OFFCURVE",
"167 -146 OFFCURVE",
"80 -121 CURVE",
"141 0 LINE",
"35 0 LINE",
"-66 -182 LINE",
"14 -193 OFFCURVE",
"72 -218 OFFCURVE",
"72 -279 CURVE SMOOTH",
"72 -352 OFFCURVE",
"14 -389 OFFCURVE",
"-102 -389 CURVE SMOOTH",
"-122 -389 OFFCURVE",
"-145 -387 OFFCURVE",
"-170 -383 CURVE",
"-170 -483 LINE",
"-140 -489 OFFCURVE",
"-111 -492 OFFCURVE",
"-84 -492 CURVE SMOOTH",
"93 -492 OFFCURVE",
"211 -407 OFFCURVE",
"211 -276 CURVE SMOOTH"
);
}
);
width = 420;
}
);
note = cedilla;
unicode = 00B8;
},
{
glyphname = onesuperior;
lastChange = "2017-04-22 20:56:27 +0000";
layers = (
{
layerId = "6A44F957-816A-4D1D-8CAD-45EB0FE52ECF";
paths = (
{
closed = 1;
nodes = (
"309 1190 LINE",
"389 1243 OFFCURVE",
"437 1276 OFFCURVE",
"454 1291 CURVE SMOOTH",
"471 1305 OFFCURVE",
"487 1320 OFFCURVE",
"504 1337 CURVE",
"482 1256 OFFCURVE",
"463 1181 OFFCURVE",
"446 1112 CURVE SMOOTH",
"334 586 LINE",
"469 586 LINE",
"655 1462 LINE",
"537 1462 LINE",
"258 1280 LINE"
);
}
);
width = 717;
}
);
note = onesuperior;
unicode = 00B9;
},
{
glyphname = ordmasculine;
lastChange = "2017-04-22 20:56:27 +0000";
layers = (
{
layerId = "6A44F957-816A-4D1D-8CAD-45EB0FE52ECF";
paths = (
{
closed = 1;
nodes = (
"745 1387 OFFCURVE",
"658 1479 OFFCURVE",
"502 1479 CURVE SMOOTH",
"436 1479 OFFCURVE",
"378 1461 OFFCURVE",
"328 1424 CURVE SMOOTH",
"227 1351 OFFCURVE",
"168 1211 OFFCURVE",
"168 1055 CURVE SMOOTH",
"168 888 OFFCURVE",
"265 788 OFFCURVE",
"416 788 CURVE SMOOTH",
"619 788 OFFCURVE",
"745 964 OFFCURVE",
"745 1219 CURVE SMOOTH"
);
},
{
closed = 1;
nodes = (
"591 1376 OFFCURVE",
"637 1321 OFFCURVE",
"637 1210 CURVE SMOOTH",
"637 1018 OFFCURVE",
"551 889 OFFCURVE",
"426 889 CURVE SMOOTH",
"334 889 OFFCURVE",
"281 946 OFFCURVE",
"281 1059 CURVE SMOOTH",
"281 1248 OFFCURVE",
"364 1376 OFFCURVE",
"500 1376 CURVE SMOOTH"
);
}
);
width = 688;
}
);
note = ordmasculine;
unicode = 00BA;
},
{
glyphname = guillemotright;
lastChange = "2017-04-22 20:56:27 +0000";
layers = (
{
layerId = "6A44F957-816A-4D1D-8CAD-45EB0FE52ECF";
paths = (
{
closed = 1;
nodes = (
"639 961 LINE",
"526 911 LINE",
"698 520 LINE",
"401 197 LINE",
"479 115 LINE",
"872 485 LINE",
"872 514 LINE"
);
},
{
closed = 1;
nodes = (
"260 961 LINE",
"147 911 LINE",
"305 557 LINE",
"23 197 LINE",
"109 127 LINE",
"477 528 LINE",
"477 559 LINE"
);
}
);
width = 958;
}
);
note = guillemotright;
unicode = 00BB;
},
{
glyphname = onequarter;
lastChange = "2017-04-23 14:33:26 +0000";
layers = (
{
layerId = "6A44F957-816A-4D1D-8CAD-45EB0FE52ECF";
paths = (
{
closed = 1;
nodes = (
"272 0 LINE",
"425 0 LINE",
"1511 1462 LINE",
"1357 1462 LINE"
);
},
{
closed = 1;
nodes = (
"430 1190 LINE",
"510 1243 OFFCURVE",
"558 1276 OFFCURVE",
"575 1291 CURVE SMOOTH",
"592 1306 OFFCURVE",
"608 1320 OFFCURVE",
"625 1337 CURVE",
"603 1256 OFFCURVE",
"582 1182 OFFCURVE",
"567 1112 CURVE SMOOTH",
"455 586 LINE",
"590 586 LINE",
"776 1462 LINE",
"658 1462 LINE",
"379 1280 LINE"
);
},
{
closed = 1;
nodes = (
"1301 319 LINE",
"1422 882 LINE",
"1289 882 LINE",
"808 303 LINE",
"785 202 LINE",
"1150 202 LINE",
"1107 0 LINE",
"1234 0 LINE",
"1277 202 LINE",
"1406 202 LINE",
"1428 319 LINE"
);
},
{
closed = 1;
nodes = (
"1154 565 LINE SMOOTH",
"1215 639 OFFCURVE",
"1251 690 OFFCURVE",
"1264 714 CURVE",
"1250 665 OFFCURVE",
"1220 534 OFFCURVE",
"1174 319 CURVE",
"949 319 LINE"
);
}
);
width = 1702;
}
);
note = onequarter;
unicode = 00BC;
},
{
glyphname = onehalf;
lastChange = "2017-04-23 14:34:14 +0000";
layers = (
{
layerId = "6A44F957-816A-4D1D-8CAD-45EB0FE52ECF";
paths = (
{
closed = 1;
nodes = (
"309 1190 LINE",
"389 1243 OFFCURVE",
"437 1276 OFFCURVE",
"454 1291 CURVE SMOOTH",
"471 1305 OFFCURVE",
"487 1320 OFFCURVE",
"504 1337 CURVE",
"482 1256 OFFCURVE",
"463 1181 OFFCURVE",
"446 1112 CURVE SMOOTH",
"334 586 LINE",
"469 586 LINE",
"655 1462 LINE",
"537 1462 LINE",
"258 1280 LINE"
);
},
{
closed = 1;
nodes = (
"230 0 LINE",
"383 0 LINE",
"1469 1462 LINE",
"1315 1462 LINE"
);
},
{
closed = 1;
nodes = (
"1161 116 LINE",
"1382 303 LINE SMOOTH",
"1577 468 OFFCURVE",
"1632 556 OFFCURVE",
"1632 688 CURVE SMOOTH",
"1632 813 OFFCURVE",
"1543 895 OFFCURVE",
"1398 895 CURVE SMOOTH",
"1299 895 OFFCURVE",
"1207 861 OFFCURVE",
"1124 794 CURVE",
"1183 704 LINE",
"1253 757 OFFCURVE",
"1318 784 OFFCURVE",
"1378 784 CURVE SMOOTH",
"1457 784 OFFCURVE",
"1499 738 OFFCURVE",
"1499 667 CURVE SMOOTH",
"1499 604 OFFCURVE",
"1474 550 OFFCURVE",
"1416 484 CURVE SMOOTH",
"1387 451 OFFCURVE",
"1334 401 OFFCURVE",
"1257 334 CURVE SMOOTH",
"993 106 LINE",
"970 0 LINE",
"1531 0 LINE",
"1556 116 LINE"
);
}
);
width = 1702;
}
);
note = onehalf;
unicode = 00BD;
},
{
glyphname = threequarters;
lastChange = "2017-04-23 14:35:08 +0000";
layers = (
{
layerId = "6A44F957-816A-4D1D-8CAD-45EB0FE52ECF";
paths = (
{
closed = 1;
nodes = (
"687 1076 OFFCURVE",
"756 1154 OFFCURVE",
"756 1274 CURVE SMOOTH",
"756 1401 OFFCURVE",
"666 1481 OFFCURVE",
"514 1481 CURVE SMOOTH",
"408 1481 OFFCURVE",
"319 1452 OFFCURVE",
"246 1393 CURVE",
"301 1300 LINE",
"364 1345 OFFCURVE",
"429 1368 OFFCURVE",
"497 1368 CURVE SMOOTH",
"576 1368 OFFCURVE",
"625 1327 OFFCURVE",
"625 1247 CURVE SMOOTH",
"625 1152 OFFCURVE",
"541 1094 OFFCURVE",
"412 1094 CURVE SMOOTH",
"317 1094 LINE",
"295 987 LINE",
"385 987 LINE SMOOTH",
"504 987 OFFCURVE",
"563 941 OFFCURVE",
"563 850 CURVE SMOOTH",
"563 737 OFFCURVE",
"495 680 OFFCURVE",
"358 680 CURVE SMOOTH",
"282 680 OFFCURVE",
"202 704 OFFCURVE",
"119 752 CURVE",
"119 625 LINE",
"191 588 OFFCURVE",
"269 569 OFFCURVE",
"352 569 CURVE SMOOTH",
"568 569 OFFCURVE",
"696 672 OFFCURVE",
"696 848 CURVE SMOOTH",
"696 940 OFFCURVE",
"641 1013 OFFCURVE",
"549 1036 CURVE",
"549 1040 LINE"
);
},
{
closed = 1;
nodes = (
"304 0 LINE",
"457 0 LINE",
"1543 1462 LINE",
"1389 1462 LINE"
);
},
{
closed = 1;
nodes = (
"1350 319 LINE",
"1471 882 LINE",
"1338 882 LINE",
"857 303 LINE",
"834 202 LINE",
"1199 202 LINE",
"1156 0 LINE",
"1283 0 LINE",
"1326 202 LINE",
"1455 202 LINE",
"1477 319 LINE"
);
},
{
closed = 1;
nodes = (
"1203 565 LINE SMOOTH",
"1264 639 OFFCURVE",
"1300 690 OFFCURVE",
"1313 714 CURVE",
"1299 665 OFFCURVE",
"1269 534 OFFCURVE",
"1223 319 CURVE",
"998 319 LINE"
);
}
);
width = 1702;
}
);
note = threequarters;
unicode = 00BE;
},
{
glyphname = questiondown;
lastChange = "2017-04-22 20:56:27 +0000";
layers = (
{
layerId = "6A44F957-816A-4D1D-8CAD-45EB0FE52ECF";
paths = (
{
closed = 1;
nodes = (
"493 547 OFFCURVE",
"463 504 OFFCURVE",
"287 373 CURVE SMOOTH",
"75 214 OFFCURVE",
"-4 87 OFFCURVE",
"-4 -78 CURVE SMOOTH",
"-4 -283 OFFCURVE",
"122 -399 OFFCURVE",
"346 -399 CURVE SMOOTH",
"462 -399 OFFCURVE",
"601 -363 OFFCURVE",
"721 -299 CURVE",
"659 -170 LINE",
"571 -211 OFFCURVE",
"472 -252 OFFCURVE",
"365 -252 CURVE SMOOTH",
"237 -252 OFFCURVE",
"166 -181 OFFCURVE",
"166 -57 CURVE SMOOTH",
"166 42 OFFCURVE",
"219 133 OFFCURVE",
"325 218 CURVE SMOOTH",
"420 293 LINE SMOOTH",
"573 417 OFFCURVE",
"628 507 OFFCURVE",
"657 680 CURVE",
"522 680 LINE"
);
},
{
closed = 1;
nodes = (
"760 1078 OFFCURVE",
"722 1112 OFFCURVE",
"659 1112 CURVE SMOOTH",
"570 1112 OFFCURVE",
"512 1041 OFFCURVE",
"512 946 CURVE SMOOTH",
"512 877 OFFCURVE",
"551 842 OFFCURVE",
"608 842 CURVE SMOOTH",
"703 842 OFFCURVE",
"760 907 OFFCURVE",
"760 1010 CURVE SMOOTH"
);
}
);
width = 874;
}
);
note = questiondown;
unicode = 00BF;
},
{
glyphname = AE;
lastChange = "2017-05-14 16:29:54 +0000";
layers = (
{
anchors = (
{
name = bottom;
position = "{721, 0}";
},
{
name = top;
position = "{1031, 1462}";
}
);
layerId = "6A44F957-816A-4D1D-8CAD-45EB0FE52ECF";
paths = (
{
closed = 1;
nodes = (
"915 152 LINE",
"1030 690 LINE",
"1559 690 LINE",
"1587 840 LINE",
"1059 840 LINE",
"1159 1309 LINE",
"1724 1309 LINE",
"1757 1462 LINE",
"819 1462 LINE",
"-119 0 LINE",
"78 0 LINE",
"371 465 LINE",
"809 465 LINE",
"711 0 LINE",
"1448 0 LINE",
"1481 152 LINE"
);
},
{
closed = 1;
nodes = (
"903 1309 LINE",
"987 1309 LINE",
"840 621 LINE",
"469 621 LINE"
);
}
);
width = 1673;
}
);
note = AE;
unicode = 00C6;
},
{
glyphname = Eth;
lastChange = "2017-04-22 20:56:27 +0000";
layers = (
{
layerId = "6A44F957-816A-4D1D-8CAD-45EB0FE52ECF";
paths = (
{
closed = 1;
nodes = (
"1300 1258 OFFCURVE",
"1105 1462 OFFCURVE",
"737 1462 CURVE SMOOTH",
"395 1462 LINE",
"254 799 LINE",
"104 799 LINE",
"72 649 LINE",
"221 649 LINE",
"86 0 LINE",
"438 0 LINE SMOOTH",
"613 0 OFFCURVE",
"765 36 OFFCURVE",
"895 108 CURVE SMOOTH",
"1155 252 OFFCURVE",
"1300 529 OFFCURVE",
"1300 877 CURVE SMOOTH"
);
},
{
closed = 1;
nodes = (
"393 649 LINE",
"723 649 LINE",
"756 799 LINE",
"426 799 LINE",
"537 1315 LINE",
"715 1315 LINE SMOOTH",
"980 1315 OFFCURVE",
"1120 1166 OFFCURVE",
"1120 879 CURVE SMOOTH",
"1120 736 OFFCURVE",
"1093 608 OFFCURVE",
"1039 497 CURVE SMOOTH",
"930 274 OFFCURVE",
"718 147 OFFCURVE",
"449 147 CURVE SMOOTH",
"287 147 LINE"
);
}
);
width = 1364;
}
);
note = Eth;
unicode = 00D0;
},
{
glyphname = multiply;
lastChange = "2017-04-22 20:56:27 +0000";
layers = (
{
layerId = "6A44F957-816A-4D1D-8CAD-45EB0FE52ECF";
paths = (
{
closed = 1;
nodes = (
"266 307 LINE",
"586 625 LINE",
"909 305 LINE",
"1006 401 LINE",
"684 723 LINE",
"1008 1047 LINE",
"909 1143 LINE",
"586 823 LINE",
"266 1143 LINE",
"168 1044 LINE",
"487 723 LINE",
"170 403 LINE"
);
}
);
width = 1128;
}
);
note = multiply;
unicode = 00D7;
},
{
glyphname = Oslash;
lastChange = "2017-05-14 16:29:54 +0000";
layers = (
{
anchors = (
{
name = bottom;
position = "{622, 0}";
},
{
name = top;
position = "{932, 1462}";
}
);
layerId = "6A44F957-816A-4D1D-8CAD-45EB0FE52ECF";
paths = (
{
closed = 1;
nodes = (
"1411 1050 OFFCURVE",
"1377 1181 OFFCURVE",
"1313 1264 CURVE",
"1462 1448 LINE",
"1348 1540 LINE",
"1217 1374 LINE",
"1121 1450 OFFCURVE",
"1019 1485 OFFCURVE",
"887 1485 CURVE SMOOTH",
"747 1485 OFFCURVE",
"621 1446 OFFCURVE",
"510 1367 CURVE SMOOTH",
"286 1210 OFFCURVE",
"150 901 OFFCURVE",
"150 549 CURVE SMOOTH",
"150 392 OFFCURVE",
"185 269 OFFCURVE",
"256 178 CURVE",
"119 8 LINE",
"231 -84 LINE",
"360 76 LINE",
"448 12 OFFCURVE",
"559 -20 OFFCURVE",
"692 -20 CURVE SMOOTH",
"835 -20 OFFCURVE",
"962 19 OFFCURVE",
"1071 97 CURVE SMOOTH",
"1290 252 OFFCURVE",
"1411 548 OFFCURVE",
"1411 907 CURVE SMOOTH"
);
},
{
closed = 1;
nodes = (
"971 1333 OFFCURVE",
"1050 1304 OFFCURVE",
"1110 1245 CURVE",
"373 326 LINE",
"346 387 OFFCURVE",
"332 463 OFFCURVE",
"332 553 CURVE SMOOTH",
"332 698 OFFCURVE",
"355 831 OFFCURVE",
"401 951 CURVE SMOOTH",
"492 1191 OFFCURVE",
"665 1333 OFFCURVE",
"874 1333 CURVE SMOOTH"
);
},
{
closed = 1;
nodes = (
"1229 764 OFFCURVE",
"1206 629 OFFCURVE",
"1159 508 CURVE SMOOTH",
"1066 265 OFFCURVE",
"899 131 OFFCURVE",
"696 131 CURVE SMOOTH",
"601 131 OFFCURVE",
"524 156 OFFCURVE",
"463 205 CURVE",
"1196 1116 LINE",
"1218 1058 OFFCURVE",
"1229 990 OFFCURVE",
"1229 911 CURVE SMOOTH"
);
}
);
width = 1475;
}
);
note = Oslash;
unicode = 00D8;
},
{
glyphname = Thorn;
lastChange = "2017-05-14 16:29:54 +0000";
layers = (
{
anchors = (
{
name = bottom;
position = "{464, 0}";
},
{
name = top;
position = "{774, 1462}";
}
);
layerId = "6A44F957-816A-4D1D-8CAD-45EB0FE52ECF";
paths = (
{
closed = 1;
nodes = (
"1106 1078 OFFCURVE",
"956 1206 OFFCURVE",
"672 1206 CURVE SMOOTH",
"512 1206 LINE",
"565 1462 LINE",
"395 1462 LINE",
"86 0 LINE",
"256 0 LINE",
"326 319 LINE",
"459 319 LINE SMOOTH",
"884 319 OFFCURVE",
"1106 498 OFFCURVE",
"1106 829 CURVE SMOOTH"
);
},
{
closed = 1;
nodes = (
"645 1059 LINE SMOOTH",
"838 1059 OFFCURVE",
"930 991 OFFCURVE",
"930 823 CURVE SMOOTH",
"930 588 OFFCURVE",
"776 465 OFFCURVE",
"489 465 CURVE SMOOTH",
"354 465 LINE",
"479 1059 LINE"
);
}
);
width = 1159;
}
);
note = Thorn;
unicode = 00DE;
},
{
glyphname = germandbls;
lastChange = "2017-05-14 16:29:54 +0000";
layers = (
{
anchors = (
{
name = bottom;
position = "{475, 0}";
},
{
name = top;
position = "{707, 1096}";
}
);
layerId = "6A44F957-816A-4D1D-8CAD-45EB0FE52ECF";
paths = (
{
closed = 1;
nodes = (
"40 -492 OFFCURVE",
"146 -381 OFFCURVE",
"199 -129 CURVE SMOOTH",
"473 1174 LINE SMOOTH",
"510 1345 OFFCURVE",
"595 1427 OFFCURVE",
"754 1427 CURVE SMOOTH",
"873 1427 OFFCURVE",
"948 1375 OFFCURVE",
"948 1290 CURVE SMOOTH",
"948 1241 OFFCURVE",
"924 1197 OFFCURVE",
"883 1155 CURVE SMOOTH",
"862 1134 OFFCURVE",
"825 1104 OFFCURVE",
"772 1067 CURVE SMOOTH",
"710 1021 OFFCURVE",
"669 986 OFFCURVE",
"648 963 CURVE SMOOTH",
"607 915 OFFCURVE",
"580 859 OFFCURVE",
"580 788 CURVE SMOOTH",
"580 708 OFFCURVE",
"620 641 OFFCURVE",
"737 549 CURVE SMOOTH",
"781 512 OFFCURVE",
"811 485 OFFCURVE",
"826 466 CURVE SMOOTH",
"857 429 OFFCURVE",
"870 389 OFFCURVE",
"870 336 CURVE SMOOTH",
"870 201 OFFCURVE",
"772 119 OFFCURVE",
"621 119 CURVE SMOOTH",
"538 119 OFFCURVE",
"441 156 OFFCURVE",
"373 211 CURVE",
"373 51 LINE",
"435 4 OFFCURVE",
"524 -20 OFFCURVE",
"641 -20 CURVE SMOOTH",
"886 -20 OFFCURVE",
"1042 121 OFFCURVE",
"1042 354 CURVE SMOOTH",
"1042 399 OFFCURVE",
"1034 440 OFFCURVE",
"1017 478 CURVE SMOOTH",
"983 553 OFFCURVE",
"899 630 OFFCURVE",
"836 675 CURVE SMOOTH",
"773 719 OFFCURVE",
"741 760 OFFCURVE",
"741 797 CURVE SMOOTH",
"741 842 OFFCURVE",
"778 893 OFFCURVE",
"851 948 CURVE SMOOTH",
"943 1018 OFFCURVE",
"1003 1068 OFFCURVE",
"1030 1099 CURVE SMOOTH",
"1084 1159 OFFCURVE",
"1112 1224 OFFCURVE",
"1112 1300 CURVE SMOOTH",
"1112 1467 OFFCURVE",
"986 1567 OFFCURVE",
"770 1567 CURVE SMOOTH",
"511 1567 OFFCURVE",
"364 1436 OFFCURVE",
"307 1169 CURVE SMOOTH",
"27 -145 LINE SMOOTH",
"-4 -292 OFFCURVE",
"-58 -350 OFFCURVE",
"-145 -350 CURVE SMOOTH",
"-178 -350 OFFCURVE",
"-215 -343 OFFCURVE",
"-256 -328 CURVE",
"-256 -471 LINE",
"-220 -485 OFFCURVE",
"-179 -492 OFFCURVE",
"-133 -492 CURVE SMOOTH"
);
}
);
width = 1182;
}
);
note = germandbls;
unicode = 00DF;
},
{
glyphname = ae;
lastChange = "2017-05-14 16:29:54 +0000";
layers = (
{
anchors = (
{
name = bottom;
position = "{719, 0}";
},
{
name = top;
position = "{951, 1096}";
}
);
layerId = "6A44F957-816A-4D1D-8CAD-45EB0FE52ECF";
paths = (
{
closed = 1;
nodes = (
"1274 -20 OFFCURVE",
"1384 5 OFFCURVE",
"1493 55 CURVE",
"1493 205 LINE",
"1337 137 OFFCURVE",
"1271 121 OFFCURVE",
"1198 121 CURVE SMOOTH",
"1023 121 OFFCURVE",
"942 224 OFFCURVE",
"942 399 CURVE",
"946 479 LINE",
"985 479 LINE SMOOTH",
"1393 479 OFFCURVE",
"1624 621 OFFCURVE",
"1624 864 CURVE SMOOTH",
"1624 1019 OFFCURVE",
"1517 1116 OFFCURVE",
"1358 1116 CURVE SMOOTH",
"1219 1116 OFFCURVE",
"1108 1061 OFFCURVE",
"1026 950 CURVE",
"1057 1096 LINE",
"948 1096 LINE",
"881 924 LINE",
"870 924 LINE",
"818 1051 OFFCURVE",
"732 1116 OFFCURVE",
"623 1116 CURVE SMOOTH",
"528 1116 OFFCURVE",
"441 1082 OFFCURVE",
"360 1014 CURVE SMOOTH",
"199 878 OFFCURVE",
"98 623 OFFCURVE",
"98 348 CURVE SMOOTH",
"98 121 OFFCURVE",
"195 -20 OFFCURVE",
"358 -20 CURVE SMOOTH",
"485 -20 OFFCURVE",
"582 33 OFFCURVE",
"727 209 CURVE",
"735 209 LINE",
"709 0 LINE",
"823 0 LINE",
"854 139 LINE",
"907 32 OFFCURVE",
"1021 -20 OFFCURVE",
"1165 -20 CURVE SMOOTH"
);
},
{
closed = 1;
nodes = (
"321 119 OFFCURVE",
"270 196 OFFCURVE",
"270 348 CURVE SMOOTH",
"270 457 OFFCURVE",
"287 560 OFFCURVE",
"320 657 CURVE SMOOTH",
"387 850 OFFCURVE",
"513 975 OFFCURVE",
"645 975 CURVE SMOOTH",
"748 975 OFFCURVE",
"813 887 OFFCURVE",
"813 750 CURVE SMOOTH",
"813 650 OFFCURVE",
"793 550 OFFCURVE",
"754 451 CURVE SMOOTH",
"674 252 OFFCURVE",
"539 119 OFFCURVE",
"412 119 CURVE SMOOTH"
);
},
{
closed = 1;
nodes = (
"1409 973 OFFCURVE",
"1458 927 OFFCURVE",
"1458 846 CURVE SMOOTH",
"1458 698 OFFCURVE",
"1288 618 OFFCURVE",
"987 618 CURVE SMOOTH",
"973 618 LINE",
"1036 839 OFFCURVE",
"1169 973 OFFCURVE",
"1325 973 CURVE SMOOTH"
);
}
);
width = 1669;
}
);
note = ae;
unicode = 00E6;
},
{
glyphname = eth;
lastChange = "2017-04-22 20:56:27 +0000";
layers = (
{
layerId = "6A44F957-816A-4D1D-8CAD-45EB0FE52ECF";
paths = (
{
closed = 1;
nodes = (
"494 1104 LINE",
"764 1253 LINE",
"863 1129 OFFCURVE",
"911 997 OFFCURVE",
"911 816 CURVE SMOOTH",
"911 799 LINE",
"905 797 LINE",
"858 902 OFFCURVE",
"752 967 OFFCURVE",
"612 967 CURVE SMOOTH",
"513 967 OFFCURVE",
"424 941 OFFCURVE",
"345 888 CURVE SMOOTH",
"185 783 OFFCURVE",
"90 586 OFFCURVE",
"90 373 CURVE SMOOTH",
"90 126 OFFCURVE",
"234 -20 OFFCURVE",
"477 -20 CURVE SMOOTH",
"597 -20 OFFCURVE",
"701 13 OFFCURVE",
"789 78 CURVE SMOOTH",
"964 209 OFFCURVE",
"1063 480 OFFCURVE",
"1063 817 CURVE SMOOTH",
"1063 1009 OFFCURVE",
"1013 1174 OFFCURVE",
"897 1327 CURVE",
"1137 1460 LINE",
"1073 1565 LINE",
"813 1419 LINE",
"766 1466 OFFCURVE",
"704 1517 OFFCURVE",
"625 1573 CURVE",
"530 1456 LINE",
"583 1419 OFFCURVE",
"632 1382 OFFCURVE",
"676 1343 CURVE",
"438 1212 LINE"
);
},
{
closed = 1;
nodes = (
"340 121 OFFCURVE",
"262 209 OFFCURVE",
"262 377 CURVE SMOOTH",
"262 462 OFFCURVE",
"277 540 OFFCURVE",
"306 609 CURVE SMOOTH",
"364 747 OFFCURVE",
"473 827 OFFCURVE",
"618 827 CURVE SMOOTH",
"769 827 OFFCURVE",
"862 728 OFFCURVE",
"862 571 CURVE SMOOTH",
"862 495 OFFCURVE",
"845 420 OFFCURVE",
"811 345 CURVE SMOOTH",
"743 196 OFFCURVE",
"630 121 OFFCURVE",
"487 121 CURVE SMOOTH"
);
}
);
width = 1165;
}
);
note = eth;
unicode = 00F0;
},
{
glyphname = divide;
lastChange = "2017-04-22 20:56:27 +0000";
layers = (
{
layerId = "6A44F957-816A-4D1D-8CAD-45EB0FE52ECF";
paths = (
{
closed = 1;
nodes = (
"1047 793 LINE",
"127 793 LINE",
"127 651 LINE",
"1047 651 LINE"
);
},
{
closed = 1;
nodes = (
"475 294 OFFCURVE",
"517 252 OFFCURVE",
"586 252 CURVE SMOOTH",
"655 252 OFFCURVE",
"698 296 OFFCURVE",
"698 373 CURVE SMOOTH",
"698 453 OFFCURVE",
"657 494 OFFCURVE",
"586 494 CURVE SMOOTH",
"512 494 OFFCURVE",
"475 454 OFFCURVE",
"475 373 CURVE SMOOTH"
);
},
{
closed = 1;
nodes = (
"475 992 OFFCURVE",
"517 950 OFFCURVE",
"586 950 CURVE SMOOTH",
"655 950 OFFCURVE",
"698 994 OFFCURVE",
"698 1071 CURVE SMOOTH",
"698 1151 OFFCURVE",
"657 1192 OFFCURVE",
"586 1192 CURVE SMOOTH",
"512 1192 OFFCURVE",
"475 1152 OFFCURVE",
"475 1071 CURVE SMOOTH"
);
}
);
width = 1128;
}
);
note = divide;
unicode = 00F7;
},
{
glyphname = oslash;
lastChange = "2017-05-14 16:29:54 +0000";
layers = (
{
anchors = (
{
name = top;
position = "{691, 1096}";
}
);
layerId = "6A44F957-816A-4D1D-8CAD-45EB0FE52ECF";
paths = (
{
closed = 1;
nodes = (
"1047 812 OFFCURVE",
"1026 898 OFFCURVE",
"985 963 CURVE",
"1104 1092 LINE",
"999 1171 LINE",
"895 1042 LINE",
"824 1087 OFFCURVE",
"740 1110 OFFCURVE",
"643 1110 CURVE SMOOTH",
"543 1110 OFFCURVE",
"452 1081 OFFCURVE",
"371 1022 CURVE SMOOTH",
"208 905 OFFCURVE",
"102 665 OFFCURVE",
"102 406 CURVE SMOOTH",
"102 298 OFFCURVE",
"125 210 OFFCURVE",
"170 141 CURVE",
"61 6 LINE",
"166 -76 LINE",
"264 49 LINE",
"331 6 OFFCURVE",
"413 -16 OFFCURVE",
"510 -16 CURVE SMOOTH",
"613 -16 OFFCURVE",
"705 16 OFFCURVE",
"786 79 CURVE SMOOTH",
"949 206 OFFCURVE",
"1047 453 OFFCURVE",
"1047 705 CURVE SMOOTH"
);
},
{
closed = 1;
nodes = (
"712 971 OFFCURVE",
"763 955 OFFCURVE",
"799 924 CURVE",
"281 279 LINE",
"270 309 OFFCURVE",
"264 355 OFFCURVE",
"264 416 CURVE SMOOTH",
"264 517 OFFCURVE",
"281 610 OFFCURVE",
"314 696 CURVE SMOOTH",
"381 868 OFFCURVE",
"503 971 OFFCURVE",
"647 971 CURVE SMOOTH"
);
},
{
closed = 1;
nodes = (
"885 577 OFFCURVE",
"869 479 OFFCURVE",
"838 393 CURVE SMOOTH",
"774 221 OFFCURVE",
"653 121 OFFCURVE",
"516 121 CURVE SMOOTH",
"449 121 OFFCURVE",
"396 136 OFFCURVE",
"358 166 CURVE",
"872 807 LINE",
"881 784 OFFCURVE",
"885 744 OFFCURVE",
"885 688 CURVE SMOOTH"
);
}
);
width = 1149;
}
);
note = oslash;
unicode = 00F8;
},
{
glyphname = thorn;
lastChange = "2017-05-14 16:29:54 +0000";
layers = (
{
anchors = (
{
name = bottom;
position = "{475, 0}";
},
{
name = top;
position = "{707, 1096}";
}
);
layerId = "6A44F957-816A-4D1D-8CAD-45EB0FE52ECF";
paths = (
{
closed = 1;
nodes = (
"648 -20 OFFCURVE",
"740 13 OFFCURVE",
"821 79 CURVE SMOOTH",
"984 210 OFFCURVE",
"1081 460 OFFCURVE",
"1081 743 CURVE SMOOTH",
"1081 978 OFFCURVE",
"969 1114 OFFCURVE",
"784 1114 CURVE SMOOTH",
"657 1114 OFFCURVE",
"547 1052 OFFCURVE",
"412 885 CURVE",
"403 885 LINE",
"416 930 OFFCURVE",
"429 980 OFFCURVE",
"442 1034 CURVE SMOOTH",
"455 1088 OFFCURVE",
"494 1262 OFFCURVE",
"557 1556 CURVE",
"389 1556 LINE",
"-43 -492 LINE",
"123 -492 LINE",
"225 -6 LINE SMOOTH",
"236 42 OFFCURVE",
"245 101 OFFCURVE",
"250 170 CURVE",
"260 170 LINE",
"312 53 OFFCURVE",
"414 -20 OFFCURVE",
"545 -20 CURVE SMOOTH"
);
},
{
closed = 1;
nodes = (
"850 975 OFFCURVE",
"909 899 OFFCURVE",
"909 748 CURVE SMOOTH",
"909 636 OFFCURVE",
"892 530 OFFCURVE",
"857 431 CURVE SMOOTH",
"788 231 OFFCURVE",
"667 119 OFFCURVE",
"535 119 CURVE SMOOTH",
"395 119 OFFCURVE",
"319 199 OFFCURVE",
"319 346 CURVE SMOOTH",
"319 447 OFFCURVE",
"339 545 OFFCURVE",
"378 641 CURVE SMOOTH",
"456 833 OFFCURVE",
"603 975 OFFCURVE",
"731 975 CURVE SMOOTH"
);
}
);
width = 1182;
}
);
note = thorn;
unicode = 00FE;
},
{
glyphname = dcroat;
lastChange = "2017-04-22 20:56:27 +0000";
layers = (
{
layerId = "6A44F957-816A-4D1D-8CAD-45EB0FE52ECF";
paths = (
{
closed = 1;
nodes = (
"532 1122 OFFCURVE",
"439 1088 OFFCURVE",
"357 1020 CURVE SMOOTH",
"193 884 OFFCURVE",
"98 634 OFFCURVE",
"98 350 CURVE SMOOTH",
"98 118 OFFCURVE",
"208 -20 OFFCURVE",
"393 -20 CURVE SMOOTH",
"518 -20 OFFCURVE",
"629 42 OFFCURVE",
"764 209 CURVE",
"772 209 LINE",
"750 0 LINE",
"889 0 LINE",
"1151 1241 LINE",
"1300 1241 LINE",
"1327 1370 LINE",
"1178 1370 LINE",
"1219 1556 LINE",
"1053 1556 LINE",
"1014 1370 LINE",
"637 1370 LINE",
"610 1241 LINE",
"983 1241 LINE",
"956 1114 LINE",
"941 1019 LINE",
"930 932 LINE",
"920 932 LINE",
"865 1052 OFFCURVE",
"764 1122 OFFCURVE",
"635 1122 CURVE SMOOTH"
);
},
{
closed = 1;
nodes = (
"330 119 OFFCURVE",
"270 195 OFFCURVE",
"270 346 CURVE SMOOTH",
"270 460 OFFCURVE",
"287 567 OFFCURVE",
"322 666 CURVE SMOOTH",
"390 865 OFFCURVE",
"508 983 OFFCURVE",
"645 983 CURVE SMOOTH",
"781 983 OFFCURVE",
"860 903 OFFCURVE",
"860 754 CURVE SMOOTH",
"860 653 OFFCURVE",
"841 555 OFFCURVE",
"802 458 CURVE SMOOTH",
"725 264 OFFCURVE",
"574 119 OFFCURVE",
"449 119 CURVE SMOOTH"
);
}
);
width = 1182;
}
);
note = dcroat;
unicode = 0111;
},
{
glyphname = Hbar;
lastChange = "2017-04-22 20:56:27 +0000";
layers = (
{
layerId = "6A44F957-816A-4D1D-8CAD-45EB0FE52ECF";
paths = (
{
closed = 1;
nodes = (
"1227 1462 LINE",
"1171 1212 LINE",
"512 1212 LINE",
"565 1462 LINE",
"395 1462 LINE",
"342 1212 LINE",
"156 1212 LINE",
"125 1069 LINE",
"311 1069 LINE",
"86 0 LINE",
"256 0 LINE",
"401 688 LINE",
"1061 688 LINE",
"918 0 LINE",
"1090 0 LINE",
"1315 1069 LINE",
"1505 1069 LINE",
"1534 1212 LINE",
"1348 1212 LINE",
"1399 1462 LINE"
);
},
{
closed = 1;
nodes = (
"481 1069 LINE",
"1143 1069 LINE",
"1094 840 LINE",
"434 840 LINE"
);
}
);
width = 1389;
}
);
note = Hbar;
unicode = 0126;
},
{
glyphname = hbar;
lastChange = "2017-04-22 20:56:27 +0000";
layers = (
{
layerId = "6A44F957-816A-4D1D-8CAD-45EB0FE52ECF";
paths = (
{
closed = 1;
nodes = (
"1038 657 LINE SMOOTH",
"1053 729 OFFCURVE",
"1061 784 OFFCURVE",
"1061 823 CURVE SMOOTH",
"1061 1002 OFFCURVE",
"965 1104 OFFCURVE",
"786 1104 CURVE SMOOTH",
"647 1104 OFFCURVE",
"522 1027 OFFCURVE",
"412 874 CURVE",
"401 874 LINE",
"489 1241 LINE",
"838 1241 LINE",
"866 1370 LINE",
"516 1370 LINE",
"557 1556 LINE",
"389 1556 LINE",
"350 1370 LINE",
"201 1370 LINE",
"172 1241 LINE",
"324 1241 LINE",
"59 0 LINE",
"227 0 LINE",
"324 463 LINE SMOOTH",
"346 568 OFFCURVE",
"379 658 OFFCURVE",
"422 733 CURVE SMOOTH",
"509 883 OFFCURVE",
"628 965 OFFCURVE",
"745 965 CURVE SMOOTH",
"844 965 OFFCURVE",
"893 914 OFFCURVE",
"893 813 CURVE SMOOTH",
"893 782 OFFCURVE",
"887 737 OFFCURVE",
"874 678 CURVE SMOOTH",
"729 0 LINE",
"897 0 LINE"
);
}
);
width = 1182;
}
);
note = hbar;
unicode = 0127;
},
{
glyphname = dotlessi;
lastChange = "2017-05-14 16:29:54 +0000";
layers = (
{
anchors = (
{
name = bottom;
position = "{144, 0}";
},
{
name = ogonek;
position = "{352, 10}";
},
{
name = top;
position = "{376, 1096}";
}
);
layerId = "6A44F957-816A-4D1D-8CAD-45EB0FE52ECF";
paths = (
{
closed = 1;
nodes = (
"293 1096 LINE",
"59 0 LINE",
"227 0 LINE",
"461 1096 LINE"
);
}
);
width = 520;
}
);
note = dotlessi;
unicode = 0131;
},
{
glyphname = kgreenlandic;
lastChange = "2017-05-14 16:29:54 +0000";
layers = (
{
anchors = (
{
name = bottom;
position = "{384, 0}";
},
{
name = top;
position = "{616, 1096}";
}
);
layerId = "6A44F957-816A-4D1D-8CAD-45EB0FE52ECF";
paths = (
{
closed = 1;
nodes = (
"359 670 OFFCURVE",
"379 735 OFFCURVE",
"384 755 CURVE SMOOTH",
"389 774 OFFCURVE",
"393 794 OFFCURVE",
"397 815 CURVE SMOOTH",
"459 1096 LINE",
"289 1096 LINE",
"57 0 LINE",
"227 0 LINE",
"309 401 LINE",
"461 524 LINE",
"696 0 LINE",
"883 0 LINE",
"588 629 LINE",
"1057 1096 LINE",
"856 1096 LINE",
"330 559 LINE",
"326 559 LINE"
);
}
);
width = 999;
}
);
note = kgreenlandic;
unicode = 0138;
},
{
glyphname = Lslash;
lastChange = "2017-04-22 20:56:27 +0000";
layers = (
{
layerId = "6A44F957-816A-4D1D-8CAD-45EB0FE52ECF";
paths = (
{
closed = 1;
nodes = (
"854 154 LINE",
"289 154 LINE",
"387 618 LINE",
"717 809 LINE",
"657 915 LINE",
"420 780 LINE",
"565 1462 LINE",
"393 1462 LINE",
"225 668 LINE",
"23 551 LINE",
"82 442 LINE",
"193 506 LINE",
"84 0 LINE",
"821 0 LINE"
);
}
);
width = 971;
}
);
note = Lslash;
unicode = 0141;
},
{
glyphname = lslash;
lastChange = "2017-04-22 20:56:27 +0000";
layers = (
{
layerId = "6A44F957-816A-4D1D-8CAD-45EB0FE52ECF";
paths = (
{
closed = 1;
nodes = (
"385 1556 LINE",
"213 756 LINE",
"4 629 LINE",
"61 524 LINE",
"180 596 LINE",
"53 0 LINE",
"221 0 LINE",
"373 713 LINE",
"586 840 LINE",
"532 944 LINE",
"408 870 LINE",
"553 1556 LINE"
);
}
);
width = 512;
}
);
note = lslash;
unicode = 0142;
},
{
glyphname = Eng;
lastChange = "2017-04-22 20:56:27 +0000";
layers = (
{
layerId = "6A44F957-816A-4D1D-8CAD-45EB0FE52ECF";
paths = (
{
closed = 1;
nodes = (
"944 -383 OFFCURVE",
"1084 -255 OFFCURVE",
"1139 0 CURVE SMOOTH",
"1448 1462 LINE",
"1282 1462 LINE",
"1164 915 OFFCURVE",
"1097 596 OFFCURVE",
"1081 506 CURVE SMOOTH",
"1064 416 OFFCURVE",
"1049 330 OFFCURVE",
"1036 248 CURVE",
"1030 248 LINE",
"575 1462 LINE",
"393 1462 LINE",
"84 0 LINE",
"246 0 LINE",
"418 805 LINE SMOOTH",
"439 907 OFFCURVE",
"463 1046 OFFCURVE",
"489 1223 CURVE",
"498 1223 LINE",
"969 0 LINE",
"938 -148 OFFCURVE",
"853 -231 OFFCURVE",
"717 -231 CURVE SMOOTH",
"662 -231 OFFCURVE",
"614 -224 OFFCURVE",
"571 -211 CURVE",
"563 -358 LINE",
"596 -375 OFFCURVE",
"648 -383 OFFCURVE",
"717 -383 CURVE SMOOTH"
);
}
);
width = 1438;
}
);
note = Eng;
unicode = 014A;
},
{
glyphname = eng;
lastChange = "2017-04-22 20:56:27 +0000";
layers = (
{
layerId = "6A44F957-816A-4D1D-8CAD-45EB0FE52ECF";
paths = (
{
closed = 1;
nodes = (
"716 -492 OFFCURVE",
"816 -393 OFFCURVE",
"864 -164 CURVE SMOOTH",
"1042 672 LINE SMOOTH",
"1057 741 OFFCURVE",
"1065 801 OFFCURVE",
"1065 852 CURVE SMOOTH",
"1065 1019 OFFCURVE",
"960 1116 OFFCURVE",
"791 1116 CURVE SMOOTH",
"663 1116 OFFCURVE",
"548 1056 OFFCURVE",
"420 893 CURVE",
"410 893 LINE",
"432 1096 LINE",
"293 1096 LINE",
"59 0 LINE",
"227 0 LINE",
"328 475 LINE SMOOTH",
"350 580 OFFCURVE",
"383 670 OFFCURVE",
"426 744 CURVE SMOOTH",
"512 892 OFFCURVE",
"629 975 OFFCURVE",
"748 975 CURVE SMOOTH",
"852 975 OFFCURVE",
"897 920 OFFCURVE",
"897 836 CURVE SMOOTH",
"897 809 OFFCURVE",
"890 761 OFFCURVE",
"877 692 CURVE SMOOTH",
"698 -145 LINE SMOOTH",
"670 -283 OFFCURVE",
"615 -352 OFFCURVE",
"532 -352 CURVE SMOOTH",
"496 -352 OFFCURVE",
"457 -345 OFFCURVE",
"414 -330 CURVE",
"414 -471 LINE",
"451 -485 OFFCURVE",
"492 -492 OFFCURVE",
"537 -492 CURVE SMOOTH"
);
}
);
width = 1182;
}
);
note = eng;
unicode = 014B;
},
{
glyphname = OE;
lastChange = "2017-05-14 16:29:54 +0000";
layers = (
{
anchors = (
{
name = bottom;
position = "{760, 0}";
},
{
name = top;
position = "{1070, 1462}";
}
);
layerId = "6A44F957-816A-4D1D-8CAD-45EB0FE52ECF";
paths = (
{
closed = 1;
nodes = (
"991 152 LINE",
"1106 690 LINE",
"1634 690 LINE",
"1665 840 LINE",
"1137 840 LINE",
"1237 1309 LINE",
"1802 1309 LINE",
"1833 1462 LINE",
"1124 1462 LINE",
"1067 1477 OFFCURVE",
"988 1485 OFFCURVE",
"887 1485 CURVE SMOOTH",
"747 1485 OFFCURVE",
"621 1446 OFFCURVE",
"510 1367 CURVE SMOOTH",
"286 1210 OFFCURVE",
"150 901 OFFCURVE",
"150 549 CURVE SMOOTH",
"150 189 OFFCURVE",
"351 -20 OFFCURVE",
"692 -20 CURVE SMOOTH",
"745 -20 OFFCURVE",
"798 -13 OFFCURVE",
"850 0 CURVE",
"1524 0 LINE",
"1556 152 LINE"
);
},
{
closed = 1;
nodes = (
"472 131 OFFCURVE",
"332 288 OFFCURVE",
"332 553 CURVE SMOOTH",
"332 698 OFFCURVE",
"355 831 OFFCURVE",
"401 951 CURVE SMOOTH",
"492 1191 OFFCURVE",
"665 1333 OFFCURVE",
"874 1333 CURVE SMOOTH",
"951 1333 OFFCURVE",
"1014 1326 OFFCURVE",
"1065 1311 CURVE",
"819 150 LINE",
"783 137 OFFCURVE",
"742 131 OFFCURVE",
"696 131 CURVE SMOOTH"
);
}
);
width = 1751;
}
);
note = OE;
unicode = 0152;
},
{
glyphname = oe;
lastChange = "2017-05-14 16:29:54 +0000";
layers = (
{
anchors = (
{
name = bottom;
position = "{769, 0}";
},
{
name = top;
position = "{1001, 1096}";
}
);
layerId = "6A44F957-816A-4D1D-8CAD-45EB0FE52ECF";
paths = (
{
closed = 1;
nodes = (
"1360 -20 OFFCURVE",
"1469 5 OFFCURVE",
"1577 55 CURVE",
"1577 205 LINE",
"1470 158 OFFCURVE",
"1382 121 OFFCURVE",
"1282 121 CURVE SMOOTH",
"1110 121 OFFCURVE",
"1030 224 OFFCURVE",
"1030 399 CURVE",
"1034 479 LINE",
"1075 479 LINE SMOOTH",
"1480 479 OFFCURVE",
"1708 620 OFFCURVE",
"1708 864 CURVE SMOOTH",
"1708 1025 OFFCURVE",
"1598 1116 OFFCURVE",
"1413 1116 CURVE SMOOTH",
"1254 1116 OFFCURVE",
"1114 1030 OFFCURVE",
"1014 885 CURVE",
"955 1035 OFFCURVE",
"835 1110 OFFCURVE",
"655 1110 CURVE SMOOTH",
"552 1110 OFFCURVE",
"458 1081 OFFCURVE",
"374 1022 CURVE SMOOTH",
"206 904 OFFCURVE",
"98 663 OFFCURVE",
"98 406 CURVE SMOOTH",
"98 147 OFFCURVE",
"253 -16 OFFCURVE",
"498 -16 CURVE SMOOTH",
"662 -16 OFFCURVE",
"803 62 OFFCURVE",
"895 205 CURVE",
"952 55 OFFCURVE",
"1071 -20 OFFCURVE",
"1251 -20 CURVE SMOOTH"
);
},
{
closed = 1;
nodes = (
"802 969 OFFCURVE",
"883 876 OFFCURVE",
"883 711 CURVE SMOOTH",
"883 355 OFFCURVE",
"740 123 OFFCURVE",
"504 123 CURVE SMOOTH",
"357 123 OFFCURVE",
"270 222 OFFCURVE",
"270 410 CURVE SMOOTH",
"270 513 OFFCURVE",
"286 608 OFFCURVE",
"318 694 CURVE SMOOTH",
"382 866 OFFCURVE",
"504 969 OFFCURVE",
"649 969 CURVE SMOOTH"
);
},
{
closed = 1;
nodes = (
"1500 973 OFFCURVE",
"1542 920 OFFCURVE",
"1542 856 CURVE SMOOTH",
"1542 701 OFFCURVE",
"1379 618 OFFCURVE",
"1071 618 CURVE SMOOTH",
"1053 618 LINE",
"1112 839 OFFCURVE",
"1246 973 OFFCURVE",
"1413 973 CURVE SMOOTH"
);
}
);
width = 1769;
}
);
note = oe;
unicode = 0153;
},
{
glyphname = Tbar;
lastChange = "2017-04-22 20:56:27 +0000";
layers = (
{
layerId = "6A44F957-816A-4D1D-8CAD-45EB0FE52ECF";
paths = (
{
closed = 1;
nodes = (
"1174 1311 LINE",
"1204 1462 LINE",
"219 1462 LINE",
"186 1311 LINE",
"592 1311 LINE",
"485 815 LINE",
"201 815 LINE",
"170 678 LINE",
"459 678 LINE",
"315 0 LINE",
"487 0 LINE",
"631 678 LINE",
"926 678 LINE",
"954 815 LINE",
"659 815 LINE",
"766 1311 LINE"
);
}
);
width = 1020;
}
);
note = Tbar;
unicode = 0166;
},
{
glyphname = tbar;
lastChange = "2017-04-22 20:56:27 +0000";
layers = (
{
layerId = "6A44F957-816A-4D1D-8CAD-45EB0FE52ECF";
paths = (
{
closed = 1;
nodes = (
"326 117 OFFCURVE",
"285 158 OFFCURVE",
"285 233 CURVE SMOOTH",
"285 256 OFFCURVE",
"287 279 OFFCURVE",
"292 304 CURVE",
"296 329 OFFCURVE",
"315 423 OFFCURVE",
"350 586 CURVE",
"594 586 LINE",
"621 715 LINE",
"377 715 LINE",
"432 969 LINE",
"705 969 LINE",
"731 1096 LINE",
"457 1096 LINE",
"512 1348 LINE",
"414 1348 LINE",
"289 1120 LINE",
"104 1042 LINE",
"90 969 LINE",
"262 969 LINE",
"207 715 LINE",
"70 715 LINE",
"43 586 LINE",
"180 586 LINE",
"147 426 OFFCURVE",
"128 330 OFFCURVE",
"124 299 CURVE SMOOTH",
"119 268 OFFCURVE",
"117 240 OFFCURVE",
"117 217 CURVE SMOOTH",
"117 60 OFFCURVE",
"208 -20 OFFCURVE",
"375 -20 CURVE SMOOTH",
"415 -20 OFFCURVE",
"494 -5 OFFCURVE",
"539 14 CURVE",
"539 143 LINE",
"480 126 OFFCURVE",
"432 117 OFFCURVE",
"395 117 CURVE SMOOTH"
);
}
);
width = 664;
}
);
note = tbar;
unicode = 0167;
},
{
glyphname = longs;
lastChange = "2017-05-14 16:29:54 +0000";
layers = (
{
anchors = (
{
name = bottom;
position = "{166, 0}";
},
{
name = top;
position = "{398, 1096}";
}
);
layerId = "6A44F957-816A-4D1D-8CAD-45EB0FE52ECF";
paths = (
{
closed = 1;
nodes = (
"39 -492 OFFCURVE",
"146 -382 OFFCURVE",
"199 -129 CURVE SMOOTH",
"479 1204 LINE SMOOTH",
"515 1371 OFFCURVE",
"571 1430 OFFCURVE",
"688 1430 CURVE SMOOTH",
"729 1430 OFFCURVE",
"774 1420 OFFCURVE",
"825 1401 CURVE",
"868 1530 LINE",
"820 1550 OFFCURVE",
"733 1567 OFFCURVE",
"678 1567 CURVE SMOOTH",
"458 1567 OFFCURVE",
"362 1462 OFFCURVE",
"309 1202 CURVE SMOOTH",
"33 -113 LINE SMOOTH",
"0 -272 OFFCURVE",
"-60 -352 OFFCURVE",
"-147 -352 CURVE SMOOTH",
"-180 -352 OFFCURVE",
"-217 -345 OFFCURVE",
"-260 -330 CURVE",
"-260 -471 LINE",
"-221 -485 OFFCURVE",
"-180 -492 OFFCURVE",
"-137 -492 CURVE SMOOTH"
);
}
);
width = 563;
}
);
note = longs;
unicode = 017F;
},
{
glyphname = florin;
lastChange = "2017-04-22 20:56:27 +0000";
layers = (
{
layerId = "6A44F957-816A-4D1D-8CAD-45EB0FE52ECF";
paths = (
{
closed = 1;
nodes = (
"306 -492 OFFCURVE",
"409 -380 OFFCURVE",
"461 -129 CURVE SMOOTH",
"666 840 LINE",
"903 840 LINE",
"928 965 LINE",
"690 965 LINE",
"723 1120 LINE SMOOTH",
"759 1289 OFFCURVE",
"815 1346 OFFCURVE",
"932 1346 CURVE SMOOTH",
"973 1346 OFFCURVE",
"1018 1336 OFFCURVE",
"1069 1317 CURVE",
"1112 1446 LINE",
"1069 1466 OFFCURVE",
"980 1483 OFFCURVE",
"924 1483 CURVE SMOOTH",
"708 1483 OFFCURVE",
"604 1378 OFFCURVE",
"553 1118 CURVE SMOOTH",
"524 971 LINE",
"319 905 LINE",
"307 840 LINE",
"498 840 LINE",
"297 -113 LINE SMOOTH",
"264 -272 OFFCURVE",
"204 -352 OFFCURVE",
"117 -352 CURVE SMOOTH",
"82 -352 OFFCURVE",
"45 -345 OFFCURVE",
"4 -330 CURVE",
"4 -471 LINE",
"40 -485 OFFCURVE",
"81 -492 OFFCURVE",
"127 -492 CURVE SMOOTH"
);
}
);
width = 1128;
}
);
note = florin;
unicode = 0192;
},
{
glyphname = Aringacute;
lastChange = "2017-04-22 20:56:27 +0000";
layers = (
{
layerId = "6A44F957-816A-4D1D-8CAD-45EB0FE52ECF";
paths = (
{
closed = 1;
nodes = (
"975 1559 OFFCURVE",
"887 1642 OFFCURVE",
"754 1642 CURVE SMOOTH",
"629 1642 OFFCURVE",
"535 1557 OFFCURVE",
"535 1430 CURVE SMOOTH",
"535 1370 OFFCURVE",
"550 1322 OFFCURVE",
"580 1286 CURVE",
"-115 0 LINE",
"72 0 LINE",
"319 467 LINE",
"817 467 LINE",
"872 0 LINE",
"1040 0 LINE",
"885 1251 LINE",
"945 1293 OFFCURVE",
"975 1353 OFFCURVE",
"975 1432 CURVE SMOOTH"
);
},
{
closed = 1;
nodes = (
"801 1692 LINE",
"897 1752 OFFCURVE",
"1065 1883 OFFCURVE",
"1122 1944 CURVE",
"1122 1962 LINE",
"909 1962 LINE",
"826 1857 OFFCURVE",
"751 1775 OFFCURVE",
"682 1714 CURVE",
"682 1692 LINE"
);
},
{
closed = 1;
nodes = (
"868 1358 OFFCURVE",
"822 1315 OFFCURVE",
"754 1315 CURVE SMOOTH",
"679 1315 OFFCURVE",
"639 1358 OFFCURVE",
"639 1430 CURVE SMOOTH",
"639 1502 OFFCURVE",
"687 1544 OFFCURVE",
"754 1544 CURVE SMOOTH",
"822 1544 OFFCURVE",
"868 1502 OFFCURVE",
"868 1430 CURVE SMOOTH"
);
},
{
closed = 1;
nodes = (
"742 1111 OFFCURVE",
"763 916 OFFCURVE",
"797 621 CURVE",
"403 621 LINE",
"524 848 OFFCURVE",
"599 989 OFFCURVE",
"628 1045 CURVE SMOOTH",
"656 1101 OFFCURVE",
"682 1155 OFFCURVE",
"707 1208 CURVE",
"735 1208 LINE"
);
}
);
width = 1137;
}
);
note = Aringacute;
unicode = 01FA;
},
{
glyphname = aringacute;
lastChange = "2017-04-22 20:56:27 +0000";
layers = (
{
layerId = "6A44F957-816A-4D1D-8CAD-45EB0FE52ECF";
paths = (
{
closed = 1;
nodes = (
"776 1694 LINE",
"857 1742 OFFCURVE",
"1035 1876 OFFCURVE",
"1100 1944 CURVE",
"1100 1962 LINE",
"887 1962 LINE",
"814 1869 OFFCURVE",
"738 1787 OFFCURVE",
"659 1714 CURVE",
"659 1694 LINE"
);
},
{
closed = 1;
nodes = (
"942 1539 OFFCURVE",
"854 1622 OFFCURVE",
"723 1622 CURVE SMOOTH",
"595 1622 OFFCURVE",
"502 1538 OFFCURVE",
"502 1409 CURVE SMOOTH",
"502 1277 OFFCURVE",
"592 1198 OFFCURVE",
"723 1198 CURVE SMOOTH",
"854 1198 OFFCURVE",
"942 1279 OFFCURVE",
"942 1411 CURVE SMOOTH"
);
},
{
closed = 1;
nodes = (
"838 1338 OFFCURVE",
"788 1294 OFFCURVE",
"723 1294 CURVE SMOOTH",
"647 1294 OFFCURVE",
"608 1338 OFFCURVE",
"608 1409 CURVE SMOOTH",
"608 1481 OFFCURVE",
"655 1524 OFFCURVE",
"723 1524 CURVE SMOOTH",
"788 1524 OFFCURVE",
"838 1481 OFFCURVE",
"838 1409 CURVE SMOOTH"
);
},
{
closed = 1;
nodes = (
"540 1116 OFFCURVE",
"448 1082 OFFCURVE",
"365 1015 CURVE SMOOTH",
"198 880 OFFCURVE",
"98 627 OFFCURVE",
"98 350 CURVE SMOOTH",
"98 121 OFFCURVE",
"210 -20 OFFCURVE",
"395 -20 CURVE SMOOTH",
"527 -20 OFFCURVE",
"653 56 OFFCURVE",
"772 209 CURVE",
"780 209 LINE",
"754 0 LINE",
"887 0 LINE",
"1120 1096 LINE",
"993 1096 LINE",
"926 924 LINE",
"915 924 LINE",
"862 1048 OFFCURVE",
"762 1116 OFFCURVE",
"639 1116 CURVE SMOOTH"
);
},
{
closed = 1;
nodes = (
"336 119 OFFCURVE",
"270 194 OFFCURVE",
"270 346 CURVE SMOOTH",
"270 455 OFFCURVE",
"287 558 OFFCURVE",
"321 656 CURVE SMOOTH",
"389 852 OFFCURVE",
"516 975 OFFCURVE",
"655 975 CURVE SMOOTH",
"776 975 OFFCURVE",
"858 887 OFFCURVE",
"858 750 CURVE SMOOTH",
"858 651 OFFCURVE",
"838 552 OFFCURVE",
"798 453 CURVE SMOOTH",
"718 255 OFFCURVE",
"578 119 OFFCURVE",
"449 119 CURVE SMOOTH"
);
}
);
width = 1157;
}
);
note = aringacute;
unicode = 01FB;
},
{
glyphname = circumflex;
lastChange = "2017-04-22 20:56:27 +0000";
layers = (
{
layerId = "6A44F957-816A-4D1D-8CAD-45EB0FE52ECF";
paths = (
{
closed = 1;
nodes = (
"972 1334 LINE SMOOTH",
"911 1425 OFFCURVE",
"869 1503 OFFCURVE",
"844 1569 CURVE",
"686 1569 LINE",
"671 1543 OFFCURVE",
"643 1509 OFFCURVE",
"604 1466 CURVE SMOOTH",
"564 1423 OFFCURVE",
"496 1357 OFFCURVE",
"399 1268 CURVE",
"399 1241 LINE",
"508 1241 LINE",
"580 1288 OFFCURVE",
"661 1351 OFFCURVE",
"750 1430 CURVE",
"819 1336 OFFCURVE",
"873 1273 OFFCURVE",
"911 1241 CURVE",
"1014 1241 LINE",
"1014 1268 LINE"
);
}
);
width = 1135;
}
);
note = circumflex;
unicode = 02C6;
},
{
glyphname = caron;
lastChange = "2017-04-22 20:56:27 +0000";
layers = (
{
layerId = "6A44F957-816A-4D1D-8CAD-45EB0FE52ECF";
paths = (
{
closed = 1;
nodes = (
"510 1476 LINE SMOOTH",
"571 1383 OFFCURVE",
"612 1304 OFFCURVE",
"635 1241 CURVE",
"795 1241 LINE",
"838 1310 OFFCURVE",
"965 1439 OFFCURVE",
"1081 1542 CURVE",
"1081 1569 LINE",
"975 1569 LINE",
"893 1516 OFFCURVE",
"811 1453 OFFCURVE",
"729 1380 CURVE",
"673 1456 OFFCURVE",
"622 1526 OFFCURVE",
"567 1569 CURVE",
"467 1569 LINE",
"467 1542 LINE"
);
}
);
width = 1135;
}
);
note = caron;
unicode = 02C7;
},
{
glyphname = macron;
lastChange = "2017-04-22 20:56:27 +0000";
layers = (
{
layerId = "6A44F957-816A-4D1D-8CAD-45EB0FE52ECF";
paths = (
{
closed = 1;
nodes = (
"950 1241 LINE",
"981 1382 LINE",
"436 1382 LINE",
"406 1241 LINE"
);
}
);
width = 1096;
}
);
note = macron;
unicode = 02C9;
},
{
glyphname = breve;
lastChange = "2017-04-22 20:56:27 +0000";
layers = (
{
layerId = "6A44F957-816A-4D1D-8CAD-45EB0FE52ECF";
paths = (
{
closed = 1;
nodes = (
"921 1426 OFFCURVE",
"854 1384 OFFCURVE",
"741 1384 CURVE SMOOTH",
"618 1384 OFFCURVE",
"575 1430 OFFCURVE",
"575 1509 CURVE",
"477 1509 LINE",
"475 1487 LINE",
"475 1466 LINE SMOOTH",
"475 1325 OFFCURVE",
"572 1241 OFFCURVE",
"723 1241 CURVE SMOOTH",
"899 1241 OFFCURVE",
"1006 1325 OFFCURVE",
"1051 1509 CURVE",
"944 1509 LINE"
);
}
);
width = 1135;
}
);
note = breve;
unicode = 02D8;
},
{
glyphname = dotaccent;
lastChange = "2017-04-22 20:56:27 +0000";
layers = (
{
layerId = "6A44F957-816A-4D1D-8CAD-45EB0FE52ECF";
paths = (
{
closed = 1;
nodes = (
"324 1316 OFFCURVE",
"365 1282 OFFCURVE",
"416 1282 CURVE SMOOTH",
"473 1282 OFFCURVE",
"526 1340 OFFCURVE",
"526 1413 CURVE SMOOTH",
"526 1473 OFFCURVE",
"497 1503 OFFCURVE",
"438 1503 CURVE SMOOTH",
"371 1503 OFFCURVE",
"324 1447 OFFCURVE",
"324 1376 CURVE SMOOTH"
);
}
);
width = 498;
}
);
note = dotaccent;
unicode = 02D9;
},
{
glyphname = ring;
lastChange = "2017-04-22 20:56:27 +0000";
layers = (
{
layerId = "6A44F957-816A-4D1D-8CAD-45EB0FE52ECF";
paths = (
{
closed = 1;
nodes = (
"989 1583 OFFCURVE",
"905 1665 OFFCURVE",
"770 1665 CURVE SMOOTH",
"643 1665 OFFCURVE",
"551 1579 OFFCURVE",
"551 1454 CURVE SMOOTH",
"551 1323 OFFCURVE",
"635 1241 OFFCURVE",
"770 1241 CURVE SMOOTH",
"902 1241 OFFCURVE",
"989 1324 OFFCURVE",
"989 1456 CURVE SMOOTH"
);
},
{
closed = 1;
nodes = (
"885 1382 OFFCURVE",
"838 1339 OFFCURVE",
"770 1339 CURVE SMOOTH",
"695 1339 OFFCURVE",
"655 1382 OFFCURVE",
"655 1454 CURVE SMOOTH",
"655 1525 OFFCURVE",
"705 1569 OFFCURVE",
"770 1569 CURVE SMOOTH",
"838 1569 OFFCURVE",
"885 1525 OFFCURVE",
"885 1454 CURVE SMOOTH"
);
}
);
width = 1182;
}
);
note = ring;
unicode = 02DA;
},
{
glyphname = ogonek;
lastChange = "2017-04-22 20:56:27 +0000";
layers = (
{
layerId = "6A44F957-816A-4D1D-8CAD-45EB0FE52ECF";
paths = (
{
closed = 1;
nodes = (
"7 -39 OFFCURVE",
"-36 -71 OFFCURVE",
"-63 -97 CURVE SMOOTH",
"-116 -150 OFFCURVE",
"-145 -208 OFFCURVE",
"-145 -279 CURVE SMOOTH",
"-145 -383 OFFCURVE",
"-78 -440 OFFCURVE",
"33 -440 CURVE SMOOTH",
"78 -440 OFFCURVE",
"115 -435 OFFCURVE",
"143 -426 CURVE",
"143 -319 LINE",
"116 -325 OFFCURVE",
"89 -328 OFFCURVE",
"63 -328 CURVE SMOOTH",
"17 -328 OFFCURVE",
"-6 -305 OFFCURVE",
"-6 -258 CURVE SMOOTH",
"-6 -230 OFFCURVE",
"1 -203 OFFCURVE",
"14 -177 CURVE SMOOTH",
"41 -126 OFFCURVE",
"75 -87 OFFCURVE",
"184 0 CURVE",
"68 0 LINE"
);
}
);
width = 373;
}
);
note = ogonek;
unicode = 02DB;
},
{
glyphname = tilde;
lastChange = "2017-04-22 20:56:27 +0000";
layers = (
{
layerId = "6A44F957-816A-4D1D-8CAD-45EB0FE52ECF";
paths = (
{
closed = 1;
nodes = (
"949 1243 OFFCURVE",
"1027 1329 OFFCURVE",
"1071 1501 CURVE",
"971 1501 LINE",
"936 1417 OFFCURVE",
"909 1384 OFFCURVE",
"850 1384 CURVE SMOOTH",
"814 1384 OFFCURVE",
"773 1413 OFFCURVE",
"726 1442 CURVE SMOOTH",
"678 1470 OFFCURVE",
"626 1499 OFFCURVE",
"567 1499 CURVE SMOOTH",
"452 1499 OFFCURVE",
"375 1413 OFFCURVE",
"336 1241 CURVE",
"436 1241 LINE",
"465 1318 OFFCURVE",
"494 1356 OFFCURVE",
"553 1356 CURVE SMOOTH",
"596 1356 OFFCURVE",
"640 1328 OFFCURVE",
"688 1300 CURVE SMOOTH",
"735 1271 OFFCURVE",
"785 1243 OFFCURVE",
"838 1243 CURVE SMOOTH"
);
}
);
width = 1135;
}
);
note = tilde;
unicode = 02DC;
},
{
glyphname = hungarumlaut;
lastChange = "2017-04-22 20:56:27 +0000";
layers = (
{
layerId = "6A44F957-816A-4D1D-8CAD-45EB0FE52ECF";
paths = (
{
closed = 1;
nodes = (
"483 1241 LINE",
"575 1308 OFFCURVE",
"731 1461 OFFCURVE",
"799 1548 CURVE",
"799 1569 LINE",
"627 1569 LINE",
"564 1469 OFFCURVE",
"456 1328 OFFCURVE",
"397 1268 CURVE",
"397 1241 LINE"
);
},
{
closed = 1;
nodes = (
"825 1241 LINE",
"917 1308 OFFCURVE",
"1073 1461 OFFCURVE",
"1141 1548 CURVE",
"1141 1569 LINE",
"969 1569 LINE",
"910 1476 OFFCURVE",
"802 1336 OFFCURVE",
"739 1268 CURVE",
"739 1241 LINE"
);
}
);
width = 1135;
}
);
note = hungarumlaut;
unicode = 02DD;
},
{
glyphname = tonos;
lastChange = "2017-05-14 16:29:54 +0000";
layers = (
{
anchors = (
{
name = _top;
position = "{728, 1096}";
}
);
layerId = "6A44F957-816A-4D1D-8CAD-45EB0FE52ECF";
paths = (
{
closed = 1;
nodes = (
"727 1241 LINE",
"822 1353 OFFCURVE",
"950 1544 OFFCURVE",
"983 1624 CURVE",
"983 1653 LINE",
"801 1653 LINE",
"770 1568 OFFCURVE",
"684 1382 OFFCURVE",
"623 1270 CURVE",
"623 1241 LINE"
);
}
);
width = 1153;
}
);
note = tonos;
unicode = 0384;
},
{
glyphname = dieresistonos;
lastChange = "2017-05-14 16:29:54 +0000";
layers = (
{
anchors = (
{
name = _top;
position = "{654, 1096}";
}
);
layerId = "6A44F957-816A-4D1D-8CAD-45EB0FE52ECF";
paths = (
{
closed = 1;
nodes = (
"741 1389 LINE",
"838 1478 OFFCURVE",
"951 1604 OFFCURVE",
"1018 1696 CURVE",
"1018 1716 LINE",
"823 1716 LINE",
"789 1637 OFFCURVE",
"737 1536 OFFCURVE",
"666 1411 CURVE",
"666 1389 LINE"
);
},
{
closed = 1;
nodes = (
"449 1325 OFFCURVE",
"483 1294 OFFCURVE",
"530 1294 CURVE SMOOTH",
"581 1294 OFFCURVE",
"629 1344 OFFCURVE",
"629 1411 CURVE SMOOTH",
"629 1464 OFFCURVE",
"603 1491 OFFCURVE",
"551 1491 CURVE SMOOTH",
"491 1491 OFFCURVE",
"449 1443 OFFCURVE",
"449 1378 CURVE SMOOTH"
);
},
{
closed = 1;
nodes = (
"852 1325 OFFCURVE",
"887 1294 OFFCURVE",
"934 1294 CURVE SMOOTH",
"986 1294 OFFCURVE",
"1032 1346 OFFCURVE",
"1032 1411 CURVE SMOOTH",
"1032 1464 OFFCURVE",
"1006 1491 OFFCURVE",
"954 1491 CURVE SMOOTH",
"893 1491 OFFCURVE",
"852 1439 OFFCURVE",
"852 1378 CURVE SMOOTH"
);
}
);
width = 1153;
}
);
note = dieresistonos;
unicode = 0385;
},
{
glyphname = Gamma;
lastChange = "2017-04-22 20:56:27 +0000";
layers = (
{
layerId = "6A44F957-816A-4D1D-8CAD-45EB0FE52ECF";
paths = (
{
closed = 1;
nodes = (
"1100 1309 LINE",
"1130 1462 LINE",
"395 1462 LINE",
"86 0 LINE",
"258 0 LINE",
"535 1309 LINE"
);
}
);
width = 975;
}
);
note = Gamma;
unicode = 0393;
},
{
glyphname = Theta;
lastChange = "2017-04-22 20:56:27 +0000";
layers = (
{
layerId = "6A44F957-816A-4D1D-8CAD-45EB0FE52ECF";
paths = (
{
closed = 1;
nodes = (
"494 670 LINE",
"1026 670 LINE",
"1057 819 LINE",
"524 819 LINE"
);
},
{
closed = 1;
nodes = (
"1411 1267 OFFCURVE",
"1212 1485 OFFCURVE",
"887 1485 CURVE SMOOTH",
"747 1485 OFFCURVE",
"621 1446 OFFCURVE",
"510 1367 CURVE SMOOTH",
"286 1210 OFFCURVE",
"150 901 OFFCURVE",
"150 549 CURVE SMOOTH",
"150 189 OFFCURVE",
"351 -20 OFFCURVE",
"692 -20 CURVE SMOOTH",
"835 -20 OFFCURVE",
"962 19 OFFCURVE",
"1071 97 CURVE SMOOTH",
"1290 252 OFFCURVE",
"1411 548 OFFCURVE",
"1411 907 CURVE SMOOTH"
);
},
{
closed = 1;
nodes = (
"1097 1333 OFFCURVE",
"1229 1176 OFFCURVE",
"1229 911 CURVE SMOOTH",
"1229 764 OFFCURVE",
"1206 629 OFFCURVE",
"1159 508 CURVE SMOOTH",
"1066 265 OFFCURVE",
"899 131 OFFCURVE",
"696 131 CURVE SMOOTH",
"472 131 OFFCURVE",
"332 288 OFFCURVE",
"332 553 CURVE SMOOTH",
"332 698 OFFCURVE",
"355 831 OFFCURVE",
"401 951 CURVE SMOOTH",
"492 1191 OFFCURVE",
"665 1333 OFFCURVE",
"874 1333 CURVE SMOOTH"
);
}
);
width = 1475;
}
);
note = Theta;
unicode = 0398;
},
{
glyphname = Lambda;
lastChange = "2017-04-22 20:56:27 +0000";
layers = (
{
layerId = "6A44F957-816A-4D1D-8CAD-45EB0FE52ECF";
paths = (
{
closed = 1;
nodes = (
"565 920 LINE SMOOTH",
"634 1047 OFFCURVE",
"693 1167 OFFCURVE",
"741 1278 CURVE",
"746 1152 OFFCURVE",
"755 1037 OFFCURVE",
"768 934 CURVE SMOOTH",
"881 0 LINE",
"1049 0 LINE",
"862 1460 LINE",
"684 1460 LINE",
"-117 0 LINE",
"72 0 LINE"
);
}
);
width = 1143;
}
);
note = Lambda;
unicode = 039B;
},
{
glyphname = Xi;
lastChange = "2017-04-22 20:56:27 +0000";
layers = (
{
layerId = "6A44F957-816A-4D1D-8CAD-45EB0FE52ECF";
paths = (
{
closed = 1;
nodes = (
"887 690 LINE",
"915 840 LINE",
"276 840 LINE",
"246 690 LINE"
);
},
{
closed = 1;
nodes = (
"1102 1309 LINE",
"1135 1462 LINE",
"322 1462 LINE",
"289 1309 LINE"
);
},
{
closed = 1;
nodes = (
"-27 0 LINE",
"864 0 LINE",
"897 152 LINE",
"4 152 LINE"
);
}
);
width = 1059;
}
);
note = Xi;
unicode = 039E;
},
{
glyphname = Pi;
lastChange = "2017-04-22 20:56:27 +0000";
layers = (
{
layerId = "6A44F957-816A-4D1D-8CAD-45EB0FE52ECF";
paths = (
{
closed = 1;
nodes = (
"395 1462 LINE",
"86 0 LINE",
"256 0 LINE",
"532 1311 LINE",
"1194 1311 LINE",
"918 0 LINE",
"1092 0 LINE",
"1401 1462 LINE"
);
}
);
width = 1391;
}
);
note = Pi;
unicode = 03A0;
},
{
glyphname = Sigma;
lastChange = "2017-04-22 20:56:27 +0000";
layers = (
{
layerId = "6A44F957-816A-4D1D-8CAD-45EB0FE52ECF";
paths = (
{
closed = 1;
nodes = (
"932 152 LINE",
"199 152 LINE",
"709 743 LINE",
"442 1309 LINE",
"1118 1309 LINE",
"1151 1462 LINE",
"289 1462 LINE",
"262 1325 LINE",
"530 756 LINE",
"-2 139 LINE",
"-29 0 LINE",
"899 0 LINE"
);
}
);
width = 1067;
}
);
note = Sigma;
unicode = 03A3;
},
{
glyphname = Phi;
lastChange = "2017-04-22 20:56:27 +0000";
layers = (
{
layerId = "6A44F957-816A-4D1D-8CAD-45EB0FE52ECF";
paths = (
{
closed = 1;
nodes = (
"778 205 LINE",
"916 210 OFFCURVE",
"1036 239 OFFCURVE",
"1138 291 CURVE SMOOTH",
"1342 395 OFFCURVE",
"1460 601 OFFCURVE",
"1460 854 CURVE SMOOTH",
"1460 1123 OFFCURVE",
"1299 1286 OFFCURVE",
"1012 1303 CURVE",
"1049 1483 LINE",
"872 1483 LINE",
"836 1303 LINE",
"392 1290 OFFCURVE",
"150 1051 OFFCURVE",
"150 664 CURVE SMOOTH",
"150 388 OFFCURVE",
"313 225 OFFCURVE",
"602 205 CURVE",
"553 -20 LINE",
"729 -20 LINE"
);
},
{
closed = 1;
nodes = (
"1175 1145 OFFCURVE",
"1286 1036 OFFCURVE",
"1286 844 CURVE SMOOTH",
"1286 553 OFFCURVE",
"1113 369 OFFCURVE",
"809 352 CURVE",
"979 1153 LINE"
);
},
{
closed = 1;
nodes = (
"436 357 OFFCURVE",
"324 478 OFFCURVE",
"324 674 CURVE SMOOTH",
"324 771 OFFCURVE",
"343 855 OFFCURVE",
"380 927 CURVE SMOOTH",
"454 1070 OFFCURVE",
"600 1153 OFFCURVE",
"803 1153 CURVE",
"631 352 LINE"
);
}
);
width = 1524;
}
);
note = Phi;
unicode = 03A6;
},
{
glyphname = Psi;
lastChange = "2017-04-22 20:56:27 +0000";
layers = (
{
layerId = "6A44F957-816A-4D1D-8CAD-45EB0FE52ECF";
paths = (
{
closed = 1;
nodes = (
"1219 449 OFFCURVE",
"1428 612 OFFCURVE",
"1499 965 CURVE SMOOTH",
"1604 1462 LINE",
"1423 1462 LINE",
"1321 979 LINE SMOOTH",
"1264 708 OFFCURVE",
"1119 594 OFFCURVE",
"872 594 CURVE SMOOTH",
"858 594 LINE",
"1042 1462 LINE",
"866 1462 LINE",
"682 594 LINE",
"666 594 LINE SMOOTH",
"466 594 OFFCURVE",
"373 679 OFFCURVE",
"373 858 CURVE SMOOTH",
"373 905 OFFCURVE",
"381 966 OFFCURVE",
"397 1040 CURVE SMOOTH",
"485 1462 LINE",
"307 1462 LINE",
"223 1059 LINE SMOOTH",
"207 983 OFFCURVE",
"199 914 OFFCURVE",
"199 852 CURVE SMOOTH",
"199 593 OFFCURVE",
"357 449 OFFCURVE",
"637 449 CURVE SMOOTH",
"651 449 LINE",
"557 0 LINE",
"733 0 LINE",
"827 449 LINE",
"866 449 LINE SMOOTH"
);
}
);
width = 1505;
}
);
note = Psi;
unicode = 03A8;
},
{
glyphname = uni03A9;
lastChange = "2017-05-14 16:29:54 +0000";
layers = (
{
anchors = (
{
name = bottom;
position = "{635, 0}";
},
{
name = topleft;
position = "{214, 1462}";
}
);
layerId = "6A44F957-816A-4D1D-8CAD-45EB0FE52ECF";
paths = (
{
closed = 1;
nodes = (
"1105 1333 OFFCURVE",
"1241 1187 OFFCURVE",
"1241 924 CURVE SMOOTH",
"1241 599 OFFCURVE",
"1074 328 OFFCURVE",
"745 131 CURVE",
"719 0 LINE",
"1321 0 LINE",
"1352 152 LINE",
"989 152 LINE",
"1272 339 OFFCURVE",
"1423 611 OFFCURVE",
"1423 918 CURVE SMOOTH",
"1423 1033 OFFCURVE",
"1402 1133 OFFCURVE",
"1360 1219 CURVE SMOOTH",
"1275 1390 OFFCURVE",
"1106 1485 OFFCURVE",
"881 1485 CURVE SMOOTH",
"744 1485 OFFCURVE",
"621 1452 OFFCURVE",
"513 1385 CURVE SMOOTH",
"296 1251 OFFCURVE",
"164 986 OFFCURVE",
"164 686 CURVE SMOOTH",
"164 465 OFFCURVE",
"230 287 OFFCURVE",
"362 152 CURVE",
"14 152 LINE",
"-16 0 LINE",
"535 0 LINE",
"561 131 LINE",
"409 283 OFFCURVE",
"346 449 OFFCURVE",
"346 676 CURVE SMOOTH",
"346 803 OFFCURVE",
"368 916 OFFCURVE",
"411 1016 CURVE SMOOTH",
"497 1216 OFFCURVE",
"660 1333 OFFCURVE",
"868 1333 CURVE SMOOTH"
);
}
);
width = 1501;
}
);
note = uni03A9;
unicode = 03A9;
},
{
glyphname = alpha;
lastChange = "2017-05-14 16:29:54 +0000";
layers = (
{
anchors = (
{
name = top;
position = "{699, 1096}";
}
);
layerId = "6A44F957-816A-4D1D-8CAD-45EB0FE52ECF";
paths = (
{
closed = 1;
nodes = (
"532 1116 OFFCURVE",
"441 1083 OFFCURVE",
"360 1016 CURVE SMOOTH",
"197 883 OFFCURVE",
"98 629 OFFCURVE",
"98 350 CURVE SMOOTH",
"98 119 OFFCURVE",
"211 -20 OFFCURVE",
"395 -20 CURVE SMOOTH",
"518 -20 OFFCURVE",
"626 41 OFFCURVE",
"745 186 CURVE",
"754 186 LINE",
"754 173 LINE SMOOTH",
"754 44 OFFCURVE",
"813 -20 OFFCURVE",
"932 -20 CURVE SMOOTH",
"964 -20 OFFCURVE",
"1028 -9 OFFCURVE",
"1053 6 CURVE",
"1053 127 LINE",
"1028 119 OFFCURVE",
"1006 115 OFFCURVE",
"987 115 CURVE SMOOTH",
"946 115 OFFCURVE",
"922 141 OFFCURVE",
"922 188 CURVE SMOOTH",
"922 218 OFFCURVE",
"927 256 OFFCURVE",
"938 301 CURVE SMOOTH",
"1010 623 LINE SMOOTH",
"1045 779 OFFCURVE",
"1112 995 OFFCURVE",
"1161 1096 CURVE",
"1026 1096 LINE",
"995 1063 OFFCURVE",
"962 1006 OFFCURVE",
"926 926 CURVE",
"913 926 LINE",
"862 1050 OFFCURVE",
"763 1116 OFFCURVE",
"631 1116 CURVE SMOOTH"
);
},
{
closed = 1;
nodes = (
"336 119 OFFCURVE",
"270 194 OFFCURVE",
"270 346 CURVE SMOOTH",
"270 461 OFFCURVE",
"287 567 OFFCURVE",
"321 664 CURVE SMOOTH",
"389 858 OFFCURVE",
"511 975 OFFCURVE",
"647 975 CURVE SMOOTH",
"768 975 OFFCURVE",
"850 887 OFFCURVE",
"850 750 CURVE SMOOTH",
"850 650 OFFCURVE",
"831 551 OFFCURVE",
"792 452 CURVE SMOOTH",
"714 254 OFFCURVE",
"577 119 OFFCURVE",
"449 119 CURVE SMOOTH"
);
}
);
width = 1165;
}
);
note = alpha;
unicode = 03B1;
},
{
glyphname = beta;
lastChange = "2017-04-22 20:56:27 +0000";
layers = (
{
layerId = "6A44F957-816A-4D1D-8CAD-45EB0FE52ECF";
paths = (
{
closed = 1;
nodes = (
"248 94 LINE",
"357 10 OFFCURVE",
"450 -20 OFFCURVE",
"565 -20 CURVE SMOOTH",
"861 -20 OFFCURVE",
"1055 174 OFFCURVE",
"1055 471 CURVE SMOOTH",
"1055 650 OFFCURVE",
"966 772 OFFCURVE",
"801 811 CURVE",
"1033 864 OFFCURVE",
"1151 1005 OFFCURVE",
"1151 1221 CURVE SMOOTH",
"1151 1437 OFFCURVE",
"1015 1567 OFFCURVE",
"786 1567 CURVE SMOOTH",
"694 1567 OFFCURVE",
"616 1550 OFFCURVE",
"552 1515 CURVE SMOOTH",
"424 1446 OFFCURVE",
"345 1324 OFFCURVE",
"293 1092 CURVE SMOOTH",
"-45 -492 LINE",
"123 -492 LINE"
);
},
{
closed = 1;
nodes = (
"904 1427 OFFCURVE",
"981 1342 OFFCURVE",
"981 1210 CURVE SMOOTH",
"981 1002 OFFCURVE",
"857 887 OFFCURVE",
"629 887 CURVE SMOOTH",
"557 887 LINE",
"526 745 LINE",
"594 745 LINE SMOOTH",
"793 745 OFFCURVE",
"893 650 OFFCURVE",
"893 461 CURVE SMOOTH",
"893 398 OFFCURVE",
"880 340 OFFCURVE",
"853 287 CURVE SMOOTH",
"799 181 OFFCURVE",
"691 117 OFFCURVE",
"555 117 CURVE SMOOTH",
"448 117 OFFCURVE",
"343 154 OFFCURVE",
"272 205 CURVE",
"461 1090 LINE SMOOTH",
"516 1339 OFFCURVE",
"609 1427 OFFCURVE",
"768 1427 CURVE SMOOTH"
);
}
);
width = 1182;
}
);
note = beta;
unicode = 03B2;
},
{
glyphname = gamma;
lastChange = "2017-04-22 20:56:27 +0000";
layers = (
{
layerId = "6A44F957-816A-4D1D-8CAD-45EB0FE52ECF";
paths = (
{
closed = 1;
nodes = (
"296 -319 OFFCURVE",
"360 -149 OFFCURVE",
"453 20 CURVE SMOOTH",
"1036 1096 LINE",
"858 1096 LINE",
"539 498 LINE SMOOTH",
"482 387 OFFCURVE",
"428 270 OFFCURVE",
"379 147 CURVE",
"375 147 LINE",
"375 244 OFFCURVE",
"366 363 OFFCURVE",
"348 504 CURVE SMOOTH",
"268 1096 LINE",
"98 1096 LINE",
"268 12 LINE",
"173 -171 OFFCURVE",
"112 -339 OFFCURVE",
"84 -492 CURVE",
"260 -492 LINE"
);
}
);
width = 940;
}
);
note = gamma;
unicode = 03B3;
},
{
glyphname = delta;
lastChange = "2017-04-22 20:56:27 +0000";
layers = (
{
layerId = "6A44F957-816A-4D1D-8CAD-45EB0FE52ECF";
paths = (
{
closed = 1;
nodes = (
"253 859 OFFCURVE",
"74 659 OFFCURVE",
"74 371 CURVE SMOOTH",
"74 135 OFFCURVE",
"232 -20 OFFCURVE",
"477 -20 CURVE SMOOTH",
"583 -20 OFFCURVE",
"676 4 OFFCURVE",
"757 52 CURVE SMOOTH",
"918 148 OFFCURVE",
"1010 330 OFFCURVE",
"1010 541 CURVE SMOOTH",
"1010 721 OFFCURVE",
"942 854 OFFCURVE",
"754 1006 CURVE SMOOTH",
"698 1051 OFFCURVE",
"660 1085 OFFCURVE",
"639 1108 CURVE SMOOTH",
"598 1154 OFFCURVE",
"578 1196 OFFCURVE",
"578 1255 CURVE SMOOTH",
"578 1368 OFFCURVE",
"647 1430 OFFCURVE",
"776 1430 CURVE SMOOTH",
"853 1430 OFFCURVE",
"920 1414 OFFCURVE",
"1063 1331 CURVE",
"1130 1452 LINE",
"1017 1529 OFFCURVE",
"900 1567 OFFCURVE",
"778 1567 CURVE SMOOTH",
"563 1567 OFFCURVE",
"418 1440 OFFCURVE",
"418 1255 CURVE SMOOTH",
"418 1147 OFFCURVE",
"467 1052 OFFCURVE",
"596 948 CURVE"
);
},
{
closed = 1;
nodes = (
"332 119 OFFCURVE",
"244 223 OFFCURVE",
"244 395 CURVE SMOOTH",
"244 630 OFFCURVE",
"403 797 OFFCURVE",
"694 864 CURVE",
"798 775 OFFCURVE",
"840 674 OFFCURVE",
"840 539 CURVE SMOOTH",
"840 291 OFFCURVE",
"700 119 OFFCURVE",
"496 119 CURVE SMOOTH"
);
}
);
width = 1133;
}
);
note = delta;
unicode = 03B4;
},
{
glyphname = epsilon;
lastChange = "2017-05-14 16:29:54 +0000";
layers = (
{
anchors = (
{
name = top;
position = "{572, 1096}";
}
);
layerId = "6A44F957-816A-4D1D-8CAD-45EB0FE52ECF";
paths = (
{
closed = 1;
nodes = (
"561 641 LINE SMOOTH",
"441 641 OFFCURVE",
"367 695 OFFCURVE",
"367 788 CURVE SMOOTH",
"367 907 OFFCURVE",
"457 973 OFFCURVE",
"616 973 CURVE SMOOTH",
"695 973 OFFCURVE",
"799 948 OFFCURVE",
"862 911 CURVE",
"924 1042 LINE",
"833 1090 OFFCURVE",
"728 1114 OFFCURVE",
"608 1114 CURVE SMOOTH",
"532 1114 OFFCURVE",
"464 1102 OFFCURVE",
"403 1077 CURVE SMOOTH",
"282 1027 OFFCURVE",
"209 930 OFFCURVE",
"209 803 CURVE SMOOTH",
"209 699 OFFCURVE",
"263 619 OFFCURVE",
"362 582 CURVE",
"362 575 LINE",
"161 539 OFFCURVE",
"63 429 OFFCURVE",
"63 260 CURVE SMOOTH",
"63 84 OFFCURVE",
"195 -20 OFFCURVE",
"420 -20 CURVE SMOOTH",
"547 -20 OFFCURVE",
"685 12 OFFCURVE",
"778 63 CURVE",
"778 207 LINE",
"655 147 OFFCURVE",
"544 117 OFFCURVE",
"446 117 CURVE SMOOTH",
"309 117 OFFCURVE",
"229 175 OFFCURVE",
"229 287 CURVE SMOOTH",
"229 422 OFFCURVE",
"336 496 OFFCURVE",
"543 496 CURVE SMOOTH",
"655 496 LINE",
"686 641 LINE"
);
}
);
width = 911;
}
);
note = epsilon;
unicode = 03B5;
},
{
glyphname = zeta;
lastChange = "2017-04-22 20:56:27 +0000";
layers = (
{
layerId = "6A44F957-816A-4D1D-8CAD-45EB0FE52ECF";
paths = (
{
closed = 1;
nodes = (
"98 188 OFFCURVE",
"167 91 OFFCURVE",
"379 2 CURVE SMOOTH",
"461 -31 OFFCURVE",
"513 -58 OFFCURVE",
"536 -79 CURVE SMOOTH",
"558 -100 OFFCURVE",
"569 -126 OFFCURVE",
"569 -156 CURVE SMOOTH",
"569 -192 OFFCURVE",
"557 -229 OFFCURVE",
"532 -266 CURVE SMOOTH",
"507 -303 OFFCURVE",
"458 -354 OFFCURVE",
"385 -418 CURVE",
"561 -418 LINE",
"684 -314 OFFCURVE",
"731 -228 OFFCURVE",
"731 -133 CURVE SMOOTH",
"731 -14 OFFCURVE",
"677 52 OFFCURVE",
"477 135 CURVE SMOOTH",
"318 203 OFFCURVE",
"270 267 OFFCURVE",
"270 410 CURVE SMOOTH",
"270 637 OFFCURVE",
"430 883 OFFCURVE",
"869 1266 CURVE SMOOTH",
"1047 1423 LINE",
"1075 1556 LINE",
"414 1556 LINE",
"383 1411 LINE",
"588 1411 LINE SMOOTH",
"687 1411 OFFCURVE",
"775 1415 OFFCURVE",
"852 1423 CURVE",
"295 956 OFFCURVE",
"98 668 OFFCURVE",
"98 385 CURVE SMOOTH"
);
}
);
width = 928;
}
);
note = zeta;
unicode = 03B6;
},
{
glyphname = eta;
lastChange = "2017-05-14 16:29:54 +0000";
layers = (
{
anchors = (
{
name = top;
position = "{707, 1096}";
}
);
layerId = "6A44F957-816A-4D1D-8CAD-45EB0FE52ECF";
paths = (
{
closed = 1;
nodes = (
"1042 672 LINE SMOOTH",
"1057 739 OFFCURVE",
"1065 799 OFFCURVE",
"1065 852 CURVE SMOOTH",
"1065 1019 OFFCURVE",
"960 1116 OFFCURVE",
"791 1116 CURVE SMOOTH",
"663 1116 OFFCURVE",
"548 1056 OFFCURVE",
"420 893 CURVE",
"410 893 LINE",
"432 1096 LINE",
"293 1096 LINE",
"59 0 LINE",
"227 0 LINE",
"328 475 LINE SMOOTH",
"350 580 OFFCURVE",
"383 670 OFFCURVE",
"426 744 CURVE SMOOTH",
"512 892 OFFCURVE",
"629 975 OFFCURVE",
"748 975 CURVE SMOOTH",
"852 975 OFFCURVE",
"897 920 OFFCURVE",
"897 836 CURVE SMOOTH",
"897 809 OFFCURVE",
"890 761 OFFCURVE",
"877 692 CURVE SMOOTH",
"623 -492 LINE",
"791 -492 LINE"
);
}
);
width = 1182;
}
);
note = eta;
unicode = 03B7;
},
{
glyphname = theta;
lastChange = "2017-04-22 20:56:27 +0000";
layers = (
{
layerId = "6A44F957-816A-4D1D-8CAD-45EB0FE52ECF";
paths = (
{
closed = 1;
nodes = (
"555 -20 OFFCURVE",
"665 29 OFFCURVE",
"758 127 CURVE SMOOTH",
"943 323 OFFCURVE",
"1073 805 OFFCURVE",
"1073 1137 CURVE SMOOTH",
"1073 1432 OFFCURVE",
"965 1579 OFFCURVE",
"748 1579 CURVE SMOOTH",
"619 1579 OFFCURVE",
"508 1531 OFFCURVE",
"417 1436 CURVE SMOOTH",
"234 1245 OFFCURVE",
"98 760 OFFCURVE",
"98 403 CURVE SMOOTH",
"98 115 OFFCURVE",
"219 -20 OFFCURVE",
"428 -20 CURVE SMOOTH"
);
},
{
closed = 1;
nodes = (
"322 123 OFFCURVE",
"262 211 OFFCURVE",
"262 422 CURVE SMOOTH",
"262 515 OFFCURVE",
"273 618 OFFCURVE",
"295 731 CURVE",
"852 731 LINE",
"803 520 OFFCURVE",
"746 366 OFFCURVE",
"681 269 CURVE SMOOTH",
"616 172 OFFCURVE",
"539 123 OFFCURVE",
"449 123 CURVE SMOOTH"
);
},
{
closed = 1;
nodes = (
"847 1436 OFFCURVE",
"907 1338 OFFCURVE",
"907 1143 CURVE SMOOTH",
"907 1051 OFFCURVE",
"898 962 OFFCURVE",
"881 877 CURVE",
"326 877 LINE",
"376 1074 OFFCURVE",
"433 1216 OFFCURVE",
"498 1304 CURVE SMOOTH",
"562 1392 OFFCURVE",
"638 1436 OFFCURVE",
"727 1436 CURVE SMOOTH"
);
}
);
width = 1112;
}
);
note = theta;
unicode = 03B8;
},
{
glyphname = iota;
lastChange = "2017-05-14 16:29:54 +0000";
layers = (
{
anchors = (
{
name = top;
position = "{429, 1096}";
}
);
layerId = "6A44F957-816A-4D1D-8CAD-45EB0FE52ECF";
paths = (
{
closed = 1;
nodes = (
"310 117 OFFCURVE",
"274 157 OFFCURVE",
"274 236 CURVE SMOOTH",
"274 268 OFFCURVE",
"280 309 OFFCURVE",
"291 360 CURVE SMOOTH",
"446 1096 LINE",
"279 1096 LINE",
"175 603 OFFCURVE",
"120 339 OFFCURVE",
"114 304 CURVE SMOOTH",
"107 268 OFFCURVE",
"104 239 OFFCURVE",
"104 217 CURVE SMOOTH",
"104 60 OFFCURVE",
"191 -20 OFFCURVE",
"352 -20 CURVE SMOOTH",
"403 -20 OFFCURVE",
"479 -3 OFFCURVE",
"520 14 CURVE",
"520 143 LINE",
"459 126 OFFCURVE",
"413 117 OFFCURVE",
"381 117 CURVE SMOOTH"
);
}
);
width = 625;
}
);
note = iota;
unicode = 03B9;
},
{
glyphname = lambda;
lastChange = "2017-04-22 20:56:27 +0000";
layers = (
{
layerId = "6A44F957-816A-4D1D-8CAD-45EB0FE52ECF";
paths = (
{
closed = 1;
nodes = (
"59 0 LINE",
"420 641 LINE SMOOTH",
"464 721 OFFCURVE",
"504 808 OFFCURVE",
"541 903 CURVE",
"541 796 OFFCURVE",
"547 692 OFFCURVE",
"559 590 CURVE SMOOTH",
"602 184 LINE SMOOTH",
"617 44 OFFCURVE",
"666 -20 OFFCURVE",
"786 -20 CURVE SMOOTH",
"821 -20 OFFCURVE",
"870 -10 OFFCURVE",
"897 2 CURVE",
"897 127 LINE",
"874 119 OFFCURVE",
"852 115 OFFCURVE",
"829 115 CURVE SMOOTH",
"790 115 OFFCURVE",
"767 148 OFFCURVE",
"760 213 CURVE SMOOTH",
"641 1262 LINE SMOOTH",
"632 1342 OFFCURVE",
"616 1403 OFFCURVE",
"595 1446 CURVE SMOOTH",
"552 1530 OFFCURVE",
"476 1569 OFFCURVE",
"348 1569 CURVE SMOOTH",
"300 1569 OFFCURVE",
"255 1563 OFFCURVE",
"213 1552 CURVE",
"233 1419 LINE",
"265 1426 OFFCURVE",
"299 1430 OFFCURVE",
"336 1430 CURVE SMOOTH",
"425 1430 OFFCURVE",
"471 1370 OFFCURVE",
"487 1225 CURVE SMOOTH",
"506 1077 LINE",
"-117 0 LINE"
);
}
);
width = 989;
}
);
note = lambda;
unicode = 03BB;
},
{
glyphname = nu;
lastChange = "2017-04-22 20:56:27 +0000";
layers = (
{
layerId = "6A44F957-816A-4D1D-8CAD-45EB0FE52ECF";
paths = (
{
closed = 1;
nodes = (
"410 0 LINE",
"746 295 OFFCURVE",
"922 609 OFFCURVE",
"1022 1096 CURVE",
"856 1096 LINE",
"757 651 OFFCURVE",
"604 361 OFFCURVE",
"367 145 CURVE",
"360 254 OFFCURVE",
"351 362 OFFCURVE",
"340 469 CURVE SMOOTH",
"266 1096 LINE",
"98 1096 LINE",
"233 0 LINE"
);
}
);
width = 1001;
}
);
note = nu;
unicode = 03BD;
},
{
glyphname = xi;
lastChange = "2017-04-22 20:56:27 +0000";
layers = (
{
layerId = "6A44F957-816A-4D1D-8CAD-45EB0FE52ECF";
paths = (
{
closed = 1;
nodes = (
"760 883 LINE SMOOTH",
"558 883 OFFCURVE",
"457 955 OFFCURVE",
"457 1098 CURVE SMOOTH",
"457 1161 OFFCURVE",
"480 1218 OFFCURVE",
"527 1267 CURVE SMOOTH",
"619 1366 OFFCURVE",
"787 1423 OFFCURVE",
"967 1423 CURVE SMOOTH",
"973 1423 LINE",
"1001 1556 LINE",
"395 1556 LINE",
"365 1411 LINE",
"422 1411 LINE SMOOTH",
"481 1411 OFFCURVE",
"534 1414 OFFCURVE",
"579 1419 CURVE SMOOTH",
"625 1423 LINE",
"428 1375 OFFCURVE",
"295 1240 OFFCURVE",
"295 1085 CURVE SMOOTH",
"295 958 OFFCURVE",
"368 868 OFFCURVE",
"512 825 CURVE",
"512 819 LINE",
"241 760 OFFCURVE",
"82 593 OFFCURVE",
"82 362 CURVE SMOOTH",
"82 183 OFFCURVE",
"162 79 OFFCURVE",
"354 6 CURVE SMOOTH",
"439 -26 OFFCURVE",
"494 -53 OFFCURVE",
"518 -75 CURVE",
"541 -98 OFFCURVE",
"553 -125 OFFCURVE",
"553 -158 CURVE SMOOTH",
"553 -196 OFFCURVE",
"541 -233 OFFCURVE",
"516 -269 CURVE SMOOTH",
"491 -305 OFFCURVE",
"442 -355 OFFCURVE",
"369 -418 CURVE",
"551 -418 LINE",
"678 -307 OFFCURVE",
"719 -223 OFFCURVE",
"719 -131 CURVE SMOOTH",
"719 -16 OFFCURVE",
"638 71 OFFCURVE",
"475 129 CURVE SMOOTH",
"303 197 OFFCURVE",
"254 256 OFFCURVE",
"254 381 CURVE SMOOTH",
"254 457 OFFCURVE",
"275 523 OFFCURVE",
"317 578 CURVE SMOOTH",
"401 689 OFFCURVE",
"559 750 OFFCURVE",
"743 750 CURVE SMOOTH",
"823 750 LINE",
"852 883 LINE"
);
}
);
width = 911;
}
);
note = xi;
unicode = 03BE;
},
{
glyphname = pi;
lastChange = "2017-04-22 20:56:27 +0000";
layers = (
{
layerId = "6A44F957-816A-4D1D-8CAD-45EB0FE52ECF";
paths = (
{
closed = 1;
nodes = (
"901 117 OFFCURVE",
"879 143 OFFCURVE",
"879 182 CURVE SMOOTH",
"879 209 OFFCURVE",
"883 242 OFFCURVE",
"891 281 CURVE SMOOTH",
"1030 950 LINE",
"1239 950 LINE",
"1270 1096 LINE",
"285 1096 LINE",
"88 1016 LINE",
"76 950 LINE",
"297 950 LINE",
"92 0 LINE",
"262 0 LINE",
"467 950 LINE",
"862 950 LINE",
"727 297 LINE SMOOTH",
"715 242 OFFCURVE",
"709 195 OFFCURVE",
"709 154 CURVE SMOOTH",
"709 46 OFFCURVE",
"774 -20 OFFCURVE",
"895 -20 CURVE SMOOTH",
"937 -20 OFFCURVE",
"981 -13 OFFCURVE",
"1028 0 CURVE",
"1028 133 LINE",
"1001 122 OFFCURVE",
"973 117 OFFCURVE",
"944 117 CURVE SMOOTH"
);
}
);
width = 1229;
}
);
note = pi;
unicode = 03C0;
},
{
glyphname = rho;
lastChange = "2017-04-22 20:56:27 +0000";
layers = (
{
layerId = "6A44F957-816A-4D1D-8CAD-45EB0FE52ECF";
paths = (
{
closed = 1;
nodes = (
"1069 965 OFFCURVE",
"934 1114 OFFCURVE",
"682 1114 CURVE SMOOTH",
"423 1114 OFFCURVE",
"262 960 OFFCURVE",
"199 651 CURVE SMOOTH",
"-43 -492 LINE",
"123 -492 LINE",
"184 -198 OFFCURVE",
"218 -33 OFFCURVE",
"225 4 CURVE SMOOTH",
"232 41 OFFCURVE",
"237 75 OFFCURVE",
"242 106 CURVE",
"337 14 OFFCURVE",
"428 -20 OFFCURVE",
"545 -20 CURVE SMOOTH",
"644 -20 OFFCURVE",
"733 9 OFFCURVE",
"812 68 CURVE SMOOTH",
"968 184 OFFCURVE",
"1069 433 OFFCURVE",
"1069 682 CURVE SMOOTH"
);
},
{
closed = 1;
nodes = (
"819 975 OFFCURVE",
"899 876 OFFCURVE",
"899 684 CURVE SMOOTH",
"899 587 OFFCURVE",
"883 493 OFFCURVE",
"852 404 CURVE SMOOTH",
"789 225 OFFCURVE",
"673 119 OFFCURVE",
"530 119 CURVE SMOOTH",
"433 119 OFFCURVE",
"347 156 OFFCURVE",
"274 229 CURVE",
"356 610 LINE SMOOTH",
"415 874 OFFCURVE",
"511 975 OFFCURVE",
"672 975 CURVE SMOOTH"
);
}
);
width = 1169;
}
);
note = rho;
unicode = 03C1;
},
{
glyphname = sigma1;
lastChange = "2017-04-22 20:56:27 +0000";
layers = (
{
layerId = "6A44F957-816A-4D1D-8CAD-45EB0FE52ECF";
paths = (
{
closed = 1;
nodes = (
"270 529 OFFCURVE",
"288 618 OFFCURVE",
"324 705 CURVE SMOOTH",
"396 878 OFFCURVE",
"519 975 OFFCURVE",
"666 975 CURVE SMOOTH",
"761 975 OFFCURVE",
"835 947 OFFCURVE",
"891 924 CURVE",
"938 1065 LINE",
"849 1099 OFFCURVE",
"761 1116 OFFCURVE",
"672 1116 CURVE SMOOTH",
"563 1116 OFFCURVE",
"466 1087 OFFCURVE",
"381 1028 CURVE SMOOTH",
"209 911 OFFCURVE",
"98 675 OFFCURVE",
"98 422 CURVE SMOOTH",
"98 218 OFFCURVE",
"187 74 OFFCURVE",
"391 -2 CURVE SMOOTH",
"464 -29 OFFCURVE",
"512 -53 OFFCURVE",
"535 -73 CURVE SMOOTH",
"558 -94 OFFCURVE",
"569 -121 OFFCURVE",
"569 -156 CURVE SMOOTH",
"569 -240 OFFCURVE",
"510 -319 OFFCURVE",
"385 -430 CURVE",
"565 -430 LINE",
"689 -318 OFFCURVE",
"735 -232 OFFCURVE",
"735 -139 CURVE SMOOTH",
"735 -20 OFFCURVE",
"679 54 OFFCURVE",
"502 123 CURVE SMOOTH",
"439 147 OFFCURVE",
"393 172 OFFCURVE",
"362 198 CURVE SMOOTH",
"300 250 OFFCURVE",
"270 323 OFFCURVE",
"270 438 CURVE SMOOTH"
);
}
);
width = 928;
}
);
note = sigma1;
unicode = 03C2;
},
{
glyphname = sigma;
lastChange = "2017-04-22 20:56:27 +0000";
layers = (
{
layerId = "6A44F957-816A-4D1D-8CAD-45EB0FE52ECF";
paths = (
{
closed = 1;
nodes = (
"1020 647 OFFCURVE",
"1017 689 OFFCURVE",
"1011 725 CURVE SMOOTH",
"998 796 OFFCURVE",
"981 845 OFFCURVE",
"924 950 CURVE",
"1190 950 LINE",
"1219 1096 LINE",
"717 1096 LINE SMOOTH",
"326 1096 OFFCURVE",
"98 848 OFFCURVE",
"98 436 CURVE SMOOTH",
"98 140 OFFCURVE",
"237 -16 OFFCURVE",
"502 -16 CURVE SMOOTH",
"603 -16 OFFCURVE",
"691 9 OFFCURVE",
"768 59 CURVE SMOOTH",
"920 158 OFFCURVE",
"1020 368 OFFCURVE",
"1020 600 CURVE SMOOTH"
);
},
{
closed = 1;
nodes = (
"830 871 OFFCURVE",
"854 769 OFFCURVE",
"854 643 CURVE SMOOTH",
"854 315 OFFCURVE",
"731 123 OFFCURVE",
"514 123 CURVE SMOOTH",
"354 123 OFFCURVE",
"270 230 OFFCURVE",
"270 438 CURVE SMOOTH",
"270 770 OFFCURVE",
"424 950 OFFCURVE",
"711 950 CURVE SMOOTH",
"782 950 LINE"
);
}
);
width = 1190;
}
);
note = sigma;
unicode = 03C3;
},
{
glyphname = tau;
lastChange = "2017-04-22 20:56:27 +0000";
layers = (
{
layerId = "6A44F957-816A-4D1D-8CAD-45EB0FE52ECF";
paths = (
{
closed = 1;
nodes = (
"457 117 OFFCURVE",
"416 156 OFFCURVE",
"416 233 CURVE SMOOTH",
"416 274 OFFCURVE",
"424 332 OFFCURVE",
"440 406 CURVE SMOOTH",
"557 950 LINE",
"889 950 LINE",
"920 1096 LINE",
"285 1096 LINE",
"88 1016 LINE",
"76 950 LINE",
"387 950 LINE",
"274 412 LINE SMOOTH",
"255 325 OFFCURVE",
"246 260 OFFCURVE",
"246 217 CURVE SMOOTH",
"246 60 OFFCURVE",
"337 -20 OFFCURVE",
"504 -20 CURVE SMOOTH",
"547 -20 OFFCURVE",
"626 -5 OFFCURVE",
"670 14 CURVE",
"670 143 LINE",
"609 126 OFFCURVE",
"561 117 OFFCURVE",
"526 117 CURVE SMOOTH"
);
}
);
width = 856;
}
);
note = tau;
unicode = 03C4;
},
{
glyphname = upsilon;
lastChange = "2017-05-14 16:29:54 +0000";
layers = (
{
anchors = (
{
name = top;
position = "{706, 1096}";
}
);
layerId = "6A44F957-816A-4D1D-8CAD-45EB0FE52ECF";
paths = (
{
closed = 1;
nodes = (
"901 -20 OFFCURVE",
"1098 352 OFFCURVE",
"1098 1096 CURVE",
"930 1096 LINE",
"930 875 OFFCURVE",
"914 693 OFFCURVE",
"882 548 CURVE SMOOTH",
"817 259 OFFCURVE",
"693 117 OFFCURVE",
"518 117 CURVE SMOOTH",
"385 117 OFFCURVE",
"301 186 OFFCURVE",
"301 346 CURVE SMOOTH",
"301 397 OFFCURVE",
"312 472 OFFCURVE",
"334 571 CURVE SMOOTH",
"444 1096 LINE",
"276 1096 LINE",
"195 709 OFFCURVE",
"151 494 OFFCURVE",
"144 451 CURVE SMOOTH",
"137 408 OFFCURVE",
"133 370 OFFCURVE",
"133 338 CURVE SMOOTH",
"133 110 OFFCURVE",
"267 -20 OFFCURVE",
"508 -20 CURVE SMOOTH"
);
}
);
width = 1180;
}
);
note = upsilon;
unicode = 03C5;
},
{
glyphname = phi;
lastChange = "2017-04-22 20:56:27 +0000";
layers = (
{
layerId = "6A44F957-816A-4D1D-8CAD-45EB0FE52ECF";
paths = (
{
closed = 1;
nodes = (
"535 -492 LINE",
"633 -23 LINE",
"764 -14 OFFCURVE",
"877 22 OFFCURVE",
"972 85 CURVE SMOOTH",
"1162 211 OFFCURVE",
"1274 450 OFFCURVE",
"1274 750 CURVE SMOOTH",
"1274 979 OFFCURVE",
"1178 1114 OFFCURVE",
"987 1114 CURVE SMOOTH",
"800 1114 OFFCURVE",
"687 1007 OFFCURVE",
"635 762 CURVE SMOOTH",
"500 119 LINE",
"343 139 OFFCURVE",
"264 243 OFFCURVE",
"264 432 CURVE SMOOTH",
"264 648 OFFCURVE",
"344 817 OFFCURVE",
"539 1004 CURVE",
"432 1104 LINE",
"197 883 OFFCURVE",
"98 678 OFFCURVE",
"98 414 CURVE SMOOTH",
"98 167 OFFCURVE",
"236 9 OFFCURVE",
"469 -18 CURVE",
"369 -492 LINE"
);
},
{
closed = 1;
nodes = (
"1106 629 OFFCURVE",
"1088 525 OFFCURVE",
"1051 430 CURVE SMOOTH",
"977 241 OFFCURVE",
"843 136 OFFCURVE",
"666 119 CURVE",
"799 739 LINE SMOOTH",
"835 912 OFFCURVE",
"882 973 OFFCURVE",
"977 973 CURVE SMOOTH",
"1063 973 OFFCURVE",
"1106 896 OFFCURVE",
"1106 743 CURVE SMOOTH"
);
}
);
width = 1372;
}
);
note = phi;
unicode = 03C6;
},
{
glyphname = chi;
lastChange = "2017-04-22 20:56:27 +0000";
layers = (
{
layerId = "6A44F957-816A-4D1D-8CAD-45EB0FE52ECF";
paths = (
{
closed = 1;
nodes = (
"204 1098 OFFCURVE",
"160 1089 OFFCURVE",
"113 1071 CURVE",
"143 948 LINE",
"177 958 OFFCURVE",
"200 963 OFFCURVE",
"211 963 CURVE SMOOTH",
"272 963 OFFCURVE",
"307 926 OFFCURVE",
"319 821 CURVE SMOOTH",
"379 340 LINE",
"-229 -492 LINE",
"-39 -492 LINE",
"416 158 LINE",
"463 -213 LINE SMOOTH",
"488 -417 OFFCURVE",
"562 -492 OFFCURVE",
"698 -492 CURVE SMOOTH",
"740 -492 OFFCURVE",
"783 -484 OFFCURVE",
"827 -469 CURVE",
"827 -344 LINE",
"800 -352 OFFCURVE",
"773 -356 OFFCURVE",
"748 -356 CURVE SMOOTH",
"669 -356 OFFCURVE",
"637 -317 OFFCURVE",
"618 -193 CURVE SMOOTH",
"551 305 LINE",
"1100 1096 LINE",
"924 1096 LINE",
"514 494 LINE",
"473 846 LINE SMOOTH",
"450 1027 OFFCURVE",
"381 1098 OFFCURVE",
"246 1098 CURVE SMOOTH"
);
}
);
width = 1030;
}
);
note = chi;
unicode = 03C7;
},
{
glyphname = psi;
lastChange = "2017-04-22 20:56:27 +0000";
layers = (
{
layerId = "6A44F957-816A-4D1D-8CAD-45EB0FE52ECF";
paths = (
{
closed = 1;
nodes = (
"557 123 LINE",
"394 139 OFFCURVE",
"313 223 OFFCURVE",
"313 395 CURVE SMOOTH",
"313 443 OFFCURVE",
"321 506 OFFCURVE",
"338 584 CURVE SMOOTH",
"444 1096 LINE",
"276 1096 LINE",
"170 588 LINE SMOOTH",
"152 507 OFFCURVE",
"143 436 OFFCURVE",
"143 375 CURVE SMOOTH",
"143 142 OFFCURVE",
"280 9 OFFCURVE",
"528 -14 CURVE",
"426 -492 LINE",
"592 -492 LINE",
"692 -14 LINE",
"851 -5 OFFCURVE",
"981 39 OFFCURVE",
"1083 118 CURVE SMOOTH",
"1286 275 OFFCURVE",
"1382 575 OFFCURVE",
"1382 1096 CURVE",
"1210 1096 LINE",
"1210 869 OFFCURVE",
"1193 688 OFFCURVE",
"1160 554 CURVE SMOOTH",
"1092 286 OFFCURVE",
"948 150 OFFCURVE",
"723 127 CURVE",
"1026 1554 LINE",
"860 1554 LINE"
);
}
);
width = 1462;
}
);
note = psi;
unicode = 03C8;
},
{
glyphname = omega;
lastChange = "2017-05-14 16:29:54 +0000";
layers = (
{
anchors = (
{
name = bottom;
position = "{632, 0}";
},
{
name = top;
position = "{864, 1096}";
}
);
layerId = "6A44F957-816A-4D1D-8CAD-45EB0FE52ECF";
paths = (
{
closed = 1;
nodes = (
"510 -20 OFFCURVE",
"597 39 OFFCURVE",
"672 156 CURVE",
"703 51 OFFCURVE",
"781 -20 OFFCURVE",
"905 -20 CURVE SMOOTH",
"1002 -20 OFFCURVE",
"1087 12 OFFCURVE",
"1160 77 CURVE SMOOTH",
"1306 206 OFFCURVE",
"1399 489 OFFCURVE",
"1399 778 CURVE SMOOTH",
"1399 892 OFFCURVE",
"1389 998 OFFCURVE",
"1368 1096 CURVE",
"1200 1096 LINE",
"1218 999 OFFCURVE",
"1227 891 OFFCURVE",
"1227 772 CURVE SMOOTH",
"1227 657 OFFCURVE",
"1213 546 OFFCURVE",
"1185 440 CURVE SMOOTH",
"1129 228 OFFCURVE",
"1032 121 OFFCURVE",
"913 121 CURVE SMOOTH",
"833 121 OFFCURVE",
"786 178 OFFCURVE",
"786 287 CURVE SMOOTH",
"786 325 OFFCURVE",
"792 369 OFFCURVE",
"803 418 CURVE SMOOTH",
"864 696 LINE",
"698 696 LINE",
"633 391 LINE SMOOTH",
"594 211 OFFCURVE",
"522 121 OFFCURVE",
"416 121 CURVE SMOOTH",
"319 121 OFFCURVE",
"270 197 OFFCURVE",
"270 350 CURVE SMOOTH",
"270 574 OFFCURVE",
"359 823 OFFCURVE",
"537 1096 CURVE",
"360 1096 LINE",
"192 851 OFFCURVE",
"98 587 OFFCURVE",
"98 346 CURVE SMOOTH",
"98 118 OFFCURVE",
"201 -20 OFFCURVE",
"377 -20 CURVE SMOOTH"
);
}
);
width = 1495;
}
);
note = omega;
unicode = 03C9;
},
{
glyphname = afii10051;
lastChange = "2017-04-22 20:56:27 +0000";
layers = (
{
layerId = "6A44F957-816A-4D1D-8CAD-45EB0FE52ECF";
paths = (
{
closed = 1;
nodes = (
"1018 -20 OFFCURVE",
"1137 90 OFFCURVE",
"1186 334 CURVE SMOOTH",
"1200 406 LINE SMOOTH",
"1213 469 OFFCURVE",
"1219 529 OFFCURVE",
"1219 586 CURVE SMOOTH",
"1219 791 OFFCURVE",
"1095 893 OFFCURVE",
"848 893 CURVE SMOOTH",
"590 893 LINE",
"680 1311 LINE",
"1090 1311 LINE",
"1120 1462 LINE",
"219 1462 LINE",
"186 1311 LINE",
"508 1311 LINE",
"229 0 LINE",
"401 0 LINE",
"557 741 LINE",
"836 741 LINE SMOOTH",
"980 741 OFFCURVE",
"1049 686 OFFCURVE",
"1049 569 CURVE SMOOTH",
"1049 529 OFFCURVE",
"1039 458 OFFCURVE",
"1020 356 CURVE SMOOTH",
"985 188 OFFCURVE",
"918 131 OFFCURVE",
"795 131 CURVE SMOOTH",
"750 131 OFFCURVE",
"708 138 OFFCURVE",
"668 152 CURVE",
"668 0 LINE",
"713 -13 OFFCURVE",
"758 -20 OFFCURVE",
"805 -20 CURVE SMOOTH"
);
}
);
width = 1366;
}
);
note = afii10051;
unicode = 0402;
},
{
glyphname = afii10053;
lastChange = "2017-04-22 20:56:27 +0000";
layers = (
{
layerId = "6A44F957-816A-4D1D-8CAD-45EB0FE52ECF";
paths = (
{
closed = 1;
nodes = (
"1036 1331 OFFCURVE",
"1129 1308 OFFCURVE",
"1221 1262 CURVE",
"1290 1403 LINE",
"1189 1456 OFFCURVE",
"1073 1483 OFFCURVE",
"942 1483 CURVE SMOOTH",
"792 1483 OFFCURVE",
"658 1444 OFFCURVE",
"539 1365 CURVE SMOOTH",
"302 1208 OFFCURVE",
"150 885 OFFCURVE",
"150 537 CURVE SMOOTH",
"150 185 OFFCURVE",
"340 -20 OFFCURVE",
"668 -20 CURVE SMOOTH",
"815 -20 OFFCURVE",
"905 -2 OFFCURVE",
"1020 39 CURVE",
"1020 188 LINE",
"898 150 OFFCURVE",
"791 131 OFFCURVE",
"698 131 CURVE SMOOTH",
"466 131 OFFCURVE",
"332 281 OFFCURVE",
"332 541 CURVE SMOOTH",
"332 600 OFFCURVE",
"335 651 OFFCURVE",
"342 692 CURVE",
"967 692 LINE",
"997 844 LINE",
"375 844 LINE",
"460 1145 OFFCURVE",
"670 1331 OFFCURVE",
"942 1331 CURVE SMOOTH"
);
}
);
width = 1198;
}
);
note = afii10053;
unicode = 0404;
},
{
glyphname = afii10058;
lastChange = "2017-04-22 20:56:27 +0000";
layers = (
{
layerId = "6A44F957-816A-4D1D-8CAD-45EB0FE52ECF";
paths = (
{
closed = 1;
nodes = (
"803 0 LINE",
"1126 0 LINE SMOOTH",
"1494 0 OFFCURVE",
"1700 173 OFFCURVE",
"1700 481 CURVE SMOOTH",
"1700 719 OFFCURVE",
"1553 838 OFFCURVE",
"1260 838 CURVE SMOOTH",
"1151 838 LINE",
"1282 1462 LINE",
"616 1462 LINE",
"515 1085 OFFCURVE",
"440 818 OFFCURVE",
"392 661 CURVE SMOOTH",
"343 504 OFFCURVE",
"303 390 OFFCURVE",
"272 321 CURVE SMOOTH",
"209 182 OFFCURVE",
"148 129 OFFCURVE",
"37 129 CURVE SMOOTH",
"3 129 OFFCURVE",
"-31 136 OFFCURVE",
"-66 150 CURVE",
"-66 0 LINE",
"-33 -15 OFFCURVE",
"8 -23 OFFCURVE",
"59 -23 CURVE SMOOTH",
"230 -23 OFFCURVE",
"340 56 OFFCURVE",
"426 255 CURVE SMOOTH",
"512 454 OFFCURVE",
"641 920 OFFCURVE",
"741 1309 CURVE",
"1079 1309 LINE"
);
},
{
closed = 1;
nodes = (
"1120 690 LINE",
"1262 690 LINE SMOOTH",
"1442 690 OFFCURVE",
"1524 618 OFFCURVE",
"1524 465 CURVE SMOOTH",
"1524 252 OFFCURVE",
"1400 145 OFFCURVE",
"1153 145 CURVE SMOOTH",
"1004 145 LINE"
);
}
);
width = 1821;
}
);
note = afii10058;
unicode = 0409;
},
{
glyphname = afii10059;
lastChange = "2017-04-22 20:56:27 +0000";
layers = (
{
layerId = "6A44F957-816A-4D1D-8CAD-45EB0FE52ECF";
paths = (
{
closed = 1;
nodes = (
"434 840 LINE",
"565 1462 LINE",
"395 1462 LINE",
"86 0 LINE",
"256 0 LINE",
"401 688 LINE",
"973 688 LINE",
"829 0 LINE",
"1153 0 LINE SMOOTH",
"1522 0 OFFCURVE",
"1726 174 OFFCURVE",
"1726 481 CURVE SMOOTH",
"1726 720 OFFCURVE",
"1579 840 OFFCURVE",
"1286 840 CURVE SMOOTH",
"1176 840 LINE",
"1309 1462 LINE",
"1139 1462 LINE",
"1006 840 LINE"
);
},
{
closed = 1;
nodes = (
"1147 688 LINE",
"1288 688 LINE SMOOTH",
"1473 688 OFFCURVE",
"1550 614 OFFCURVE",
"1550 465 CURVE SMOOTH",
"1550 252 OFFCURVE",
"1427 145 OFFCURVE",
"1180 145 CURVE SMOOTH",
"1030 145 LINE"
);
}
);
width = 1847;
}
);
note = afii10059;
unicode = 040A;
},
{
glyphname = afii10060;
lastChange = "2017-04-22 20:56:27 +0000";
layers = (
{
layerId = "6A44F957-816A-4D1D-8CAD-45EB0FE52ECF";
paths = (
{
closed = 1;
nodes = (
"1049 530 OFFCURVE",
"1042 478 OFFCURVE",
"1028 416 CURVE SMOOTH",
"938 0 LINE",
"1110 0 LINE",
"1170 287 OFFCURVE",
"1203 449 OFFCURVE",
"1210 487 CURVE SMOOTH",
"1216 524 OFFCURVE",
"1219 556 OFFCURVE",
"1219 582 CURVE SMOOTH",
"1219 789 OFFCURVE",
"1107 893 OFFCURVE",
"862 893 CURVE SMOOTH",
"590 893 LINE",
"680 1311 LINE",
"1090 1311 LINE",
"1120 1462 LINE",
"219 1462 LINE",
"186 1311 LINE",
"508 1311 LINE",
"229 0 LINE",
"401 0 LINE",
"557 741 LINE",
"836 741 LINE SMOOTH",
"980 741 OFFCURVE",
"1049 691 OFFCURVE",
"1049 571 CURVE SMOOTH"
);
}
);
width = 1366;
}
);
note = afii10060;
unicode = 040B;
},
{
glyphname = afii10145;
lastChange = "2017-04-22 20:56:27 +0000";
layers = (
{
layerId = "6A44F957-816A-4D1D-8CAD-45EB0FE52ECF";
paths = (
{
closed = 1;
nodes = (
"510 0 LINE",
"428 -381 LINE",
"590 -381 LINE",
"670 0 LINE",
"1092 0 LINE",
"1401 1462 LINE",
"1229 1462 LINE",
"952 152 LINE",
"291 152 LINE",
"567 1462 LINE",
"395 1462 LINE",
"86 0 LINE"
);
}
);
width = 1391;
}
);
note = afii10145;
unicode = 040F;
},
{
glyphname = afii10018;
lastChange = "2017-04-22 20:56:27 +0000";
layers = (
{
layerId = "6A44F957-816A-4D1D-8CAD-45EB0FE52ECF";
paths = (
{
closed = 1;
nodes = (
"539 1309 LINE",
"1098 1309 LINE",
"1130 1462 LINE",
"399 1462 LINE",
"90 0 LINE",
"457 0 LINE SMOOTH",
"826 0 OFFCURVE",
"1030 174 OFFCURVE",
"1030 481 CURVE SMOOTH",
"1030 719 OFFCURVE",
"883 838 OFFCURVE",
"590 838 CURVE SMOOTH",
"438 838 LINE"
);
},
{
closed = 1;
nodes = (
"408 690 LINE",
"592 690 LINE SMOOTH",
"775 690 OFFCURVE",
"854 617 OFFCURVE",
"854 465 CURVE SMOOTH",
"854 252 OFFCURVE",
"730 145 OFFCURVE",
"483 145 CURVE SMOOTH",
"291 145 LINE"
);
}
);
width = 1155;
}
);
note = afii10018;
unicode = 0411;
},
{
glyphname = afii10021;
lastChange = "2017-04-22 20:56:27 +0000";
layers = (
{
layerId = "6A44F957-816A-4D1D-8CAD-45EB0FE52ECF";
paths = (
{
closed = 1;
nodes = (
"1171 154 LINE",
"985 154 LINE",
"1262 1462 LINE",
"682 1462 LINE",
"656 1354 OFFCURVE",
"612 1225 OFFCURVE",
"549 1074 CURVE SMOOTH",
"424 772 OFFCURVE",
"230 410 OFFCURVE",
"45 154 CURVE",
"-57 154 LINE",
"-170 -379 LINE",
"-12 -379 LINE",
"68 0 LINE",
"975 0 LINE",
"895 -379 LINE",
"1057 -379 LINE"
);
},
{
closed = 1;
nodes = (
"238 154 LINE",
"434 427 OFFCURVE",
"704 975 OFFCURVE",
"807 1307 CURVE",
"1057 1307 LINE",
"811 154 LINE"
);
}
);
width = 1272;
}
);
note = afii10021;
unicode = 0414;
},
{
glyphname = afii10024;
lastChange = "2017-05-14 16:29:54 +0000";
layers = (
{
anchors = (
{
name = bottomright;
position = "{1453, 0}";
},
{
name = top;
position = "{989, 1462}";
}
);
layerId = "6A44F957-816A-4D1D-8CAD-45EB0FE52ECF";
paths = (
{
closed = 1;
nodes = (
"109 0 LINE",
"758 731 LINE",
"604 0 LINE",
"770 0 LINE",
"924 731 LINE",
"1286 0 LINE",
"1477 0 LINE",
"1102 727 LINE",
"1776 1462 LINE",
"1569 1462 LINE",
"932 764 LINE",
"1079 1462 LINE",
"913 1462 LINE",
"766 764 LINE",
"406 1462 LINE",
"219 1462 LINE",
"584 768 LINE",
"-100 0 LINE"
);
}
);
width = 1589;
}
);
note = afii10024;
unicode = 0416;
},
{
glyphname = afii10025;
lastChange = "2017-05-14 16:29:54 +0000";
layers = (
{
anchors = (
{
name = bottom;
position = "{429, 0}";
},
{
name = top;
position = "{739, 1462}";
}
);
layerId = "6A44F957-816A-4D1D-8CAD-45EB0FE52ECF";
paths = (
{
closed = 1;
nodes = (
"1063 1360 OFFCURVE",
"919 1483 OFFCURVE",
"690 1483 CURVE SMOOTH",
"518 1483 OFFCURVE",
"384 1445 OFFCURVE",
"233 1346 CURVE",
"305 1223 LINE",
"428 1302 OFFCURVE",
"545 1341 OFFCURVE",
"657 1341 CURVE SMOOTH",
"797 1341 OFFCURVE",
"887 1278 OFFCURVE",
"887 1137 CURVE SMOOTH",
"887 942 OFFCURVE",
"732 825 OFFCURVE",
"483 825 CURVE SMOOTH",
"283 825 LINE",
"254 684 LINE",
"469 684 LINE SMOOTH",
"684 684 OFFCURVE",
"791 601 OFFCURVE",
"791 436 CURVE SMOOTH",
"791 244 OFFCURVE",
"646 121 OFFCURVE",
"399 121 CURVE SMOOTH",
"250 121 OFFCURVE",
"98 165 OFFCURVE",
"-6 225 CURVE",
"-6 59 LINE",
"105 6 OFFCURVE",
"235 -20 OFFCURVE",
"385 -20 CURVE SMOOTH",
"505 -20 OFFCURVE",
"609 -1 OFFCURVE",
"698 36 CURVE SMOOTH",
"874 111 OFFCURVE",
"973 255 OFFCURVE",
"973 428 CURVE SMOOTH",
"973 611 OFFCURVE",
"862 725 OFFCURVE",
"690 750 CURVE",
"690 756 LINE",
"919 803 OFFCURVE",
"1063 954 OFFCURVE",
"1063 1159 CURVE SMOOTH"
);
}
);
width = 1090;
}
);
note = afii10025;
unicode = 0417;
},
{
glyphname = afii10026;
lastChange = "2017-05-14 16:29:54 +0000";
layers = (
{
anchors = (
{
name = bottomright;
position = "{1291, 0}";
},
{
name = top;
position = "{908, 1462}";
}
);
layerId = "6A44F957-816A-4D1D-8CAD-45EB0FE52ECF";
paths = (
{
closed = 1;
nodes = (
"285 0 LINE",
"1231 1235 LINE",
"1235 1235 LINE",
"1212 1154 OFFCURVE",
"1181 1018 OFFCURVE",
"1141 825 CURVE SMOOTH",
"967 0 LINE",
"1128 0 LINE",
"1438 1462 LINE",
"1239 1462 LINE",
"299 250 LINE",
"295 250 LINE",
"385 645 LINE",
"559 1462 LINE",
"395 1462 LINE",
"86 0 LINE"
);
}
);
width = 1427;
}
);
note = afii10026;
unicode = 0418;
},
{
glyphname = afii10028;
lastChange = "2017-05-14 16:29:54 +0000";
layers = (
{
anchors = (
{
name = bottomright;
position = "{1009, 0}";
},
{
name = top;
position = "{767, 1462}";
}
);
layerId = "6A44F957-816A-4D1D-8CAD-45EB0FE52ECF";
paths = (
{
closed = 1;
nodes = (
"1329 1462 LINE",
"1118 1462 LINE",
"414 750 LINE",
"565 1462 LINE",
"395 1462 LINE",
"86 0 LINE",
"256 0 LINE",
"408 725 LINE",
"868 0 LINE",
"1065 0 LINE",
"592 731 LINE"
);
}
);
width = 1145;
}
);
note = afii10028;
unicode = 041A;
},
{
glyphname = afii10029;
lastChange = "2017-04-22 20:56:27 +0000";
layers = (
{
layerId = "6A44F957-816A-4D1D-8CAD-45EB0FE52ECF";
paths = (
{
closed = 1;
nodes = (
"846 0 LINE",
"1018 0 LINE",
"1329 1462 LINE",
"616 1462 LINE",
"515 1085 OFFCURVE",
"440 818 OFFCURVE",
"392 661 CURVE SMOOTH",
"343 504 OFFCURVE",
"303 390 OFFCURVE",
"272 321 CURVE SMOOTH",
"209 182 OFFCURVE",
"148 129 OFFCURVE",
"37 129 CURVE SMOOTH",
"3 129 OFFCURVE",
"-31 136 OFFCURVE",
"-66 150 CURVE",
"-66 0 LINE",
"-33 -15 OFFCURVE",
"8 -23 OFFCURVE",
"59 -23 CURVE SMOOTH",
"230 -23 OFFCURVE",
"340 56 OFFCURVE",
"426 255 CURVE SMOOTH",
"512 454 OFFCURVE",
"641 920 OFFCURVE",
"741 1309 CURVE",
"1124 1309 LINE"
);
}
);
width = 1319;
}
);
note = afii10029;
unicode = 041B;
},
{
glyphname = afii10037;
lastChange = "2017-05-14 16:29:54 +0000";
layers = (
{
anchors = (
{
name = top;
position = "{780, 1462}";
}
);
layerId = "6A44F957-816A-4D1D-8CAD-45EB0FE52ECF";
paths = (
{
closed = 1;
nodes = (
"371 -20 OFFCURVE",
"513 87 OFFCURVE",
"678 358 CURVE SMOOTH",
"1360 1462 LINE",
"1165 1462 LINE",
"760 776 LINE SMOOTH",
"717 703 OFFCURVE",
"676 621 OFFCURVE",
"635 530 CURVE",
"621 601 OFFCURVE",
"598 698 OFFCURVE",
"565 819 CURVE SMOOTH",
"387 1462 LINE",
"215 1462 LINE",
"524 420 LINE",
"393 207 OFFCURVE",
"301 137 OFFCURVE",
"160 137 CURVE SMOOTH",
"111 137 OFFCURVE",
"57 150 OFFCURVE",
"-4 176 CURVE",
"-4 8 LINE",
"37 -8 OFFCURVE",
"110 -20 OFFCURVE",
"162 -20 CURVE SMOOTH"
);
}
);
width = 1171;
}
);
note = afii10037;
unicode = 0423;
},
{
glyphname = afii10040;
lastChange = "2017-04-22 20:56:27 +0000";
layers = (
{
layerId = "6A44F957-816A-4D1D-8CAD-45EB0FE52ECF";
paths = (
{
closed = 1;
nodes = (
"1368 1462 LINE",
"1196 1462 LINE",
"920 154 LINE",
"289 154 LINE",
"565 1462 LINE",
"393 1462 LINE",
"84 0 LINE",
"1061 0 LINE",
"981 -379 LINE",
"1143 -379 LINE",
"1257 156 LINE",
"1092 156 LINE"
);
}
);
width = 1362;
}
);
note = afii10040;
unicode = 0426;
},
{
glyphname = afii10041;
lastChange = "2017-05-14 16:29:54 +0000";
layers = (
{
anchors = (
{
name = bottomright;
position = "{1173, 0}";
},
{
name = top;
position = "{849, 1462}";
}
);
layerId = "6A44F957-816A-4D1D-8CAD-45EB0FE52ECF";
paths = (
{
closed = 1;
nodes = (
"1319 1462 LINE",
"1147 1462 LINE",
"997 743 LINE",
"817 682 OFFCURVE",
"706 664 OFFCURVE",
"606 664 CURVE SMOOTH",
"473 664 OFFCURVE",
"424 717 OFFCURVE",
"424 821 CURVE SMOOTH",
"424 846 OFFCURVE",
"431 891 OFFCURVE",
"444 958 CURVE SMOOTH",
"551 1462 LINE",
"381 1462 LINE",
"272 956 LINE SMOOTH",
"257 893 OFFCURVE",
"250 837 OFFCURVE",
"250 788 CURVE SMOOTH",
"250 611 OFFCURVE",
"357 512 OFFCURVE",
"565 512 CURVE SMOOTH",
"699 512 OFFCURVE",
"832 541 OFFCURVE",
"965 600 CURVE",
"838 0 LINE",
"1010 0 LINE"
);
}
);
width = 1309;
}
);
note = afii10041;
unicode = 0427;
},
{
glyphname = afii10042;
lastChange = "2017-04-22 20:56:27 +0000";
layers = (
{
layerId = "6A44F957-816A-4D1D-8CAD-45EB0FE52ECF";
paths = (
{
closed = 1;
nodes = (
"1966 1462 LINE",
"1796 1462 LINE",
"1520 154 LINE",
"989 154 LINE",
"1266 1462 LINE",
"1096 1462 LINE",
"819 154 LINE",
"287 154 LINE",
"565 1462 LINE",
"393 1462 LINE",
"84 0 LINE",
"1657 0 LINE"
);
}
);
width = 1956;
}
);
note = afii10042;
unicode = 0428;
},
{
glyphname = afii10043;
lastChange = "2017-04-22 20:56:27 +0000";
layers = (
{
layerId = "6A44F957-816A-4D1D-8CAD-45EB0FE52ECF";
paths = (
{
closed = 1;
nodes = (
"1966 1462 LINE",
"1796 1462 LINE",
"1520 154 LINE",
"989 154 LINE",
"1266 1462 LINE",
"1096 1462 LINE",
"819 154 LINE",
"287 154 LINE",
"565 1462 LINE",
"393 1462 LINE",
"84 0 LINE",
"1659 0 LINE",
"1579 -379 LINE",
"1741 -379 LINE",
"1855 156 LINE",
"1690 156 LINE"
);
}
);
width = 1960;
}
);
note = afii10043;
unicode = 0429;
},
{
glyphname = afii10044;
lastChange = "2017-05-14 16:29:54 +0000";
layers = (
{
anchors = (
{
name = top;
position = "{834, 1462}";
}
);
layerId = "6A44F957-816A-4D1D-8CAD-45EB0FE52ECF";
paths = (
{
closed = 1;
nodes = (
"713 1462 LINE",
"219 1462 LINE",
"186 1311 LINE",
"508 1311 LINE",
"231 0 LINE",
"586 0 LINE SMOOTH",
"955 0 OFFCURVE",
"1159 174 OFFCURVE",
"1159 481 CURVE SMOOTH",
"1159 719 OFFCURVE",
"1012 838 OFFCURVE",
"719 838 CURVE SMOOTH",
"580 838 LINE"
);
},
{
closed = 1;
nodes = (
"549 690 LINE",
"721 690 LINE SMOOTH",
"904 690 OFFCURVE",
"983 617 OFFCURVE",
"983 465 CURVE SMOOTH",
"983 252 OFFCURVE",
"859 145 OFFCURVE",
"612 145 CURVE SMOOTH",
"432 145 LINE"
);
}
);
width = 1280;
}
);
note = afii10044;
unicode = 042A;
},
{
glyphname = afii10045;
lastChange = "2017-05-14 16:29:54 +0000";
layers = (
{
anchors = (
{
name = top;
position = "{999, 1462}";
}
);
layerId = "6A44F957-816A-4D1D-8CAD-45EB0FE52ECF";
paths = (
{
closed = 1;
nodes = (
"1450 1462 LINE",
"1141 0 LINE",
"1311 0 LINE",
"1620 1462 LINE"
);
},
{
closed = 1;
nodes = (
"86 0 LINE",
"440 0 LINE SMOOTH",
"808 0 OFFCURVE",
"1014 173 OFFCURVE",
"1014 481 CURVE SMOOTH",
"1014 719 OFFCURVE",
"867 838 OFFCURVE",
"573 838 CURVE SMOOTH",
"434 838 LINE",
"567 1462 LINE",
"395 1462 LINE"
);
},
{
closed = 1;
nodes = (
"403 690 LINE",
"575 690 LINE SMOOTH",
"756 690 OFFCURVE",
"838 618 OFFCURVE",
"838 465 CURVE SMOOTH",
"838 252 OFFCURVE",
"714 145 OFFCURVE",
"467 145 CURVE SMOOTH",
"287 145 LINE"
);
}
);
width = 1610;
}
);
note = afii10045;
unicode = 042B;
},
{
glyphname = afii10046;
lastChange = "2017-04-22 20:56:27 +0000";
layers = (
{
layerId = "6A44F957-816A-4D1D-8CAD-45EB0FE52ECF";
paths = (
{
closed = 1;
nodes = (
"86 0 LINE",
"440 0 LINE SMOOTH",
"808 0 OFFCURVE",
"1014 173 OFFCURVE",
"1014 481 CURVE SMOOTH",
"1014 719 OFFCURVE",
"867 838 OFFCURVE",
"573 838 CURVE SMOOTH",
"434 838 LINE",
"567 1462 LINE",
"395 1462 LINE"
);
},
{
closed = 1;
nodes = (
"403 690 LINE",
"575 690 LINE SMOOTH",
"756 690 OFFCURVE",
"838 618 OFFCURVE",
"838 465 CURVE SMOOTH",
"838 252 OFFCURVE",
"714 145 OFFCURVE",
"467 145 CURVE SMOOTH",
"287 145 LINE"
);
}
);
width = 1135;
}
);
note = afii10046;
unicode = 042C;
},
{
glyphname = afii10047;
lastChange = "2017-05-14 16:29:54 +0000";
layers = (
{
anchors = (
{
name = top;
position = "{793, 1462}";
}
);
layerId = "6A44F957-816A-4D1D-8CAD-45EB0FE52ECF";
paths = (
{
closed = 1;
nodes = (
"335 131 OFFCURVE",
"299 134 OFFCURVE",
"266 140 CURVE SMOOTH",
"200 151 OFFCURVE",
"159 161 OFFCURVE",
"18 225 CURVE",
"18 59 LINE",
"123 3 OFFCURVE",
"227 -20 OFFCURVE",
"360 -20 CURVE SMOOTH",
"523 -20 OFFCURVE",
"661 17 OFFCURVE",
"776 91 CURVE SMOOTH",
"1005 238 OFFCURVE",
"1135 537 OFFCURVE",
"1135 936 CURVE SMOOTH",
"1135 1281 OFFCURVE",
"946 1483 OFFCURVE",
"618 1483 CURVE SMOOTH",
"497 1483 OFFCURVE",
"371 1459 OFFCURVE",
"238 1411 CURVE",
"281 1268 LINE",
"452 1323 OFFCURVE",
"518 1331 OFFCURVE",
"602 1331 CURVE SMOOTH",
"822 1331 OFFCURVE",
"952 1184 OFFCURVE",
"952 936 CURVE SMOOTH",
"950 844 LINE",
"338 844 LINE",
"309 692 LINE",
"932 692 LINE",
"872 324 OFFCURVE",
"678 131 OFFCURVE",
"375 131 CURVE SMOOTH"
);
}
);
width = 1198;
}
);
note = afii10047;
unicode = 042D;
},
{
glyphname = afii10048;
lastChange = "2017-05-14 16:29:54 +0000";
layers = (
{
anchors = (
{
name = top;
position = "{1197, 1462}";
}
);
layerId = "6A44F957-816A-4D1D-8CAD-45EB0FE52ECF";
paths = (
{
closed = 1;
nodes = (
"1942 1271 OFFCURVE",
"1754 1485 OFFCURVE",
"1446 1485 CURVE SMOOTH",
"1105 1485 OFFCURVE",
"840 1235 OFFCURVE",
"752 840 CURVE",
"434 840 LINE",
"565 1462 LINE",
"395 1462 LINE",
"86 0 LINE",
"256 0 LINE",
"401 688 LINE",
"727 688 LINE",
"723 641 OFFCURVE",
"721 594 OFFCURVE",
"721 549 CURVE SMOOTH",
"721 189 OFFCURVE",
"909 -20 OFFCURVE",
"1245 -20 CURVE SMOOTH",
"1385 -20 OFFCURVE",
"1508 19 OFFCURVE",
"1614 97 CURVE SMOOTH",
"1825 253 OFFCURVE",
"1942 548 OFFCURVE",
"1942 907 CURVE SMOOTH"
);
},
{
closed = 1;
nodes = (
"1636 1333 OFFCURVE",
"1759 1179 OFFCURVE",
"1759 911 CURVE SMOOTH",
"1759 762 OFFCURVE",
"1737 627 OFFCURVE",
"1693 505 CURVE SMOOTH",
"1604 260 OFFCURVE",
"1447 131 OFFCURVE",
"1251 131 CURVE SMOOTH",
"1028 131 OFFCURVE",
"903 285 OFFCURVE",
"903 553 CURVE SMOOTH",
"903 700 OFFCURVE",
"925 833 OFFCURVE",
"968 952 CURVE SMOOTH",
"1055 1191 OFFCURVE",
"1221 1333 OFFCURVE",
"1421 1333 CURVE SMOOTH"
);
}
);
width = 2005;
}
);
note = afii10048;
unicode = 042E;
},
{
glyphname = afii10049;
lastChange = "2017-05-14 16:29:54 +0000";
layers = (
{
anchors = (
{
name = top;
position = "{777, 1462}";
}
);
layerId = "6A44F957-816A-4D1D-8CAD-45EB0FE52ECF";
paths = (
{
closed = 1;
nodes = (
"696 0 LINE",
"868 0 LINE",
"1176 1462 LINE",
"795 1462 LINE SMOOTH",
"446 1462 OFFCURVE",
"246 1294 OFFCURVE",
"246 995 CURVE SMOOTH",
"246 846 OFFCURVE",
"310 737 OFFCURVE",
"438 670 CURVE",
"-76 0 LINE",
"131 0 LINE",
"594 610 LINE",
"825 610 LINE"
);
},
{
closed = 1;
nodes = (
"709 756 LINE SMOOTH",
"525 756 OFFCURVE",
"422 847 OFFCURVE",
"422 1012 CURVE SMOOTH",
"422 1209 OFFCURVE",
"544 1315 OFFCURVE",
"795 1315 CURVE SMOOTH",
"977 1315 LINE",
"858 756 LINE"
);
}
);
width = 1165;
}
);
note = afii10049;
unicode = 042F;
},
{
glyphname = afii10066;
lastChange = "2017-04-22 20:56:27 +0000";
layers = (
{
layerId = "6A44F957-816A-4D1D-8CAD-45EB0FE52ECF";
paths = (
{
closed = 1;
nodes = (
"100 137 OFFCURVE",
"238 -20 OFFCURVE",
"489 -20 CURVE SMOOTH",
"592 -20 OFFCURVE",
"683 6 OFFCURVE",
"760 59 CURVE SMOOTH",
"914 164 OFFCURVE",
"1004 381 OFFCURVE",
"1004 649 CURVE SMOOTH",
"1004 881 OFFCURVE",
"901 1018 OFFCURVE",
"694 1018 CURVE SMOOTH",
"557 1018 OFFCURVE",
"423 948 OFFCURVE",
"324 831 CURVE",
"319 834 LINE",
"393 1106 OFFCURVE",
"516 1270 OFFCURVE",
"688 1327 CURVE SMOOTH",
"767 1352 OFFCURVE",
"895 1379 OFFCURVE",
"1072 1408 CURVE SMOOTH",
"1178 1425 LINE",
"1157 1563 LINE",
"1097 1554 OFFCURVE",
"1006 1538 OFFCURVE",
"883 1516 CURVE SMOOTH",
"638 1472 OFFCURVE",
"516 1464 OFFCURVE",
"361 1276 CURVE SMOOTH",
"205 1088 OFFCURVE",
"100 737 OFFCURVE",
"100 440 CURVE SMOOTH"
);
},
{
closed = 1;
nodes = (
"348 119 OFFCURVE",
"270 224 OFFCURVE",
"270 434 CURVE SMOOTH",
"270 502 OFFCURVE",
"278 574 OFFCURVE",
"293 651 CURVE",
"390 788 OFFCURVE",
"532 877 OFFCURVE",
"655 877 CURVE SMOOTH",
"772 877 OFFCURVE",
"831 802 OFFCURVE",
"831 629 CURVE SMOOTH",
"831 538 OFFCURVE",
"817 451 OFFCURVE",
"788 369 CURVE SMOOTH",
"731 205 OFFCURVE",
"632 119 OFFCURVE",
"504 119 CURVE SMOOTH"
);
}
);
width = 1108;
}
);
note = afii10066;
unicode = 0431;
},
{
glyphname = afii10067;
lastChange = "2017-04-22 20:56:27 +0000";
layers = (
{
layerId = "6A44F957-816A-4D1D-8CAD-45EB0FE52ECF";
paths = (
{
closed = 1;
nodes = (
"562 1114 OFFCURVE",
"461 1086 OFFCURVE",
"373 1029 CURVE SMOOTH",
"197 916 OFFCURVE",
"98 696 OFFCURVE",
"98 432 CURVE SMOOTH",
"98 136 OFFCURVE",
"247 -20 OFFCURVE",
"526 -20 CURVE SMOOTH",
"618 -20 OFFCURVE",
"698 -5 OFFCURVE",
"765 24 CURVE SMOOTH",
"899 82 OFFCURVE",
"969 187 OFFCURVE",
"969 315 CURVE SMOOTH",
"969 436 OFFCURVE",
"909 510 OFFCURVE",
"762 549 CURVE",
"762 553 LINE",
"949 596 OFFCURVE",
"1042 691 OFFCURVE",
"1042 838 CURVE SMOOTH",
"1042 1022 OFFCURVE",
"909 1114 OFFCURVE",
"676 1114 CURVE SMOOTH"
);
},
{
closed = 1;
nodes = (
"726 475 OFFCURVE",
"809 425 OFFCURVE",
"809 317 CURVE SMOOTH",
"809 196 OFFCURVE",
"706 121 OFFCURVE",
"541 121 CURVE SMOOTH",
"360 121 OFFCURVE",
"270 223 OFFCURVE",
"270 428 CURVE SMOOTH",
"270 475 LINE",
"539 475 LINE SMOOTH"
);
},
{
closed = 1;
nodes = (
"803 971 OFFCURVE",
"874 915 OFFCURVE",
"874 819 CURVE SMOOTH",
"874 688 OFFCURVE",
"749 614 OFFCURVE",
"514 614 CURVE SMOOTH",
"289 614 LINE",
"340 846 OFFCURVE",
"477 971 OFFCURVE",
"680 971 CURVE SMOOTH"
);
}
);
width = 1102;
}
);
note = afii10067;
unicode = 0432;
},
{
glyphname = afii10068;
lastChange = "2017-05-14 16:29:54 +0000";
layers = (
{
anchors = (
{
name = bottomright;
position = "{800, 0}";
},
{
name = top;
position = "{584, 1096}";
}
);
layerId = "6A44F957-816A-4D1D-8CAD-45EB0FE52ECF";
paths = (
{
closed = 1;
nodes = (
"366 949 OFFCURVE",
"468 973 OFFCURVE",
"553 973 CURVE SMOOTH",
"656 973 OFFCURVE",
"707 933 OFFCURVE",
"707 854 CURVE SMOOTH",
"707 791 OFFCURVE",
"671 744 OFFCURVE",
"603 703 CURVE SMOOTH",
"568 682 OFFCURVE",
"507 655 OFFCURVE",
"418 621 CURVE SMOOTH",
"319 583 OFFCURVE",
"247 548 OFFCURVE",
"201 515 CURVE SMOOTH",
"108 449 OFFCURVE",
"55 366 OFFCURVE",
"55 254 CURVE SMOOTH",
"55 83 OFFCURVE",
"186 -20 OFFCURVE",
"406 -20 CURVE SMOOTH",
"523 -20 OFFCURVE",
"635 5 OFFCURVE",
"741 55 CURVE",
"741 205 LINE",
"622 149 OFFCURVE",
"518 121 OFFCURVE",
"428 121 CURVE SMOOTH",
"288 121 OFFCURVE",
"225 177 OFFCURVE",
"225 268 CURVE SMOOTH",
"225 341 OFFCURVE",
"259 390 OFFCURVE",
"326 432 CURVE SMOOTH",
"359 453 OFFCURVE",
"430 483 OFFCURVE",
"539 524 CURVE SMOOTH",
"787 619 OFFCURVE",
"877 723 OFFCURVE",
"877 864 CURVE SMOOTH",
"877 1027 OFFCURVE",
"768 1114 OFFCURVE",
"567 1114 CURVE SMOOTH",
"466 1114 OFFCURVE",
"358 1095 OFFCURVE",
"203 1036 CURVE",
"248 901 LINE"
);
}
);
width = 936;
}
);
note = afii10068;
unicode = 0433;
},
{
glyphname = afii10069;
lastChange = "2017-04-22 20:56:27 +0000";
layers = (
{
layerId = "6A44F957-816A-4D1D-8CAD-45EB0FE52ECF";
paths = (
{
closed = 1;
nodes = (
"1077 1373 OFFCURVE",
"936 1577 OFFCURVE",
"651 1577 CURVE SMOOTH",
"567 1577 OFFCURVE",
"448 1550 OFFCURVE",
"373 1513 CURVE",
"416 1391 LINE",
"485 1422 OFFCURVE",
"556 1438 OFFCURVE",
"631 1438 CURVE SMOOTH",
"816 1438 OFFCURVE",
"907 1275 OFFCURVE",
"907 934 CURVE SMOOTH",
"907 909 LINE",
"905 877 LINE",
"899 877 LINE",
"839 998 OFFCURVE",
"747 1051 OFFCURVE",
"612 1051 CURVE SMOOTH",
"517 1051 OFFCURVE",
"430 1022 OFFCURVE",
"352 963 CURVE SMOOTH",
"196 846 OFFCURVE",
"98 612 OFFCURVE",
"98 375 CURVE SMOOTH",
"98 127 OFFCURVE",
"231 -20 OFFCURVE",
"455 -20 CURVE SMOOTH",
"574 -20 OFFCURVE",
"679 21 OFFCURVE",
"772 104 CURVE SMOOTH",
"957 268 OFFCURVE",
"1077 608 OFFCURVE",
"1077 948 CURVE SMOOTH"
);
},
{
closed = 1;
nodes = (
"342 121 OFFCURVE",
"270 214 OFFCURVE",
"270 377 CURVE SMOOTH",
"270 473 OFFCURVE",
"286 563 OFFCURVE",
"319 647 CURVE SMOOTH",
"383 815 OFFCURVE",
"502 920 OFFCURVE",
"623 920 CURVE SMOOTH",
"742 920 OFFCURVE",
"833 831 OFFCURVE",
"874 682 CURVE",
"809 338 OFFCURVE",
"656 121 OFFCURVE",
"473 121 CURVE SMOOTH"
);
}
);
width = 1153;
}
);
note = afii10069;
unicode = 0434;
},
{
glyphname = afii10072;
lastChange = "2017-05-14 16:29:54 +0000";
layers = (
{
anchors = (
{
name = bottomright;
position = "{1572, 0}";
},
{
name = top;
position = "{970, 1096}";
}
);
layerId = "6A44F957-816A-4D1D-8CAD-45EB0FE52ECF";
paths = (
{
closed = 1;
nodes = (
"821 0 LINE",
"924 489 LINE",
"1094 489 LINE",
"1091 468 OFFCURVE",
"1090 438 OFFCURVE",
"1090 401 CURVE SMOOTH",
"1090 129 OFFCURVE",
"1211 -20 OFFCURVE",
"1440 -20 CURVE SMOOTH",
"1475 -20 OFFCURVE",
"1520 -15 OFFCURVE",
"1575 -4 CURVE",
"1575 135 LINE",
"1536 124 OFFCURVE",
"1498 119 OFFCURVE",
"1460 119 CURVE SMOOTH",
"1327 119 OFFCURVE",
"1262 219 OFFCURVE",
"1262 403 CURVE SMOOTH",
"1262 501 OFFCURVE",
"1278 596 OFFCURVE",
"1311 688 CURVE SMOOTH",
"1376 871 OFFCURVE",
"1489 975 OFFCURVE",
"1628 975 CURVE SMOOTH",
"1665 975 OFFCURVE",
"1701 970 OFFCURVE",
"1737 961 CURVE",
"1767 1098 LINE",
"1726 1110 OFFCURVE",
"1679 1116 OFFCURVE",
"1626 1116 CURVE SMOOTH",
"1545 1116 OFFCURVE",
"1470 1097 OFFCURVE",
"1401 1059 CURVE SMOOTH",
"1263 982 OFFCURVE",
"1154 814 OFFCURVE",
"1114 618 CURVE",
"950 618 LINE",
"1055 1096 LINE",
"901 1096 LINE",
"801 618 LINE",
"633 618 LINE",
"637 694 LINE",
"637 970 OFFCURVE",
"514 1116 OFFCURVE",
"287 1116 CURVE SMOOTH",
"254 1116 OFFCURVE",
"208 1110 OFFCURVE",
"150 1098 CURVE",
"150 961 LINE",
"192 970 OFFCURVE",
"229 975 OFFCURVE",
"262 975 CURVE SMOOTH",
"394 975 OFFCURVE",
"465 875 OFFCURVE",
"465 690 CURVE SMOOTH",
"465 593 OFFCURVE",
"449 500 OFFCURVE",
"416 409 CURVE SMOOTH",
"350 228 OFFCURVE",
"230 119 OFFCURVE",
"90 119 CURVE SMOOTH",
"59 119 OFFCURVE",
"25 124 OFFCURVE",
"-10 135 CURVE",
"-35 -4 LINE",
"2 -15 OFFCURVE",
"43 -20 OFFCURVE",
"88 -20 CURVE SMOOTH",
"177 -20 OFFCURVE",
"256 1 OFFCURVE",
"327 44 CURVE SMOOTH",
"468 129 OFFCURVE",
"568 286 OFFCURVE",
"612 489 CURVE",
"774 489 LINE",
"670 0 LINE"
);
}
);
width = 1708;
}
);
note = afii10072;
unicode = 0436;
},
{
glyphname = afii10073;
lastChange = "2017-05-14 16:29:54 +0000";
layers = (
{
anchors = (
{
name = bottom;
position = "{331, 0}";
},
{
name = top;
position = "{563, 1096}";
}
);
layerId = "6A44F957-816A-4D1D-8CAD-45EB0FE52ECF";
paths = (
{
closed = 1;
nodes = (
"248 496 LINE",
"397 496 LINE SMOOTH",
"540 496 OFFCURVE",
"606 449 OFFCURVE",
"606 330 CURVE SMOOTH",
"606 199 OFFCURVE",
"491 119 OFFCURVE",
"322 119 CURVE SMOOTH",
"214 119 OFFCURVE",
"91 150 OFFCURVE",
"-4 207 CURVE",
"-4 49 LINE",
"82 3 OFFCURVE",
"185 -20 OFFCURVE",
"305 -20 CURVE SMOOTH",
"590 -20 OFFCURVE",
"766 117 OFFCURVE",
"766 336 CURVE SMOOTH",
"766 460 OFFCURVE",
"704 538 OFFCURVE",
"580 571 CURVE",
"580 575 LINE",
"749 612 OFFCURVE",
"838 715 OFFCURVE",
"838 860 CURVE SMOOTH",
"838 1021 OFFCURVE",
"723 1116 OFFCURVE",
"520 1116 CURVE SMOOTH",
"388 1116 OFFCURVE",
"287 1089 OFFCURVE",
"166 1032 CURVE",
"219 903 LINE",
"330 954 OFFCURVE",
"410 973 OFFCURVE",
"498 973 CURVE SMOOTH",
"613 973 OFFCURVE",
"670 920 OFFCURVE",
"670 836 CURVE SMOOTH",
"670 706 OFFCURVE",
"573 641 OFFCURVE",
"379 641 CURVE SMOOTH",
"281 641 LINE"
);
}
);
width = 893;
}
);
note = afii10073;
unicode = 0437;
},
{
glyphname = afii10076;
lastChange = "2017-05-14 16:29:54 +0000";
layers = (
{
anchors = (
{
name = bottomright;
position = "{841, 0}";
},
{
name = top;
position = "{605, 1096}";
}
);
layerId = "6A44F957-816A-4D1D-8CAD-45EB0FE52ECF";
paths = (
{
closed = 1;
nodes = (
"457 1096 LINE",
"291 1096 LINE",
"59 0 LINE",
"227 0 LINE",
"342 547 LINE",
"698 0 LINE",
"901 0 LINE",
"526 555 LINE",
"1075 1096 LINE",
"862 1096 LINE",
"344 567 LINE"
);
}
);
width = 977;
}
);
note = afii10076;
unicode = 043A;
},
{
glyphname = afii10077;
lastChange = "2017-04-22 20:56:27 +0000";
layers = (
{
layerId = "6A44F957-816A-4D1D-8CAD-45EB0FE52ECF";
paths = (
{
closed = 1;
nodes = (
"952 1094 OFFCURVE",
"870 1104 OFFCURVE",
"786 1104 CURVE SMOOTH",
"610 1104 OFFCURVE",
"508 1049 OFFCURVE",
"427 922 CURVE SMOOTH",
"386 859 OFFCURVE",
"337 741 OFFCURVE",
"279 569 CURVE SMOOTH",
"236 444 OFFCURVE",
"201 354 OFFCURVE",
"172 297 CURVE SMOOTH",
"114 183 OFFCURVE",
"58 135 OFFCURVE",
"-27 135 CURVE SMOOTH",
"-53 135 OFFCURVE",
"-75 138 OFFCURVE",
"-94 145 CURVE",
"-94 0 LINE",
"-73 -9 OFFCURVE",
"-47 -14 OFFCURVE",
"-16 -14 CURVE SMOOTH",
"117 -14 OFFCURVE",
"205 42 OFFCURVE",
"282 175 CURVE SMOOTH",
"321 241 OFFCURVE",
"368 354 OFFCURVE",
"424 514 CURVE SMOOTH",
"479 672 OFFCURVE",
"521 776 OFFCURVE",
"548 827 CURVE SMOOTH",
"603 927 OFFCURVE",
"659 963 OFFCURVE",
"762 963 CURVE SMOOTH",
"788 963 OFFCURVE",
"814 960 OFFCURVE",
"840 954 CURVE",
"633 0 LINE",
"803 0 LINE",
"1032 1073 LINE"
);
}
);
width = 1100;
}
);
note = afii10077;
unicode = 043B;
},
{
glyphname = afii10078;
lastChange = "2017-04-22 20:56:27 +0000";
layers = (
{
layerId = "6A44F957-816A-4D1D-8CAD-45EB0FE52ECF";
paths = (
{
closed = 1;
nodes = (
"1350 1096 LINE",
"1151 1096 LINE",
"739 389 LINE SMOOTH",
"681 290 OFFCURVE",
"641 215 OFFCURVE",
"618 164 CURVE",
"615 207 OFFCURVE",
"607 276 OFFCURVE",
"594 371 CURVE SMOOTH",
"479 1096 LINE",
"293 1096 LINE",
"61 0 LINE",
"207 0 LINE",
"393 879 LINE",
"396 820 OFFCURVE",
"403 753 OFFCURVE",
"416 678 CURVE SMOOTH",
"526 0 LINE",
"649 0 LINE",
"1040 676 LINE SMOOTH",
"1107 789 OFFCURVE",
"1146 858 OFFCURVE",
"1157 881 CURVE",
"969 0 LINE",
"1116 0 LINE"
);
}
);
width = 1413;
}
);
note = afii10078;
unicode = 043C;
},
